{"glyphs":{"0":{"ha":788,"x_min":56,"x_max":733,"o":"m 56 488 q 143 867 56 743 q 394 992 231 992 q 651 869 569 992 q 733 488 733 746 q 645 106 733 231 q 393 -19 557 -19 q 138 112 219 -19 q 56 488 56 243 m 236 488 q 273 226 236 318 q 394 133 310 133 q 515 218 476 133 q 553 488 553 303 q 517 747 553 656 q 393 839 481 839 q 273 753 310 839 q 236 488 236 667 z "},"1":{"ha":788,"x_min":88,"x_max":694,"o":"m 140 153 l 333 153 l 333 701 l 354 796 l 288 714 l 164 629 l 88 733 l 404 989 l 506 989 l 506 153 l 694 153 l 694 0 l 140 0 l 140 153 z "},"2":{"ha":788,"x_min":96,"x_max":681,"o":"m 660 735 q 634 592 660 664 q 569 450 608 519 q 481 316 529 381 q 388 197 433 251 l 314 140 l 314 133 l 414 153 l 681 153 l 681 0 l 96 0 l 96 93 q 171 174 129 128 q 255 273 213 221 q 338 381 297 325 q 410 492 378 436 q 460 601 442 549 q 479 701 479 654 q 447 795 479 758 q 343 832 414 832 q 252 813 299 832 q 174 765 206 794 l 101 893 q 224 965 156 938 q 386 992 293 992 q 496 975 446 992 q 582 926 546 958 q 639 847 618 894 q 660 735 660 799 z "},"3":{"ha":788,"x_min":108,"x_max":692,"o":"m 335 133 q 466 179 421 133 q 511 290 511 225 q 464 407 511 369 q 315 444 417 444 l 215 444 l 215 540 l 383 769 l 463 832 l 353 819 l 119 819 l 119 972 l 650 972 l 650 874 l 454 611 l 393 574 l 393 567 l 451 575 q 544 553 500 571 q 620 501 588 535 q 672 417 653 467 q 692 301 692 367 q 665 160 692 219 q 590 60 638 100 q 478 0 542 19 q 340 -19 414 -19 q 214 -8 279 -19 q 108 24 149 3 l 157 174 q 237 144 193 156 q 335 133 281 133 z "},"4":{"ha":788,"x_min":26,"x_max":768,"o":"m 768 271 l 615 271 l 615 0 l 447 0 l 447 271 l 26 271 l 26 374 l 467 979 l 615 979 l 615 415 l 768 415 l 768 271 m 447 628 l 460 744 l 454 744 l 407 644 l 263 457 l 193 404 l 282 415 l 447 415 l 447 628 z "},"5":{"ha":788,"x_min":94,"x_max":675,"o":"m 306 140 q 446 185 397 140 q 494 307 494 229 q 438 429 494 390 q 275 468 381 468 l 165 464 l 165 972 l 643 972 l 643 803 l 321 803 l 321 615 l 378 621 q 501 596 446 618 q 594 534 556 574 q 654 438 633 494 q 675 313 675 382 q 647 168 675 231 q 570 64 619 106 q 454 1 521 22 q 308 -19 388 -19 q 190 -9 246 -19 q 94 19 133 1 l 143 169 q 213 148 175 156 q 306 140 251 140 z "},"6":{"ha":788,"x_min":72,"x_max":722,"o":"m 722 301 q 699 175 722 233 q 635 74 676 117 q 534 6 593 31 q 404 -19 475 -19 q 272 3 332 -19 q 167 72 211 26 q 97 188 122 118 q 72 349 72 257 q 112 597 72 486 q 219 791 151 708 q 376 924 286 874 q 565 992 465 975 l 606 849 q 478 806 536 838 q 374 729 419 774 q 298 630 329 685 q 254 517 267 575 q 326 576 282 551 q 438 600 371 600 q 553 581 500 600 q 643 523 606 561 q 701 429 681 485 q 722 301 722 374 m 547 292 q 394 447 547 447 q 301 422 339 447 q 247 364 263 397 q 244 338 244 349 q 244 315 244 326 q 254 249 244 282 q 283 191 264 217 q 331 149 301 165 q 400 133 360 133 q 506 178 465 133 q 547 292 547 222 z "},"7":{"ha":788,"x_min":83,"x_max":710,"o":"m 144 0 l 463 749 l 524 817 l 440 803 l 83 803 l 83 972 l 710 972 l 710 919 l 321 0 l 144 0 z "},"8":{"ha":788,"x_min":85,"x_max":704,"o":"m 85 238 q 97 324 85 286 q 133 394 110 363 q 187 450 156 425 q 254 496 218 475 q 147 595 186 539 q 108 735 108 651 q 128 836 108 789 q 187 918 149 883 q 279 972 225 953 q 401 992 333 992 q 515 975 464 992 q 603 928 567 958 q 660 853 640 897 q 681 757 681 810 q 644 618 681 675 q 536 514 607 561 q 662 407 619 465 q 704 257 704 349 q 681 144 704 194 q 617 57 658 93 q 517 1 575 21 q 389 -19 458 -19 q 263 -1 319 -19 q 167 51 207 18 q 106 132 128 85 q 85 238 85 179 m 532 256 q 517 314 532 288 q 477 362 501 340 q 423 401 453 383 q 363 436 393 419 q 273 355 297 399 q 249 268 249 311 q 287 173 249 213 q 393 133 325 133 q 494 164 456 133 q 532 256 532 194 m 281 732 q 293 674 281 699 q 327 630 306 649 q 376 595 349 611 q 432 565 403 579 q 515 721 515 636 q 481 809 515 779 q 399 839 447 839 q 309 807 338 839 q 281 732 281 775 z "},"9":{"ha":788,"x_min":63,"x_max":718,"o":"m 63 668 q 84 799 63 739 q 147 901 106 858 q 247 967 188 943 q 382 992 306 992 q 628 898 539 992 q 718 625 718 804 q 677 347 718 464 q 567 151 636 229 q 408 31 499 72 q 218 -19 318 -11 l 179 122 q 315 160 256 132 q 418 228 375 188 q 488 322 461 269 q 526 433 515 374 q 455 383 493 397 q 353 369 417 369 q 248 388 300 369 q 155 442 196 406 q 88 535 114 479 q 63 668 63 592 m 238 678 q 282 558 238 599 q 393 518 326 518 q 486 536 450 518 q 542 581 522 554 q 546 636 546 610 q 536 713 546 675 q 506 779 526 750 q 455 826 486 808 q 381 843 424 843 q 275 799 313 843 q 238 678 238 756 z "}," ":{"ha":351,"x_min":0,"x_max":0,"o":""},"!":{"ha":408,"x_min":119,"x_max":344,"o":"m 139 972 l 325 972 l 325 515 l 289 289 l 175 289 l 139 515 l 139 972 m 119 92 q 150 169 119 140 q 231 197 181 197 q 314 169 283 197 q 344 92 344 140 q 314 14 344 43 q 231 -15 283 -15 q 150 14 181 -15 q 119 92 119 43 z "},"\"":{"ha":558,"x_min":125,"x_max":489,"o":"m 125 972 l 283 972 l 233 672 l 125 672 l 125 972 m 331 972 l 489 972 l 439 672 l 331 672 l 331 972 z "},"#":{"ha":788,"x_min":26,"x_max":749,"o":"m 401 285 l 278 285 l 228 71 l 79 71 l 129 285 l 26 285 l 57 419 l 161 419 l 196 567 l 96 567 l 126 701 l 228 701 l 276 901 l 424 901 l 376 701 l 500 701 l 549 901 l 696 901 l 649 701 l 749 701 l 714 567 l 617 567 l 582 419 l 678 419 l 644 285 l 550 285 l 500 71 l 351 71 l 401 285 m 310 419 l 433 419 l 468 567 l 344 567 l 310 419 z "},"$":{"ha":788,"x_min":96,"x_max":717,"o":"m 331 -18 q 192 -1 251 -15 q 99 31 132 13 l 153 188 q 223 158 178 172 q 331 139 268 144 l 331 424 q 245 467 288 443 q 169 524 203 490 q 116 603 136 557 q 96 714 96 650 q 159 899 96 833 q 331 985 222 965 l 331 1111 l 475 1111 l 475 990 q 582 974 536 986 q 667 944 628 961 l 617 790 q 557 813 593 801 q 475 829 521 824 l 475 569 q 562 526 518 550 q 640 468 606 501 q 695 390 674 435 q 717 282 717 344 q 652 83 717 154 q 475 -10 588 11 l 475 -139 l 331 -139 l 331 -18 m 536 261 q 501 334 536 306 q 415 386 465 363 l 415 139 q 506 178 476 146 q 536 261 536 210 m 276 729 q 309 660 276 688 q 390 608 342 632 l 390 833 q 301 801 325 831 q 276 729 276 772 z "},"%":{"ha":1167,"x_min":71,"x_max":1122,"o":"m 71 753 q 89 860 71 815 q 139 933 107 904 q 216 976 171 963 q 314 989 261 989 q 411 976 367 989 q 488 936 456 964 q 539 863 521 908 q 558 753 557 818 q 539 642 557 688 q 488 569 521 597 q 411 529 456 542 q 314 517 367 517 q 216 529 261 517 q 139 569 171 542 q 89 642 107 597 q 71 753 71 688 m 232 753 q 314 633 232 633 q 376 659 357 633 q 396 753 394 685 q 376 846 394 819 q 314 872 357 872 q 251 846 271 872 q 232 753 232 819 m 635 238 q 653 344 635 300 q 703 418 671 389 q 780 460 735 447 q 878 474 825 474 q 975 461 931 474 q 1052 421 1019 449 q 1103 348 1085 393 q 1122 238 1121 303 q 1103 127 1121 172 q 1052 54 1085 82 q 975 14 1019 26 q 878 1 931 1 q 780 14 825 1 q 703 54 735 26 q 653 127 671 82 q 635 238 635 172 m 796 238 q 878 118 796 118 q 940 144 921 118 q 960 238 958 169 q 940 331 958 304 q 878 357 921 357 q 815 331 835 357 q 796 238 796 304 m 940 992 l 1042 900 l 242 -19 l 140 76 l 940 992 z "},"&":{"ha":1131,"x_min":128,"x_max":1040,"o":"m 128 269 q 145 370 128 322 q 194 460 163 418 q 268 538 225 501 q 361 601 311 574 q 304 694 326 647 q 282 794 282 742 q 295 865 282 829 q 337 928 308 900 q 411 974 365 957 q 522 992 457 992 q 631 976 586 992 q 704 936 676 961 q 744 879 732 911 q 757 814 757 847 q 717 695 757 757 q 579 576 676 633 q 676 439 628 501 q 785 315 725 376 q 842 402 817 350 q 888 508 868 454 l 1018 439 q 995 384 1010 414 q 963 324 981 354 q 928 266 946 293 q 894 219 910 239 q 972 156 939 179 q 1040 114 1006 133 l 944 -19 q 865 28 906 -1 q 783 97 824 58 q 658 16 733 51 q 474 -19 583 -19 q 338 0 401 -19 q 228 57 275 19 q 155 148 182 94 q 128 269 128 201 m 675 207 q 546 353 604 281 q 444 492 488 426 q 343 392 378 440 q 308 285 308 344 q 360 174 308 214 q 497 133 413 133 q 601 156 553 133 q 675 207 650 179 m 463 786 q 513 661 463 728 q 591 726 567 696 q 615 785 615 757 q 597 838 615 818 q 536 857 578 857 q 481 838 499 857 q 463 786 463 818 z "},"'":{"ha":353,"x_min":125,"x_max":283,"o":"m 125 972 l 283 972 l 233 672 l 125 672 l 125 972 z "},"(":{"ha":454,"x_min":83,"x_max":439,"o":"m 315 -306 q 207 -159 251 -239 q 135 5 163 -79 q 96 174 108 89 q 83 338 83 260 q 96 499 83 414 q 136 669 108 583 q 209 836 164 754 q 319 989 254 918 l 436 914 q 355 778 388 849 q 302 633 322 707 q 273 483 282 558 q 264 338 264 408 q 274 196 264 271 q 304 47 283 121 q 358 -99 325 -28 q 439 -228 392 -169 l 315 -306 z "},")":{"ha":454,"x_min":15,"x_max":371,"o":"m 135 989 q 246 842 201 922 q 317 678 290 763 q 357 509 344 594 q 371 343 369 424 q 357 185 369 269 q 317 15 344 100 q 244 -153 289 -71 q 139 -306 199 -235 l 15 -228 q 101 -88 68 -160 q 154 56 135 -17 q 181 202 174 129 q 190 338 189 275 q 178 487 189 413 q 147 635 168 561 q 94 780 126 710 q 18 914 61 850 l 135 989 z "},"*":{"ha":525,"x_min":56,"x_max":469,"o":"m 200 1015 l 239 951 l 260 869 l 281 946 l 319 1014 l 408 965 l 367 893 l 300 833 l 390 856 l 469 856 l 469 754 l 393 754 l 308 776 l 378 711 l 413 653 l 324 601 l 286 665 l 258 754 l 240 674 l 200 606 l 111 657 l 151 725 l 214 776 l 138 754 l 56 754 l 56 857 l 139 857 l 221 833 l 150 894 l 111 964 l 200 1015 z "},"+":{"ha":732,"x_min":60,"x_max":674,"o":"m 60 547 l 285 547 l 285 782 l 447 782 l 447 547 l 674 547 l 674 392 l 447 392 l 447 154 l 285 154 l 285 392 l 60 392 l 60 547 z "},",":{"ha":350,"x_min":51,"x_max":292,"o":"m 58 89 q 90 164 58 136 q 167 192 121 192 q 258 153 225 192 q 292 50 292 114 q 272 -58 292 -12 q 224 -133 253 -103 q 163 -180 196 -162 q 104 -206 131 -197 l 51 -131 q 117 -81 89 -115 q 147 -7 144 -46 q 87 13 115 -11 q 58 89 58 36 z "},"-":{"ha":500,"x_min":75,"x_max":424,"o":"m 75 479 l 424 479 l 424 319 l 75 319 l 75 479 z "},".":{"ha":342,"x_min":58,"x_max":283,"o":"m 58 92 q 89 169 58 140 q 169 197 119 197 q 253 169 222 197 q 283 92 283 140 q 253 14 283 43 q 169 -15 222 -15 q 89 14 119 -15 q 58 92 58 43 z "},"/":{"ha":567,"x_min":-33,"x_max":599,"o":"m 463 989 l 599 928 l 103 -194 l -33 -131 l 463 989 z "},":":{"ha":374,"x_min":129,"x_max":354,"o":"m 129 594 q 160 672 129 643 q 240 700 190 700 q 324 672 293 700 q 354 594 354 643 q 324 517 354 546 q 240 488 293 488 q 160 517 190 488 q 129 594 129 546 m 129 92 q 160 169 129 140 q 240 197 190 197 q 324 169 293 197 q 354 92 354 140 q 324 14 354 43 q 240 -15 293 -15 q 160 14 190 -15 q 129 92 129 43 z "},";":{"ha":403,"x_min":107,"x_max":347,"o":"m 114 89 q 145 164 114 136 q 222 192 176 192 q 314 153 281 192 q 347 50 347 114 q 328 -58 347 -12 q 280 -133 308 -103 q 219 -180 251 -162 q 160 -206 186 -197 l 107 -131 q 172 -81 144 -115 q 203 -7 200 -46 q 142 13 171 -11 q 114 89 114 36 m 114 594 q 144 672 114 643 q 225 700 175 700 q 308 672 278 700 q 339 594 339 643 q 308 517 339 546 q 225 488 278 488 q 144 517 175 488 q 114 594 114 546 z "},"<":{"ha":732,"x_min":56,"x_max":678,"o":"m 56 396 l 56 493 l 592 814 l 671 689 l 360 496 l 233 447 l 358 404 l 678 214 l 599 89 l 56 396 z "},"=":{"ha":732,"x_min":60,"x_max":674,"o":"m 60 681 l 674 681 l 674 525 l 60 525 l 60 681 m 60 415 l 674 415 l 674 260 l 60 260 l 60 415 z "},">":{"ha":732,"x_min":54,"x_max":676,"o":"m 676 507 l 676 410 l 140 89 l 61 215 l 372 407 l 499 457 l 374 499 l 54 690 l 133 814 l 676 507 z "},"?":{"ha":631,"x_min":32,"x_max":597,"o":"m 189 289 q 196 412 182 361 q 234 499 210 463 q 290 563 258 536 q 348 615 321 590 q 393 667 375 640 q 411 732 411 694 q 384 810 411 781 q 288 839 357 839 q 240 834 265 839 q 190 820 215 829 q 142 799 165 811 q 101 775 119 788 l 32 908 q 153 968 85 944 q 319 992 222 992 q 524 928 450 992 q 597 758 597 865 q 578 641 597 688 q 532 562 560 594 q 471 504 504 529 q 410 451 438 479 q 363 385 382 422 q 343 289 343 347 l 189 289 m 161 92 q 192 169 161 140 q 272 197 222 197 q 356 169 325 197 q 386 92 386 140 q 356 14 386 43 q 272 -15 325 -15 q 192 14 222 -15 q 161 92 161 43 z "},"@":{"ha":1471,"x_min":101,"x_max":1369,"o":"m 943 672 l 1040 672 l 974 296 q 973 201 963 231 q 1019 172 983 172 q 1090 189 1056 172 q 1153 240 1125 206 q 1198 328 1181 275 q 1215 453 1215 381 q 1181 631 1215 557 q 1085 752 1146 704 q 943 822 1025 800 q 767 844 861 844 q 565 806 658 844 q 403 699 472 767 q 296 537 335 631 q 257 333 257 443 q 290 139 257 225 q 385 -8 322 53 q 540 -101 447 -68 q 751 -133 632 -133 q 843 -124 792 -133 q 936 -94 894 -114 l 979 -228 q 863 -267 922 -256 q 728 -278 804 -278 q 478 -239 593 -278 q 280 -124 364 -200 q 149 66 196 -47 q 101 328 101 179 q 156 601 101 479 q 301 810 210 724 q 514 942 393 896 q 769 989 635 989 q 1007 952 897 989 q 1197 847 1117 915 q 1324 678 1278 778 q 1369 453 1369 579 q 1338 286 1369 364 q 1252 151 1307 208 q 1124 61 1197 94 q 968 28 1051 28 q 903 35 933 28 q 853 61 874 43 q 824 108 833 79 q 818 181 814 138 l 813 181 q 767 124 792 151 q 714 74 743 96 q 650 40 685 53 q 574 28 615 28 q 510 42 540 28 q 457 83 479 57 q 422 147 435 110 q 408 231 408 185 q 436 398 408 317 q 512 542 464 479 q 623 642 560 604 q 757 681 686 681 q 839 666 806 681 q 900 628 872 651 l 943 672 m 856 504 q 818 528 838 519 q 769 536 799 536 q 692 513 728 536 q 631 451 657 489 q 592 367 606 414 q 578 276 578 321 q 597 201 578 231 q 661 172 615 172 q 703 184 681 172 q 746 215 725 196 q 786 260 767 235 q 821 313 806 285 l 856 504 z "},"A":{"ha":840,"x_min":0,"x_max":840,"o":"m 563 215 l 264 215 l 190 0 l 0 0 l 350 979 l 490 979 l 840 0 l 640 0 l 563 215 m 313 368 l 521 368 l 449 585 l 419 738 l 413 738 l 383 583 l 313 368 z "},"B":{"ha":821,"x_min":83,"x_max":768,"o":"m 738 746 q 728 674 738 710 q 699 608 719 638 q 644 555 678 578 q 564 521 611 532 l 564 513 q 643 489 606 506 q 708 443 681 472 q 752 372 736 414 q 768 274 768 331 q 736 144 768 199 q 651 54 704 89 q 529 3 597 19 q 389 -14 461 -14 q 328 -14 365 -14 q 249 -12 292 -14 q 163 -6 207 -10 q 83 7 119 -1 l 83 965 q 144 974 110 969 q 217 981 178 978 q 297 985 256 983 q 378 986 338 986 q 510 976 446 986 q 626 939 575 965 q 707 865 676 913 q 738 746 738 818 m 390 143 q 458 151 425 143 q 515 177 490 160 q 556 221 540 194 q 571 283 571 247 q 553 356 571 329 q 506 397 535 382 q 440 415 476 411 q 368 419 404 419 l 267 419 l 267 151 q 289 147 274 149 q 322 145 304 146 q 358 144 339 144 q 390 143 376 143 m 328 564 q 373 565 347 564 q 415 569 399 567 q 506 619 468 586 q 544 707 544 653 q 531 767 544 743 q 494 804 517 790 q 442 824 471 818 q 381 829 413 829 q 314 828 344 829 q 267 824 283 826 l 267 564 l 328 564 z "},"C":{"ha":776,"x_min":53,"x_max":742,"o":"m 742 40 q 628 -6 697 8 q 488 -19 560 -19 q 322 8 400 -19 q 183 95 243 35 q 88 252 124 156 q 53 486 53 349 q 92 726 53 629 q 195 881 132 822 q 336 966 258 940 q 492 992 414 992 q 633 981 575 992 q 728 954 690 969 l 690 793 q 615 815 658 808 q 508 822 571 822 q 323 740 393 822 q 253 486 253 658 q 269 349 253 411 q 320 244 286 288 q 405 176 354 200 q 522 151 456 151 q 628 164 585 151 q 703 196 671 176 l 742 40 z "},"D":{"ha":899,"x_min":83,"x_max":846,"o":"m 83 972 q 149 979 113 976 q 225 983 186 982 q 301 985 264 985 q 367 986 338 986 q 588 950 496 986 q 736 849 679 914 q 819 693 793 783 q 846 494 846 603 q 821 304 846 396 q 738 142 796 213 q 584 28 679 71 q 349 -15 489 -15 q 290 -14 326 -15 q 213 -10 253 -12 q 138 -6 174 -8 q 83 -1 101 -4 l 83 972 m 382 817 q 320 815 351 817 q 274 811 289 814 l 274 160 q 292 158 279 158 q 321 156 306 157 q 350 155 336 156 q 371 154 364 154 q 505 183 451 154 q 590 258 558 211 q 633 367 621 306 q 646 494 646 429 q 635 609 646 551 q 594 713 624 667 q 513 788 564 758 q 382 817 461 817 z "},"E":{"ha":725,"x_min":83,"x_max":667,"o":"m 83 972 l 660 972 l 660 803 l 274 803 l 274 576 l 625 576 l 625 407 l 274 407 l 274 169 l 667 169 l 667 0 l 83 0 l 83 972 z "},"F":{"ha":706,"x_min":83,"x_max":660,"o":"m 83 972 l 660 972 l 660 803 l 274 803 l 274 563 l 629 563 l 629 393 l 274 393 l 274 0 l 83 0 l 83 972 z "},"G":{"ha":846,"x_min":53,"x_max":789,"o":"m 426 507 l 789 507 l 789 74 q 649 3 731 25 q 489 -19 568 -19 q 316 10 396 -19 q 178 101 236 39 q 86 258 119 163 q 53 486 53 354 q 92 720 53 624 q 197 877 132 817 q 342 965 261 938 q 506 992 422 992 q 652 979 589 992 q 753 953 715 967 l 714 793 q 636 815 679 807 q 526 822 593 822 q 417 804 467 822 q 330 745 367 786 q 273 640 293 704 q 253 485 253 576 q 272 334 253 397 q 326 230 292 271 q 408 169 361 189 q 507 150 454 150 q 578 159 543 150 q 636 186 613 168 l 636 369 l 426 392 l 426 507 z "},"H":{"ha":904,"x_min":83,"x_max":819,"o":"m 629 407 l 274 407 l 274 0 l 83 0 l 83 972 l 274 972 l 274 576 l 629 576 l 629 972 l 819 972 l 819 0 l 629 0 l 629 407 z "},"I":{"ha":396,"x_min":103,"x_max":293,"o":"m 103 972 l 293 972 l 293 0 l 103 0 l 103 972 z "},"J":{"ha":464,"x_min":-32,"x_max":372,"o":"m 182 972 l 372 972 l 372 261 q 360 156 372 206 q 319 67 347 106 q 246 6 290 29 q 138 -17 201 -17 q 50 -8 97 -17 q -32 15 3 0 l 10 171 q 92 153 46 153 q 166 196 150 153 q 182 310 182 239 l 182 972 z "},"K":{"ha":861,"x_min":83,"x_max":846,"o":"m 324 415 l 274 415 l 274 0 l 83 0 l 83 972 l 274 972 l 274 542 l 318 561 l 586 972 l 803 972 l 519 564 l 444 511 l 522 457 l 846 0 l 611 0 l 324 415 z "},"L":{"ha":714,"x_min":83,"x_max":699,"o":"m 699 0 l 83 0 l 83 972 l 274 972 l 274 169 l 699 169 l 699 0 z "},"M":{"ha":1111,"x_min":83,"x_max":1028,"o":"m 838 504 l 858 697 l 850 697 l 790 542 l 583 179 l 522 179 l 304 543 l 243 697 l 236 697 l 264 506 l 264 0 l 83 0 l 83 972 l 257 972 l 517 528 l 563 417 l 568 417 l 610 531 l 856 972 l 1028 972 l 1028 0 l 838 0 l 838 504 z "},"N":{"ha":913,"x_min":83,"x_max":829,"o":"m 325 507 l 249 660 l 242 660 l 264 507 l 264 0 l 83 0 l 83 979 l 222 979 l 590 461 l 664 313 l 671 313 l 649 461 l 649 972 l 829 972 l 829 -7 l 690 -7 l 325 507 z "},"O":{"ha":931,"x_min":53,"x_max":878,"o":"m 53 486 q 160 860 53 729 q 465 992 267 992 q 647 956 569 992 q 776 853 725 919 q 853 693 828 786 q 878 486 878 600 q 770 112 878 243 q 465 -19 663 -19 q 282 17 360 -19 q 153 119 204 53 q 78 279 103 186 q 53 486 53 372 m 253 486 q 265 351 253 413 q 303 244 278 289 q 369 175 329 200 q 465 150 410 150 q 622 229 567 150 q 678 486 678 308 q 666 618 678 557 q 629 725 654 679 q 564 797 604 771 q 465 822 524 822 q 308 741 364 822 q 253 486 253 660 z "},"P":{"ha":794,"x_min":83,"x_max":760,"o":"m 83 963 q 212 980 142 974 q 351 986 282 986 q 497 974 424 986 q 628 927 569 963 q 723 828 686 892 q 760 664 760 765 q 728 509 760 572 q 643 406 696 446 q 523 347 590 365 q 383 329 456 329 q 361 329 376 329 q 329 330 346 329 q 297 332 313 331 q 274 335 281 333 l 274 0 l 83 0 l 83 963 m 367 822 q 314 820 339 822 q 274 815 289 818 l 274 500 q 290 497 279 499 q 314 495 301 496 q 338 494 326 494 q 356 494 350 494 q 430 501 393 494 q 496 527 467 508 q 542 579 525 546 q 560 667 560 613 q 543 742 560 713 q 499 790 526 772 q 438 815 472 808 q 367 822 403 822 z "},"Q":{"ha":931,"x_min":53,"x_max":975,"o":"m 975 -281 q 840 -299 908 -299 q 703 -284 769 -299 q 574 -253 636 -269 q 453 -222 511 -236 q 343 -207 394 -207 q 279 -215 310 -207 l 279 -51 q 360 -43 318 -43 q 476 -57 418 -43 q 593 -87 533 -71 q 715 -117 653 -103 q 847 -131 778 -131 q 910 -127 878 -131 q 975 -115 942 -124 l 975 -281 m 53 486 q 160 860 53 729 q 465 992 267 992 q 647 956 569 992 q 776 853 725 919 q 853 693 828 786 q 878 486 878 600 q 770 112 878 243 q 465 -19 663 -19 q 282 17 360 -19 q 153 119 204 53 q 78 279 103 186 q 53 486 53 372 m 253 486 q 265 351 253 413 q 303 244 278 289 q 369 175 329 200 q 465 150 410 150 q 622 229 567 150 q 678 486 678 308 q 666 618 678 557 q 629 725 654 679 q 564 797 604 771 q 465 822 524 822 q 308 741 364 822 q 253 486 253 660 z "},"R":{"ha":836,"x_min":83,"x_max":814,"o":"m 83 963 q 152 973 115 968 q 226 981 189 978 q 297 985 263 983 q 361 986 332 986 q 495 974 429 986 q 613 931 561 961 q 697 847 665 900 q 728 713 728 793 q 672 518 728 593 q 524 414 617 443 l 592 371 l 814 0 l 594 0 l 374 381 l 274 399 l 274 0 l 83 0 l 83 963 m 375 817 q 317 815 346 817 q 274 810 289 814 l 274 528 l 354 528 q 481 564 433 528 q 528 683 528 600 q 489 781 528 746 q 375 817 450 817 z "},"S":{"ha":736,"x_min":38,"x_max":693,"o":"m 503 261 q 470 333 503 306 q 388 384 438 361 q 281 431 339 407 q 174 491 224 456 q 92 579 125 526 q 60 714 60 632 q 83 837 60 785 q 151 924 107 889 q 254 975 194 958 q 388 992 314 992 q 547 977 472 992 q 671 935 622 963 l 611 775 q 519 810 581 794 q 388 826 458 826 q 285 800 321 826 q 250 729 250 774 q 283 660 250 688 q 365 608 315 632 q 472 560 414 585 q 578 499 529 535 q 660 412 628 464 q 693 282 693 360 q 667 148 693 204 q 595 54 642 92 q 483 -1 549 17 q 338 -19 417 -19 q 154 0 233 -19 q 38 39 75 19 l 99 201 q 138 183 114 193 q 193 165 163 174 q 258 151 224 157 q 328 146 292 146 q 458 174 413 146 q 503 261 503 203 z "},"T":{"ha":789,"x_min":15,"x_max":774,"o":"m 774 803 l 490 803 l 490 0 l 300 0 l 300 803 l 15 803 l 15 972 l 774 972 l 774 803 z "},"U":{"ha":871,"x_min":79,"x_max":792,"o":"m 611 972 l 792 972 l 792 344 q 767 182 792 250 q 697 69 742 114 q 589 4 653 25 q 449 -17 525 -17 q 79 321 79 -17 l 79 972 l 269 972 l 269 358 q 280 262 269 301 q 313 198 290 222 q 368 163 335 174 q 446 153 401 153 q 572 201 533 153 q 611 358 611 250 l 611 972 z "},"V":{"ha":836,"x_min":-12,"x_max":849,"o":"m 403 401 l 428 236 l 435 236 l 463 403 l 649 972 l 849 972 l 488 -7 l 351 -7 l -12 972 l 208 972 l 403 401 z "},"W":{"ha":1197,"x_min":0,"x_max":1197,"o":"m 336 429 l 354 257 l 360 257 l 379 432 l 549 972 l 674 972 l 840 429 l 860 257 l 865 257 l 886 432 l 1004 972 l 1197 972 l 929 -7 l 801 -7 l 628 533 l 604 682 l 597 682 l 574 532 l 401 -7 l 267 -7 l 0 972 l 207 972 l 336 429 z "},"X":{"ha":879,"x_min":14,"x_max":864,"o":"m 313 494 l 42 972 l 271 972 l 421 692 l 454 593 l 486 692 l 643 972 l 850 972 l 569 504 l 864 0 l 638 0 l 467 300 l 429 403 l 393 300 l 221 0 l 14 0 l 313 494 z "},"Y":{"ha":822,"x_min":-3,"x_max":825,"o":"m 317 361 l -3 972 l 224 972 l 401 607 l 421 504 l 428 504 l 449 610 l 621 972 l 825 972 l 507 363 l 507 0 l 317 0 l 317 361 z "},"Z":{"ha":749,"x_min":38,"x_max":711,"o":"m 38 169 l 449 744 l 521 803 l 38 803 l 38 972 l 711 972 l 711 803 l 297 222 l 226 169 l 711 169 l 711 0 l 38 0 l 38 169 z "},"[":{"ha":450,"x_min":83,"x_max":410,"o":"m 83 972 l 410 972 l 410 819 l 256 819 l 256 -167 l 410 -167 l 410 -319 l 83 -319 l 83 972 z "},"\\":{"ha":589,"x_min":-33,"x_max":608,"o":"m 608 -132 l 471 -194 l -33 928 l 108 988 l 608 -132 z "},"]":{"ha":450,"x_min":40,"x_max":367,"o":"m 367 -319 l 40 -319 l 40 -167 l 194 -167 l 194 819 l 40 819 l 40 972 l 367 972 l 367 -319 z "},"^":{"ha":694,"x_min":28,"x_max":653,"o":"m 300 979 l 396 979 l 653 574 l 471 574 l 372 743 l 343 840 l 308 742 l 200 574 l 28 574 l 300 979 z "},"_":{"ha":617,"x_min":0,"x_max":617,"o":"m 0 -162 l 617 -162 l 617 -311 l 0 -311 l 0 -162 z "},"`":{"ha":439,"x_min":83,"x_max":356,"o":"m 356 786 l 256 786 l 83 958 l 83 1000 l 272 1000 l 356 786 z "},"a":{"ha":689,"x_min":32,"x_max":632,"o":"m 75 654 q 207 694 131 679 q 367 708 283 708 q 488 691 439 708 q 565 642 536 674 q 605 565 593 610 q 617 465 617 521 q 613 342 617 404 q 608 221 608 281 q 611 105 607 161 q 632 -1 615 49 l 485 -1 l 456 94 l 449 94 q 372 20 421 51 q 244 -11 322 -11 q 157 3 196 -11 q 90 45 118 18 q 47 109 63 72 q 32 192 32 146 q 60 299 32 256 q 142 370 89 343 q 270 408 196 397 q 436 414 344 418 q 425 526 446 492 q 332 560 404 560 q 217 549 278 560 q 118 519 157 538 l 75 654 m 304 138 q 390 162 358 138 q 438 214 422 186 l 438 304 q 355 306 394 308 q 285 293 315 303 q 236 265 254 283 q 218 219 218 247 q 241 159 218 181 q 304 138 264 138 z "},"b":{"ha":744,"x_min":79,"x_max":699,"o":"m 79 972 l 260 972 l 260 639 l 265 639 q 340 692 294 672 q 442 711 386 711 q 633 626 567 711 q 699 365 699 540 q 606 81 699 178 q 353 -17 514 -17 q 190 -2 264 -17 q 79 31 117 13 l 79 972 m 389 558 q 308 533 339 558 q 260 458 276 507 l 260 156 q 308 140 282 144 q 363 136 333 136 q 474 190 436 136 q 513 360 513 243 q 389 558 513 558 z "},"c":{"ha":601,"x_min":46,"x_max":571,"o":"m 571 43 q 470 -3 529 13 q 349 -19 411 -19 q 208 7 265 -19 q 114 81 150 33 q 62 197 78 129 q 46 347 46 265 q 125 619 46 524 q 356 714 204 714 q 478 701 432 714 q 563 669 525 689 l 519 522 q 456 546 488 538 q 385 554 425 554 q 271 505 310 554 q 232 347 232 456 q 242 265 232 303 q 271 200 251 228 q 322 156 290 172 q 394 140 353 140 q 472 152 440 140 q 529 181 504 164 l 571 43 z "},"d":{"ha":749,"x_min":46,"x_max":683,"o":"m 669 244 q 671 128 669 186 q 683 -1 672 69 l 554 -1 l 529 89 l 524 89 q 444 10 496 40 q 321 -19 392 -19 q 118 67 190 -19 q 46 336 46 153 q 126 613 46 514 q 363 711 207 711 q 433 706 406 711 q 489 690 461 701 l 489 972 l 669 972 l 669 244 m 363 133 q 446 159 415 133 q 489 233 476 185 l 489 528 q 446 551 469 543 q 385 558 422 558 q 270 507 308 558 q 232 331 232 456 q 263 188 232 242 q 363 133 294 133 z "},"e":{"ha":706,"x_min":46,"x_max":657,"o":"m 635 60 q 522 3 593 26 q 369 -19 450 -19 q 124 78 201 -19 q 46 347 46 176 q 133 622 46 531 q 379 714 221 714 q 482 700 432 714 q 571 654 532 686 q 633 568 610 622 q 657 433 657 514 q 653 371 657 404 q 643 301 650 338 l 226 301 q 272 169 231 214 q 404 125 313 125 q 506 142 461 125 q 575 178 551 160 l 635 60 m 376 569 q 272 527 306 569 q 231 414 238 485 l 489 414 q 466 529 494 489 q 376 569 438 569 z "},"f":{"ha":446,"x_min":15,"x_max":513,"o":"m 15 694 l 111 694 l 111 733 q 167 924 111 865 q 328 983 222 983 q 513 957 439 983 l 478 813 q 422 827 446 824 q 371 831 397 831 q 327 822 343 831 q 303 797 311 814 q 294 753 296 779 q 292 694 292 728 l 444 694 l 444 542 l 292 542 l 292 0 l 111 0 l 111 542 l 15 542 l 15 694 z "},"g":{"ha":744,"x_min":46,"x_max":667,"o":"m 667 0 q 585 -223 667 -151 q 356 -294 503 -294 q 198 -281 256 -294 q 111 -251 140 -267 l 149 -108 q 223 -133 181 -121 q 328 -146 265 -146 q 456 -105 422 -146 q 490 10 490 -64 l 490 54 l 485 54 q 313 -11 436 -11 q 112 72 178 -11 q 46 333 46 156 q 135 615 46 519 q 393 711 224 711 q 552 699 482 711 q 667 669 622 686 l 667 0 m 361 133 q 442 157 414 133 q 486 228 471 181 l 486 540 q 379 558 443 558 q 271 506 310 558 q 232 340 232 454 q 265 186 232 239 q 361 133 299 133 z "},"h":{"ha":757,"x_min":79,"x_max":685,"o":"m 504 0 l 504 394 q 481 517 504 479 q 394 554 457 554 q 310 523 349 554 q 260 443 272 492 l 260 0 l 79 0 l 79 972 l 260 972 l 260 617 l 265 617 q 347 688 299 661 q 471 714 396 714 q 564 700 524 714 q 631 654 604 686 q 672 567 658 622 q 685 432 685 513 l 685 0 l 504 0 z "},"i":{"ha":374,"x_min":68,"x_max":299,"o":"m 94 694 l 275 694 l 275 0 l 94 0 l 94 694 m 68 890 q 98 959 68 931 q 181 988 128 988 q 266 959 233 988 q 299 890 299 931 q 266 823 299 850 q 181 796 233 796 q 98 823 128 796 q 68 890 68 850 z "},"j":{"ha":372,"x_min":-22,"x_max":301,"o":"m 96 694 l 276 694 l 276 -29 q 226 -222 276 -156 q 67 -289 176 -289 q -22 -279 25 -289 l -22 -128 q -12 -128 -17 -128 q -4 -129 -8 -129 q 77 -89 58 -129 q 96 22 96 -49 l 96 694 m 71 890 q 101 959 71 931 q 183 988 131 988 q 269 959 236 988 q 301 890 301 931 q 269 823 301 850 q 183 796 236 796 q 101 823 131 796 q 71 890 71 850 z "},"k":{"ha":682,"x_min":79,"x_max":685,"o":"m 308 288 l 260 288 l 260 0 l 79 0 l 79 972 l 260 972 l 260 399 l 301 418 l 460 694 l 658 694 l 492 431 l 421 378 l 497 324 l 685 0 l 478 0 l 308 288 z "},"l":{"ha":408,"x_min":85,"x_max":410,"o":"m 265 233 q 278 163 265 185 q 318 140 290 140 q 351 143 335 140 q 390 156 367 146 l 410 14 q 342 -8 388 3 q 247 -19 296 -19 q 126 17 168 -19 q 85 139 85 54 l 85 972 l 265 972 l 265 233 z "},"m":{"ha":1118,"x_min":79,"x_max":1049,"o":"m 474 0 l 474 378 q 456 514 474 474 q 381 554 438 554 q 304 528 333 554 q 260 463 275 503 l 260 0 l 79 0 l 79 694 l 219 694 l 240 603 l 246 603 q 327 681 278 647 q 454 714 376 714 q 563 687 521 714 q 629 596 606 660 q 711 682 661 650 q 832 714 761 714 q 931 700 890 714 q 998 652 972 686 q 1036 561 1024 618 q 1049 417 1049 504 l 1049 0 l 868 0 l 868 390 q 851 513 868 472 q 774 554 833 554 q 697 528 725 554 q 654 456 668 501 l 654 0 l 474 0 z "},"n":{"ha":757,"x_min":79,"x_max":685,"o":"m 504 0 l 504 394 q 480 517 504 479 q 397 554 456 554 q 310 524 346 554 q 260 450 275 494 l 260 0 l 79 0 l 79 694 l 222 694 l 243 603 l 249 603 q 333 681 281 647 q 469 714 386 714 q 561 700 521 714 q 629 654 601 686 q 671 567 657 622 q 685 432 685 513 l 685 0 l 504 0 z "},"o":{"ha":746,"x_min":46,"x_max":700,"o":"m 46 347 q 132 619 46 524 q 374 714 218 714 q 518 688 457 714 q 619 613 579 661 q 680 497 660 565 q 700 347 700 429 q 615 76 700 171 q 374 -19 529 -19 q 229 7 290 -19 q 127 81 168 33 q 66 197 86 129 q 46 347 46 265 m 232 347 q 240 263 232 301 q 265 194 249 224 q 309 149 282 165 q 374 133 336 133 q 479 185 444 133 q 514 347 514 236 q 482 502 514 443 q 374 561 450 561 q 269 511 307 561 q 232 347 232 461 z "},"p":{"ha":750,"x_min":79,"x_max":704,"o":"m 79 694 l 211 694 l 232 611 l 238 611 q 323 689 274 664 q 443 714 372 714 q 639 631 574 714 q 704 365 704 549 q 683 205 704 276 q 622 83 663 133 q 522 7 581 33 q 386 -19 463 -19 q 315 -13 343 -19 q 260 7 288 -7 l 260 -278 l 79 -278 l 79 694 m 389 561 q 306 535 336 561 q 260 456 276 508 l 260 167 q 302 142 279 151 q 363 133 325 133 q 479 188 440 133 q 518 369 518 243 q 488 511 518 461 q 389 561 457 561 z "},"q":{"ha":744,"x_min":46,"x_max":667,"o":"m 667 -278 l 486 -278 l 486 60 l 481 60 q 417 2 457 24 q 313 -19 376 -19 q 115 68 183 -19 q 46 333 46 156 q 140 615 46 519 q 408 711 233 711 q 483 708 446 711 q 555 698 521 704 q 618 684 589 692 q 667 669 647 676 l 667 -278 m 361 133 q 442 157 414 133 q 486 228 471 181 l 486 540 q 439 555 465 551 q 379 558 413 558 q 269 503 306 558 q 232 340 232 447 q 265 186 232 239 q 361 133 299 133 z "},"r":{"ha":488,"x_min":79,"x_max":486,"o":"m 463 525 q 385 540 419 540 q 303 515 336 540 q 260 449 271 489 l 260 0 l 79 0 l 79 694 l 219 694 l 240 603 l 246 603 q 310 682 269 654 q 404 710 350 710 q 486 694 440 710 l 463 525 z "},"s":{"ha":586,"x_min":35,"x_max":547,"o":"m 367 192 q 343 236 367 219 q 285 267 319 253 q 208 295 250 281 q 132 335 167 310 q 74 401 97 361 q 50 503 50 440 q 111 660 50 606 q 288 714 172 714 q 431 697 367 714 q 531 660 494 681 l 490 529 q 410 556 458 542 q 311 569 361 569 q 231 507 231 569 q 254 467 231 482 q 313 438 278 451 q 389 410 347 425 q 465 370 431 394 q 524 307 500 346 q 547 207 547 268 q 480 41 547 101 q 278 -19 413 -19 q 140 -1 204 -19 q 35 43 75 18 l 85 178 q 169 142 117 160 q 278 125 222 125 q 342 140 318 125 q 367 192 367 156 z "},"t":{"ha":485,"x_min":7,"x_max":478,"o":"m 7 694 l 103 694 l 103 825 l 283 876 l 283 694 l 453 694 l 453 542 l 283 542 l 283 275 q 298 172 283 203 q 353 140 313 140 q 401 146 381 140 q 446 163 421 151 l 478 24 q 390 -7 440 6 q 289 -19 340 -19 q 148 30 193 -19 q 103 192 103 79 l 103 542 l 7 542 l 7 694 z "},"u":{"ha":747,"x_min":72,"x_max":690,"o":"m 253 694 l 253 300 q 273 178 253 215 q 351 140 293 140 q 437 171 403 140 q 488 246 471 201 l 488 694 l 668 694 l 668 211 q 674 99 668 154 q 690 0 679 44 l 554 0 l 522 103 l 517 103 q 428 15 485 50 q 293 -19 371 -19 q 199 -6 240 -19 q 129 40 157 8 q 87 126 101 72 q 72 263 72 181 l 72 694 l 253 694 z "},"v":{"ha":663,"x_min":-19,"x_max":682,"o":"m 319 331 l 343 224 l 350 224 l 369 333 l 488 694 l 682 694 l 392 -7 l 282 -7 l -19 694 l 190 694 l 319 331 z "},"w":{"ha":1001,"x_min":-11,"x_max":1013,"o":"m 582 694 l 708 339 l 733 224 l 739 224 l 758 340 l 847 694 l 1013 694 l 799 -7 l 665 -7 l 525 382 l 507 469 l 500 469 l 483 381 l 350 -7 l 213 -7 l -11 694 l 185 694 l 286 346 l 303 222 l 310 222 l 333 347 l 449 694 l 582 694 z "},"x":{"ha":729,"x_min":11,"x_max":718,"o":"m 236 356 l 28 694 l 243 694 l 333 546 l 372 449 l 414 546 l 508 694 l 704 694 l 494 361 l 718 0 l 508 0 l 401 167 l 360 269 l 315 167 l 208 0 l 11 0 l 236 356 z "},"y":{"ha":664,"x_min":-12,"x_max":675,"o":"m 332 304 l 357 196 l 365 196 l 383 306 l 489 694 l 675 694 l 464 68 q 413 -74 438 -10 q 360 -186 389 -139 q 295 -259 331 -233 q 211 -285 260 -285 q 96 -261 139 -285 l 129 -117 q 171 -125 150 -125 q 233 -98 203 -125 q 278 0 263 -71 l -12 694 l 204 694 l 332 304 z "},"z":{"ha":636,"x_min":43,"x_max":588,"o":"m 43 153 l 317 482 l 388 542 l 43 542 l 43 694 l 588 694 l 588 542 l 317 207 l 247 153 l 588 153 l 588 0 l 43 0 l 43 153 z "},"{":{"ha":515,"x_min":60,"x_max":486,"o":"m 171 133 q 142 231 171 204 q 60 257 113 257 l 60 396 q 142 424 113 396 q 171 514 171 453 l 171 804 q 206 926 171 879 q 319 974 242 974 l 486 974 l 486 821 l 417 821 q 362 801 379 821 q 344 738 344 782 l 344 467 q 315 374 344 406 q 247 336 286 343 l 247 322 q 315 281 285 317 q 344 186 344 244 l 344 -83 q 361 -147 344 -128 q 418 -167 378 -167 l 486 -167 l 486 -319 l 319 -319 q 209 -276 247 -319 q 171 -151 171 -232 l 171 133 z "},"|":{"ha":315,"x_min":83,"x_max":232,"o":"m 83 972 l 232 972 l 232 -181 l 83 -181 l 83 972 z "},"}":{"ha":515,"x_min":49,"x_max":474,"o":"m 363 521 q 392 424 363 450 q 474 397 421 397 l 474 258 q 392 230 421 258 q 363 140 363 201 l 363 -150 q 326 -272 363 -225 q 211 -319 289 -319 l 49 -319 l 49 -167 l 118 -167 q 173 -148 156 -167 q 190 -83 190 -129 l 190 188 q 219 280 190 249 q 288 318 249 311 l 288 332 q 220 374 250 338 q 190 468 190 410 l 190 738 q 174 801 190 781 q 117 821 157 821 l 49 821 l 49 974 l 214 974 q 325 930 288 974 q 363 806 363 886 l 363 521 z "},"~":{"ha":732,"x_min":39,"x_max":693,"o":"m 39 525 q 156 598 104 578 q 253 618 208 618 q 328 606 293 618 q 394 581 363 594 q 458 556 426 568 q 521 544 489 544 q 572 553 546 544 q 628 585 599 561 l 693 442 q 601 389 643 404 q 524 374 560 374 q 451 386 485 374 q 387 414 418 399 q 324 442 356 429 q 256 454 292 454 q 184 440 222 454 q 100 386 146 425 l 39 525 z "}," ":{"ha":351,"x_min":0,"x_max":0,"o":""},"¡":{"ha":407,"x_min":61,"x_max":286,"o":"m 265 -278 l 79 -278 l 79 179 l 115 404 l 229 404 l 265 179 l 265 -278 m 61 604 q 92 681 61 653 q 172 710 122 710 q 256 681 225 710 q 286 604 286 653 q 256 526 286 556 q 172 497 225 497 q 92 526 122 497 q 61 604 61 556 z "},"¢":{"ha":788,"x_min":117,"x_max":679,"o":"m 679 43 q 620 12 656 25 q 544 -8 585 -1 l 544 -139 l 376 -139 l 376 -15 q 256 24 306 -6 q 176 101 207 54 q 131 210 144 147 q 117 347 117 272 q 183 595 117 503 q 376 708 250 688 l 376 833 l 544 833 l 544 708 q 614 694 583 703 q 669 672 644 685 l 628 525 q 583 540 607 535 q 535 549 560 546 l 535 144 q 592 158 567 149 q 638 179 618 168 l 679 43 m 294 347 q 321 223 294 276 q 410 150 347 169 l 410 547 q 323 484 351 532 q 294 347 294 436 z "},"£":{"ha":788,"x_min":71,"x_max":726,"o":"m 71 547 l 165 547 q 134 622 147 581 q 121 722 121 664 q 144 841 121 790 q 208 925 167 892 q 306 975 249 958 q 431 992 363 992 q 585 976 515 992 q 704 936 654 960 l 646 775 q 569 806 618 790 q 453 822 521 822 q 349 791 386 822 q 311 697 311 760 q 328 616 311 650 q 367 547 346 582 l 563 547 l 563 399 l 426 399 q 431 351 431 375 q 417 264 431 310 q 374 189 403 218 l 314 146 l 314 139 l 407 160 l 726 160 l 726 0 l 71 0 l 71 160 l 74 160 q 149 175 117 161 q 203 212 182 189 q 236 265 225 235 q 247 329 247 296 q 239 399 247 367 l 71 399 l 71 547 z "},"¤":{"ha":788,"x_min":7,"x_max":782,"o":"m 113 864 l 221 757 l 247 706 q 313 737 275 726 q 393 747 351 747 q 473 737 433 747 q 539 707 513 726 l 567 757 l 675 864 l 782 753 l 675 644 l 624 622 q 651 556 643 593 q 660 479 660 519 q 651 401 660 438 q 624 339 642 364 l 675 317 l 782 208 l 675 97 l 567 204 l 542 256 q 474 225 515 236 q 393 214 433 214 q 313 224 351 214 q 247 254 275 235 l 221 204 l 113 97 l 7 208 l 114 317 l 164 340 q 138 403 147 369 q 128 479 128 438 q 138 554 128 519 q 167 621 149 589 l 114 644 l 7 753 l 113 864 m 279 481 q 311 394 279 428 q 394 361 343 361 q 477 394 446 361 q 508 481 508 428 q 477 565 508 531 q 394 600 446 600 q 311 565 343 600 q 279 481 279 531 z "},"¥":{"ha":788,"x_min":-19,"x_max":808,"o":"m 118 468 l 243 468 l -19 972 l 207 972 l 385 607 l 404 504 l 411 504 l 432 610 l 604 972 l 808 972 l 544 468 l 671 468 l 671 357 l 490 357 l 490 276 l 671 276 l 671 165 l 490 165 l 490 0 l 300 0 l 300 165 l 118 165 l 118 276 l 300 276 l 300 357 l 118 357 l 118 468 z "},"¦":{"ha":315,"x_min":83,"x_max":232,"o":"m 83 296 l 232 296 l 232 -181 l 83 -181 l 83 296 m 232 496 l 83 496 l 83 972 l 232 972 l 232 496 z "},"§":{"ha":736,"x_min":68,"x_max":668,"o":"m 68 490 q 89 574 68 533 q 146 647 110 615 l 203 667 q 143 723 167 689 q 119 814 119 757 q 180 942 119 892 q 363 992 240 992 q 515 978 444 992 q 624 946 586 964 l 579 800 q 494 827 547 815 q 393 839 442 839 q 321 824 342 839 q 300 785 300 808 q 327 746 300 760 q 395 721 354 732 q 484 696 436 710 q 573 657 532 682 q 641 590 614 632 q 668 482 668 549 q 648 399 668 439 q 592 326 628 358 l 529 307 q 592 250 567 285 q 617 158 617 215 q 549 26 617 71 q 368 -19 481 -19 q 210 -1 274 -19 q 107 40 147 18 l 154 179 q 232 149 186 164 q 339 133 278 133 q 413 147 390 133 q 436 189 436 160 q 409 230 436 215 q 341 256 382 244 q 252 282 300 268 q 163 320 204 296 q 95 385 122 344 q 68 490 68 425 m 488 479 q 476 521 488 504 q 442 551 464 538 q 388 575 419 564 q 315 599 356 586 q 268 555 288 582 q 249 493 249 528 q 293 421 249 444 q 415 375 338 397 q 467 419 446 392 q 488 479 488 447 z "},"¨":{"ha":665,"x_min":83,"x_max":582,"o":"m 83 904 q 110 975 83 949 q 182 1001 138 1001 q 252 975 226 1001 q 278 904 278 949 q 252 836 278 863 q 182 810 226 810 q 110 836 138 810 q 83 904 83 863 m 388 904 q 413 975 388 949 q 483 1001 439 1001 q 555 975 528 1001 q 582 904 582 949 q 555 836 582 863 q 483 810 528 810 q 413 836 439 810 q 388 904 388 863 z "},"©":{"ha":1157,"x_min":76,"x_max":1079,"o":"m 76 403 q 115 610 76 518 q 222 768 154 703 q 381 869 289 833 q 578 904 472 904 q 774 869 683 904 q 933 768 865 833 q 1040 610 1001 703 q 1079 403 1079 518 q 1040 195 1079 288 q 933 38 1001 103 q 774 -63 865 -28 q 578 -99 683 -99 q 369 -63 463 -99 q 211 38 276 -28 q 111 195 146 103 q 76 403 76 288 m 213 403 q 240 247 213 317 q 316 130 267 178 q 432 56 365 82 q 578 31 499 31 q 724 56 657 31 q 841 130 792 82 q 917 247 890 178 q 944 403 944 317 q 917 558 944 489 q 841 676 890 628 q 724 749 792 724 q 578 775 657 775 q 432 749 499 775 q 316 676 365 724 q 240 558 267 628 q 213 403 213 489 m 751 182 q 674 151 721 163 q 575 139 628 139 q 403 210 463 139 q 344 403 344 281 q 408 598 344 529 q 575 667 471 667 q 666 655 626 667 q 742 622 706 643 l 697 501 q 652 518 672 514 q 613 522 632 522 q 549 496 572 522 q 525 403 525 469 q 622 283 525 283 q 669 288 649 283 q 711 304 690 293 l 751 182 z "},"ª":{"ha":583,"x_min":58,"x_max":525,"o":"m 85 936 q 187 969 121 956 q 335 983 253 983 q 479 945 440 983 q 518 828 518 907 q 514 667 518 744 q 525 528 510 589 l 385 528 l 367 592 l 361 592 q 310 545 343 568 q 217 522 276 522 q 101 560 144 522 q 58 660 58 599 q 83 736 58 706 q 148 785 107 767 q 244 809 189 803 q 360 813 299 815 q 350 865 363 849 q 289 881 338 881 q 188 869 233 881 q 115 847 143 858 l 85 936 m 269 631 q 332 647 314 631 q 360 679 350 663 l 360 728 q 259 725 300 735 q 218 678 218 715 q 233 643 218 656 q 269 631 247 631 z "},"«":{"ha":678,"x_min":40,"x_max":631,"o":"m 310 363 l 524 663 l 622 585 l 510 415 l 446 361 l 510 313 l 631 144 l 532 67 l 310 363 m 40 360 l 263 679 l 372 593 l 251 418 l 185 361 l 251 311 l 381 139 l 271 53 l 40 360 z "},"¬":{"ha":732,"x_min":63,"x_max":676,"o":"m 63 572 l 676 572 l 676 258 l 510 258 l 510 417 l 63 417 l 63 572 z "},"­":{"ha":500,"x_min":75,"x_max":424,"o":"m 75 479 l 424 479 l 424 319 l 75 319 l 75 479 z "},"®":{"ha":958,"x_min":86,"x_max":871,"o":"m 86 626 q 117 792 86 719 q 203 915 149 865 q 328 992 257 965 q 479 1018 400 1018 q 633 992 561 1018 q 757 915 704 965 q 840 792 810 865 q 871 626 871 719 q 840 459 871 532 q 755 336 808 386 q 630 260 701 286 q 479 235 558 235 q 326 260 397 235 q 201 336 254 286 q 117 459 147 386 q 86 626 86 532 m 217 626 q 238 509 217 560 q 296 425 260 458 q 379 375 332 392 q 479 358 426 358 q 583 374 535 358 q 665 424 631 390 q 720 508 700 457 q 740 626 740 558 q 719 743 740 693 q 663 826 699 793 q 580 876 628 860 q 479 893 532 893 q 372 875 421 893 q 289 822 324 857 q 235 738 254 788 q 217 626 217 689 m 336 807 q 399 817 358 814 q 475 821 439 821 q 575 797 533 821 q 617 713 617 772 q 588 644 617 668 q 518 618 560 621 l 557 599 l 647 447 l 563 447 l 475 592 l 408 613 l 408 447 l 336 447 l 336 807 m 460 758 q 431 758 444 758 q 408 753 417 757 l 408 654 l 456 654 q 518 667 496 654 q 540 710 540 679 q 460 758 540 758 z "},"¯":{"ha":615,"x_min":83,"x_max":532,"o":"m 83 914 l 532 914 l 532 786 l 83 786 l 83 914 z "},"°":{"ha":607,"x_min":83,"x_max":543,"o":"m 83 761 q 101 855 83 813 q 151 928 119 897 q 223 975 182 958 q 311 992 264 992 q 401 976 358 992 q 475 931 443 961 q 525 858 507 901 q 543 761 543 815 q 525 665 543 707 q 475 593 507 622 q 401 549 443 564 q 311 533 358 533 q 223 549 264 533 q 151 593 182 564 q 101 665 119 622 q 83 761 83 707 m 222 761 q 249 691 222 717 q 313 665 275 665 q 378 691 350 665 q 406 761 406 717 q 378 833 406 806 q 313 860 350 860 q 249 833 275 860 q 222 761 222 806 z "},"±":{"ha":732,"x_min":60,"x_max":674,"o":"m 60 719 l 285 719 l 285 947 l 447 947 l 447 719 l 674 719 l 674 564 l 447 564 l 447 415 l 285 415 l 285 564 l 60 564 l 60 719 m 60 351 l 674 351 l 674 196 l 60 196 l 60 351 z "},"²":{"ha":572,"x_min":69,"x_max":506,"o":"m 483 944 q 442 804 483 863 q 342 693 400 746 l 276 658 l 276 653 l 358 668 l 506 668 l 506 528 l 71 528 l 71 626 q 151 685 107 651 q 234 756 196 718 q 298 835 272 794 q 324 911 324 875 q 246 979 324 979 q 175 967 208 979 q 117 940 142 956 l 69 1065 q 173 1108 118 1094 q 278 1121 228 1121 q 430 1076 376 1121 q 483 944 483 1031 z "},"³":{"ha":572,"x_min":78,"x_max":508,"o":"m 235 650 q 322 669 296 650 q 349 721 347 689 q 321 771 347 753 q 224 789 294 789 l 165 789 l 165 842 l 267 953 l 326 988 l 246 979 l 86 979 l 86 1111 l 479 1111 l 479 1025 l 358 897 l 311 872 l 311 865 l 353 869 q 466 826 425 867 q 508 710 507 785 q 487 624 507 660 q 433 564 467 588 q 353 529 399 540 q 258 518 307 518 q 158 527 204 518 q 78 551 111 536 l 110 676 q 235 650 167 650 z "},"´":{"ha":424,"x_min":83,"x_max":340,"o":"m 157 1000 l 340 1000 l 340 958 l 186 786 l 83 786 l 157 1000 z "},"µ":{"ha":790,"x_min":72,"x_max":740,"o":"m 253 694 l 253 315 q 281 181 253 226 q 381 136 310 136 q 483 168 444 136 q 539 257 522 200 l 539 694 l 719 694 l 719 226 q 723 112 719 169 q 740 0 726 54 l 607 0 l 563 103 l 557 103 q 488 19 533 54 q 368 -17 442 -17 q 285 3 314 -17 q 231 53 256 22 l 224 53 l 253 -93 l 253 -278 l 72 -278 l 72 694 l 253 694 z "},"¶":{"ha":735,"x_min":36,"x_max":651,"o":"m 503 972 l 651 972 l 651 -181 l 503 -181 l 503 972 m 247 408 q 163 431 201 408 q 95 494 124 454 q 51 584 67 533 q 36 692 36 635 q 54 798 36 747 q 106 888 72 849 q 186 949 139 926 q 292 972 233 972 l 394 972 l 394 -181 l 247 -181 l 247 408 z "},"·":{"ha":351,"x_min":63,"x_max":288,"o":"m 63 439 q 93 516 63 488 q 174 544 124 544 q 257 516 226 544 q 288 439 288 488 q 257 361 288 390 q 174 332 226 332 q 93 361 124 332 q 63 439 63 390 z "},"¸":{"ha":461,"x_min":83,"x_max":378,"o":"m 289 0 l 256 -60 q 345 -90 313 -65 q 378 -164 378 -114 q 362 -219 378 -196 q 318 -259 346 -243 q 253 -283 290 -275 q 172 -292 215 -292 q 83 -283 129 -292 l 96 -217 q 114 -218 106 -218 q 129 -218 122 -218 q 197 -206 182 -218 q 213 -176 213 -193 q 93 -132 213 -137 l 172 0 l 289 0 z "},"¹":{"ha":572,"x_min":57,"x_max":517,"o":"m 100 667 l 235 667 l 235 894 l 249 958 l 207 914 l 125 860 l 57 967 l 276 1121 l 394 1121 l 394 667 l 517 667 l 517 528 l 100 528 l 100 667 z "},"º":{"ha":582,"x_min":47,"x_max":535,"o":"m 47 753 q 65 860 47 815 q 115 933 83 904 q 192 976 147 963 q 290 989 238 989 q 388 976 343 989 q 465 936 432 964 q 515 863 497 908 q 535 753 533 818 q 515 642 533 688 q 465 569 497 597 q 388 529 432 542 q 290 517 343 517 q 192 529 238 517 q 115 569 147 542 q 65 642 83 597 q 47 753 47 688 m 208 753 q 290 633 208 633 q 352 659 333 633 q 372 753 371 685 q 352 846 371 819 q 290 872 333 872 q 228 846 247 872 q 208 753 208 819 z "},"»":{"ha":678,"x_min":47,"x_max":638,"o":"m 367 369 l 154 69 l 54 147 l 168 317 l 231 371 l 168 419 l 47 588 l 144 665 l 367 369 m 638 372 l 415 53 l 306 139 l 426 314 l 493 371 l 426 421 l 297 593 l 407 679 l 638 372 z "},"¼":{"ha":1222,"x_min":51,"x_max":1157,"o":"m 846 993 l 964 924 l 367 -19 l 247 54 l 846 993 m 1157 108 l 1051 108 l 1051 0 l 911 0 l 911 108 l 624 108 l 624 201 l 926 594 l 1051 594 l 1051 232 l 1157 232 l 1157 108 m 911 351 l 919 425 l 913 425 l 882 357 l 815 265 l 765 221 l 838 232 l 911 232 l 911 351 m 229 756 l 244 819 l 201 775 l 119 721 l 51 828 l 271 982 l 389 982 l 389 389 l 229 389 l 229 756 z "},"½":{"ha":1254,"x_min":51,"x_max":1190,"o":"m 846 993 l 964 924 l 367 -19 l 247 54 l 846 993 m 1168 417 q 1126 276 1168 335 q 1026 165 1085 218 l 961 131 l 961 125 l 1043 140 l 1190 140 l 1190 0 l 756 0 l 756 99 q 836 157 792 124 q 919 228 881 190 q 983 307 957 267 q 1008 383 1008 347 q 931 451 1008 451 q 860 440 893 451 q 801 413 826 428 l 754 538 q 858 580 803 567 q 963 593 913 593 q 1115 548 1061 593 q 1168 417 1168 503 m 229 756 l 244 819 l 201 775 l 119 721 l 51 828 l 271 982 l 389 982 l 389 389 l 229 389 l 229 756 z "},"¾":{"ha":1257,"x_min":67,"x_max":1192,"o":"m 881 993 l 999 924 l 401 -19 l 282 54 l 881 993 m 1192 108 l 1086 108 l 1086 0 l 946 0 l 946 108 l 658 108 l 658 201 l 961 594 l 1086 594 l 1086 232 l 1192 232 l 1192 108 m 946 351 l 954 425 l 947 425 l 917 357 l 850 265 l 800 221 l 872 232 l 946 232 l 946 351 m 224 511 q 310 531 285 511 q 338 582 336 550 q 310 632 336 614 q 213 650 283 650 l 154 650 l 154 703 l 256 814 l 315 849 l 235 840 l 75 840 l 75 972 l 468 972 l 468 886 l 347 758 l 300 733 l 300 726 l 342 731 q 455 687 414 728 q 497 571 496 646 q 476 485 496 521 q 422 425 456 449 q 342 390 388 401 q 247 379 296 379 q 147 388 193 379 q 67 413 100 397 l 99 538 q 224 511 156 511 z "},"¿":{"ha":631,"x_min":32,"x_max":597,"o":"m 440 407 q 434 284 447 335 q 396 197 421 233 q 340 133 371 160 q 283 82 310 107 q 237 30 256 57 q 218 -35 218 3 q 246 -113 218 -83 q 343 -143 274 -143 q 390 -138 365 -143 q 440 -124 415 -133 q 488 -103 465 -115 q 529 -78 511 -92 l 597 -211 q 476 -271 544 -247 q 311 -294 408 -294 q 106 -232 181 -294 q 32 -61 32 -169 q 51 56 32 10 q 98 134 69 101 q 159 192 126 167 q 220 245 192 217 q 267 311 249 274 q 286 407 286 349 l 440 407 m 247 604 q 278 681 247 653 q 358 710 308 710 q 442 681 411 710 q 472 604 472 653 q 442 526 472 556 q 358 497 411 497 q 278 526 308 497 q 247 604 247 556 z "},"À":{"ha":840,"x_min":0,"x_max":840,"o":"m 563 215 l 264 215 l 190 0 l 0 0 l 350 979 l 490 979 l 840 0 l 640 0 l 563 215 m 313 368 l 521 368 l 449 585 l 419 738 l 413 738 l 383 583 l 313 368 m 554 1044 l 408 1044 l 189 1167 l 189 1208 l 410 1208 l 554 1044 z "},"Á":{"ha":840,"x_min":0,"x_max":840,"o":"m 563 215 l 264 215 l 190 0 l 0 0 l 350 979 l 490 979 l 840 0 l 640 0 l 563 215 m 313 368 l 521 368 l 449 585 l 419 738 l 413 738 l 383 583 l 313 368 m 429 1208 l 650 1208 l 650 1167 l 428 1044 l 285 1044 l 429 1208 z "},"Â":{"ha":840,"x_min":0,"x_max":840,"o":"m 563 215 l 264 215 l 190 0 l 0 0 l 350 979 l 490 979 l 840 0 l 640 0 l 563 215 m 313 368 l 521 368 l 449 585 l 419 738 l 413 738 l 383 583 l 313 368 m 357 1208 l 490 1208 l 667 1079 l 667 1025 l 529 1025 l 450 1082 l 422 1129 l 393 1083 l 307 1025 l 172 1025 l 172 1081 l 357 1208 z "},"Ã":{"ha":840,"x_min":0,"x_max":840,"o":"m 563 215 l 264 215 l 190 0 l 0 0 l 350 979 l 490 979 l 840 0 l 640 0 l 563 215 m 313 368 l 521 368 l 449 585 l 419 738 l 413 738 l 383 583 l 313 368 m 157 1111 q 242 1178 201 1160 q 324 1196 283 1196 q 385 1188 354 1196 q 444 1172 415 1181 q 500 1155 472 1163 q 553 1147 528 1147 q 596 1154 575 1147 q 636 1181 617 1161 l 671 1088 q 595 1037 632 1051 q 524 1022 558 1022 q 463 1030 492 1022 q 405 1047 433 1038 q 349 1065 376 1057 q 294 1072 321 1072 q 242 1062 268 1072 q 190 1024 217 1051 l 157 1111 z "},"Ä":{"ha":840,"x_min":0,"x_max":840,"o":"m 563 215 l 264 215 l 190 0 l 0 0 l 350 979 l 490 979 l 840 0 l 640 0 l 563 215 m 313 368 l 521 368 l 449 585 l 419 738 l 413 738 l 383 583 l 313 368 m 172 1108 q 197 1167 172 1144 q 278 1189 222 1189 q 357 1167 332 1189 q 382 1108 382 1144 q 357 1051 382 1072 q 278 1029 332 1029 q 197 1051 222 1029 q 172 1108 172 1072 m 469 1108 q 494 1167 469 1144 q 574 1189 519 1189 q 654 1167 629 1189 q 679 1108 679 1144 q 654 1051 679 1072 q 574 1029 629 1029 q 494 1051 519 1029 q 469 1108 469 1072 z "},"Å":{"ha":840,"x_min":0,"x_max":840,"o":"m 243 1071 q 251 1119 243 1096 q 280 1159 260 1142 q 334 1186 300 1176 q 421 1196 368 1196 q 558 1163 518 1196 q 599 1071 599 1129 q 576 1001 599 1031 q 497 957 554 971 l 840 0 l 640 0 l 563 215 l 264 215 l 190 0 l 0 0 l 342 957 q 265 1000 288 969 q 243 1071 243 1031 m 313 368 l 521 368 l 449 585 l 419 738 l 413 738 l 383 583 l 313 368 m 360 1071 q 421 1028 360 1028 q 469 1039 456 1028 q 483 1071 483 1050 q 469 1106 483 1094 q 421 1117 454 1117 q 360 1071 360 1117 z "},"Æ":{"ha":1197,"x_min":-40,"x_max":1138,"o":"m 547 739 l 497 596 l 381 390 l 556 390 l 556 739 l 547 739 m 556 236 l 297 236 l 160 0 l -40 0 l 549 972 l 1131 972 l 1131 803 l 746 803 l 746 576 l 1096 576 l 1096 407 l 746 407 l 746 169 l 1138 169 l 1138 0 l 556 0 l 556 236 z "},"Ç":{"ha":776,"x_min":53,"x_max":742,"o":"m 742 40 q 651 0 706 14 q 535 -18 596 -14 l 513 -60 q 602 -90 569 -65 q 635 -164 635 -114 q 619 -219 635 -196 q 575 -259 603 -243 q 510 -283 547 -275 q 429 -292 472 -292 q 340 -283 386 -292 l 353 -217 q 371 -218 363 -218 q 386 -218 379 -218 q 454 -206 439 -218 q 469 -176 469 -193 q 350 -132 469 -137 l 419 -15 q 276 27 343 -6 q 160 121 210 60 q 81 272 110 182 q 53 486 53 363 q 92 726 53 629 q 195 881 132 822 q 336 966 258 940 q 492 992 414 992 q 633 981 575 992 q 728 954 690 969 l 690 793 q 615 815 658 808 q 508 822 571 822 q 323 740 393 822 q 253 486 253 658 q 269 349 253 411 q 320 244 286 288 q 405 176 354 200 q 522 151 456 151 q 628 164 585 151 q 703 196 671 176 l 742 40 z "},"È":{"ha":725,"x_min":83,"x_max":667,"o":"m 83 972 l 660 972 l 660 803 l 274 803 l 274 576 l 625 576 l 625 407 l 274 407 l 274 169 l 667 169 l 667 0 l 83 0 l 83 972 m 489 1044 l 343 1044 l 124 1167 l 124 1208 l 344 1208 l 489 1044 z "},"É":{"ha":725,"x_min":83,"x_max":667,"o":"m 83 972 l 660 972 l 660 803 l 274 803 l 274 576 l 625 576 l 625 407 l 274 407 l 274 169 l 667 169 l 667 0 l 83 0 l 83 972 m 407 1208 l 628 1208 l 628 1167 l 406 1044 l 263 1044 l 407 1208 z "},"Ê":{"ha":725,"x_min":83,"x_max":667,"o":"m 83 972 l 660 972 l 660 803 l 274 803 l 274 576 l 625 576 l 625 407 l 274 407 l 274 169 l 667 169 l 667 0 l 83 0 l 83 972 m 304 1208 l 438 1208 l 614 1079 l 614 1025 l 476 1025 l 397 1082 l 369 1129 l 340 1083 l 254 1025 l 119 1025 l 119 1081 l 304 1208 z "},"Ë":{"ha":725,"x_min":83,"x_max":667,"o":"m 83 972 l 660 972 l 660 803 l 274 803 l 274 576 l 625 576 l 625 407 l 274 407 l 274 169 l 667 169 l 667 0 l 83 0 l 83 972 m 117 1108 q 142 1167 117 1144 q 222 1189 167 1189 q 301 1167 276 1189 q 326 1108 326 1144 q 301 1051 326 1072 q 222 1029 276 1029 q 142 1051 167 1029 q 117 1108 117 1072 m 414 1108 q 439 1167 414 1144 q 518 1189 464 1189 q 599 1167 574 1189 q 624 1108 624 1144 q 599 1051 624 1072 q 518 1029 574 1029 q 439 1051 464 1029 q 414 1108 414 1072 z "},"Ì":{"ha":396,"x_min":-31,"x_max":335,"o":"m 103 972 l 293 972 l 293 0 l 103 0 l 103 972 m 335 1044 l 189 1044 l -31 1167 l -31 1208 l 190 1208 l 335 1044 z "},"Í":{"ha":396,"x_min":68,"x_max":433,"o":"m 103 972 l 293 972 l 293 0 l 103 0 l 103 972 m 213 1208 l 433 1208 l 433 1167 l 211 1044 l 68 1044 l 213 1208 z "},"Î":{"ha":396,"x_min":-50,"x_max":444,"o":"m 103 972 l 293 972 l 293 0 l 103 0 l 103 972 m 135 1208 l 268 1208 l 444 1079 l 444 1025 l 307 1025 l 228 1082 l 200 1129 l 171 1083 l 85 1025 l -50 1025 l -50 1081 l 135 1208 z "},"Ï":{"ha":396,"x_min":-53,"x_max":454,"o":"m 103 972 l 293 972 l 293 0 l 103 0 l 103 972 m -53 1108 q -28 1167 -53 1144 q 53 1189 -3 1189 q 132 1167 107 1189 q 157 1108 157 1144 q 132 1051 157 1072 q 53 1029 107 1029 q -28 1051 -3 1029 q -53 1108 -53 1072 m 244 1108 q 269 1167 244 1144 q 349 1189 294 1189 q 429 1167 404 1189 q 454 1108 454 1144 q 429 1051 454 1072 q 349 1029 404 1029 q 269 1051 294 1029 q 244 1108 244 1072 z "},"Ð":{"ha":929,"x_min":-8,"x_max":876,"o":"m -8 557 l 114 557 l 114 972 q 180 979 143 976 q 256 983 217 982 q 331 985 294 985 q 397 986 368 986 q 618 950 526 986 q 767 849 710 914 q 850 693 824 783 q 876 494 876 603 q 851 304 876 396 q 768 142 826 213 q 615 28 710 71 q 379 -15 519 -15 q 320 -14 357 -15 q 244 -10 283 -12 q 168 -6 204 -8 q 114 -1 132 -4 l 114 446 l -8 446 l -8 557 m 413 817 q 351 815 382 817 q 304 811 319 814 l 304 557 l 499 557 l 499 446 l 304 446 l 304 158 q 323 156 310 157 q 351 155 336 156 q 381 154 367 154 q 401 154 394 154 q 535 183 482 154 q 620 258 589 211 q 664 367 651 306 q 676 494 676 429 q 665 609 676 551 q 624 713 654 667 q 543 788 594 758 q 413 817 492 817 z "},"Ñ":{"ha":913,"x_min":83,"x_max":829,"o":"m 325 507 l 249 660 l 242 660 l 264 507 l 264 0 l 83 0 l 83 979 l 222 979 l 590 461 l 664 313 l 671 313 l 649 461 l 649 972 l 829 972 l 829 -7 l 690 -7 l 325 507 m 192 1111 q 277 1178 236 1160 q 358 1196 318 1196 q 419 1188 389 1196 q 478 1172 450 1181 q 535 1155 507 1163 q 588 1147 563 1147 q 631 1154 610 1147 q 671 1181 651 1161 l 706 1088 q 630 1037 667 1051 q 558 1022 593 1022 q 497 1030 526 1022 q 440 1047 468 1038 q 383 1065 411 1057 q 329 1072 356 1072 q 277 1062 303 1072 q 225 1024 251 1051 l 192 1111 z "},"Ò":{"ha":931,"x_min":53,"x_max":878,"o":"m 53 486 q 160 860 53 729 q 465 992 267 992 q 647 956 569 992 q 776 853 725 919 q 853 693 828 786 q 878 486 878 600 q 770 112 878 243 q 465 -19 663 -19 q 282 17 360 -19 q 153 119 204 53 q 78 279 103 186 q 53 486 53 372 m 253 486 q 265 351 253 413 q 303 244 278 289 q 369 175 329 200 q 465 150 410 150 q 622 229 567 150 q 678 486 678 308 q 666 618 678 557 q 629 725 654 679 q 564 797 604 771 q 465 822 524 822 q 308 741 364 822 q 253 486 253 660 m 572 1044 l 426 1044 l 207 1167 l 207 1208 l 428 1208 l 572 1044 z "},"Ó":{"ha":931,"x_min":53,"x_max":878,"o":"m 53 486 q 160 860 53 729 q 465 992 267 992 q 647 956 569 992 q 776 853 725 919 q 853 693 828 786 q 878 486 878 600 q 770 112 878 243 q 465 -19 663 -19 q 282 17 360 -19 q 153 119 204 53 q 78 279 103 186 q 53 486 53 372 m 253 486 q 265 351 253 413 q 303 244 278 289 q 369 175 329 200 q 465 150 410 150 q 622 229 567 150 q 678 486 678 308 q 666 618 678 557 q 629 725 654 679 q 564 797 604 771 q 465 822 524 822 q 308 741 364 822 q 253 486 253 660 m 511 1208 l 732 1208 l 732 1167 l 510 1044 l 367 1044 l 511 1208 z "},"Ô":{"ha":931,"x_min":53,"x_max":878,"o":"m 53 486 q 160 860 53 729 q 465 992 267 992 q 647 956 569 992 q 776 853 725 919 q 853 693 828 786 q 878 486 878 600 q 770 112 878 243 q 465 -19 663 -19 q 282 17 360 -19 q 153 119 204 53 q 78 279 103 186 q 53 486 53 372 m 253 486 q 265 351 253 413 q 303 244 278 289 q 369 175 329 200 q 465 150 410 150 q 622 229 567 150 q 678 486 678 308 q 666 618 678 557 q 629 725 654 679 q 564 797 604 771 q 465 822 524 822 q 308 741 364 822 q 253 486 253 660 m 399 1208 l 532 1208 l 708 1079 l 708 1025 l 571 1025 l 492 1082 l 464 1129 l 435 1083 l 349 1025 l 214 1025 l 214 1081 l 399 1208 z "},"Õ":{"ha":931,"x_min":53,"x_max":878,"o":"m 53 486 q 160 860 53 729 q 465 992 267 992 q 647 956 569 992 q 776 853 725 919 q 853 693 828 786 q 878 486 878 600 q 770 112 878 243 q 465 -19 663 -19 q 282 17 360 -19 q 153 119 204 53 q 78 279 103 186 q 53 486 53 372 m 253 486 q 265 351 253 413 q 303 244 278 289 q 369 175 329 200 q 465 150 410 150 q 622 229 567 150 q 678 486 678 308 q 666 618 678 557 q 629 725 654 679 q 564 797 604 771 q 465 822 524 822 q 308 741 364 822 q 253 486 253 660 m 200 1111 q 285 1178 244 1160 q 367 1196 326 1196 q 428 1188 397 1196 q 487 1172 458 1181 q 543 1155 515 1163 q 596 1147 571 1147 q 639 1154 618 1147 q 679 1181 660 1161 l 714 1088 q 638 1037 675 1051 q 567 1022 601 1022 q 506 1030 535 1022 q 448 1047 476 1038 q 392 1065 419 1057 q 338 1072 364 1072 q 285 1062 311 1072 q 233 1024 260 1051 l 200 1111 z "},"Ö":{"ha":931,"x_min":53,"x_max":878,"o":"m 53 486 q 160 860 53 729 q 465 992 267 992 q 647 956 569 992 q 776 853 725 919 q 853 693 828 786 q 878 486 878 600 q 770 112 878 243 q 465 -19 663 -19 q 282 17 360 -19 q 153 119 204 53 q 78 279 103 186 q 53 486 53 372 m 253 486 q 265 351 253 413 q 303 244 278 289 q 369 175 329 200 q 465 150 410 150 q 622 229 567 150 q 678 486 678 308 q 666 618 678 557 q 629 725 654 679 q 564 797 604 771 q 465 822 524 822 q 308 741 364 822 q 253 486 253 660 m 208 1108 q 233 1167 208 1144 q 314 1189 258 1189 q 393 1167 368 1189 q 418 1108 418 1144 q 393 1051 418 1072 q 314 1029 368 1029 q 233 1051 258 1029 q 208 1108 208 1072 m 506 1108 q 531 1167 506 1144 q 610 1189 556 1189 q 690 1167 665 1189 q 715 1108 715 1144 q 690 1051 715 1072 q 610 1029 665 1029 q 531 1051 556 1029 q 506 1108 506 1072 z "},"×":{"ha":732,"x_min":75,"x_max":658,"o":"m 186 760 l 368 579 l 549 760 l 658 647 l 478 471 l 658 292 l 549 178 l 368 360 l 185 176 l 75 289 l 257 471 l 78 647 l 186 760 z "},"Ø":{"ha":931,"x_min":53,"x_max":878,"o":"m 154 119 q 78 278 103 186 q 53 486 53 371 q 160 860 53 729 q 465 992 267 992 q 581 978 528 992 q 676 939 633 964 l 711 993 l 829 924 l 781 846 q 853 688 829 779 q 878 486 878 597 q 770 112 878 243 q 465 -19 663 -19 q 354 -8 404 -19 q 261 26 304 4 l 232 -19 l 113 54 l 154 119 m 253 486 q 258 392 253 436 q 275 310 264 347 l 579 785 q 465 822 531 822 q 308 741 364 822 q 253 486 253 660 m 678 486 q 674 574 678 532 q 658 653 669 617 l 360 181 q 465 150 406 150 q 622 229 567 150 q 678 486 678 308 z "},"Ù":{"ha":871,"x_min":79,"x_max":792,"o":"m 611 972 l 792 972 l 792 344 q 767 182 792 250 q 697 69 742 114 q 589 4 653 25 q 449 -17 525 -17 q 79 321 79 -17 l 79 972 l 269 972 l 269 358 q 280 262 269 301 q 313 198 290 222 q 368 163 335 174 q 446 153 401 153 q 572 201 533 153 q 611 358 611 250 l 611 972 m 549 1044 l 403 1044 l 183 1167 l 183 1208 l 404 1208 l 549 1044 z "},"Ú":{"ha":871,"x_min":79,"x_max":792,"o":"m 611 972 l 792 972 l 792 344 q 767 182 792 250 q 697 69 742 114 q 589 4 653 25 q 449 -17 525 -17 q 79 321 79 -17 l 79 972 l 269 972 l 269 358 q 280 262 269 301 q 313 198 290 222 q 368 163 335 174 q 446 153 401 153 q 572 201 533 153 q 611 358 611 250 l 611 972 m 507 1208 l 728 1208 l 728 1167 l 506 1044 l 363 1044 l 507 1208 z "},"Û":{"ha":871,"x_min":79,"x_max":792,"o":"m 611 972 l 792 972 l 792 344 q 767 182 792 250 q 697 69 742 114 q 589 4 653 25 q 449 -17 525 -17 q 79 321 79 -17 l 79 972 l 269 972 l 269 358 q 280 262 269 301 q 313 198 290 222 q 368 163 335 174 q 446 153 401 153 q 572 201 533 153 q 611 358 611 250 l 611 972 m 379 1208 l 513 1208 l 689 1079 l 689 1025 l 551 1025 l 472 1082 l 444 1129 l 415 1083 l 329 1025 l 194 1025 l 194 1081 l 379 1208 z "},"Ü":{"ha":871,"x_min":79,"x_max":792,"o":"m 611 972 l 792 972 l 792 344 q 767 182 792 250 q 697 69 742 114 q 589 4 653 25 q 449 -17 525 -17 q 79 321 79 -17 l 79 972 l 269 972 l 269 358 q 280 262 269 301 q 313 198 290 222 q 368 163 335 174 q 446 153 401 153 q 572 201 533 153 q 611 358 611 250 l 611 972 m 185 1108 q 210 1167 185 1144 q 290 1189 235 1189 q 369 1167 344 1189 q 394 1108 394 1144 q 369 1051 394 1072 q 290 1029 344 1029 q 210 1051 235 1029 q 185 1108 185 1072 m 482 1108 q 507 1167 482 1144 q 586 1189 532 1189 q 667 1167 642 1189 q 692 1108 692 1144 q 667 1051 692 1072 q 586 1029 642 1029 q 507 1051 532 1029 q 482 1108 482 1072 z "},"Ý":{"ha":822,"x_min":-3,"x_max":825,"o":"m 317 361 l -3 972 l 224 972 l 401 607 l 421 504 l 428 504 l 449 610 l 621 972 l 825 972 l 507 363 l 507 0 l 317 0 l 317 361 m 453 1208 l 674 1208 l 674 1167 l 451 1044 l 308 1044 l 453 1208 z "},"Þ":{"ha":794,"x_min":83,"x_max":760,"o":"m 83 972 l 274 972 l 274 872 q 313 874 293 874 q 351 875 332 875 q 497 863 424 875 q 628 816 569 851 q 723 717 686 781 q 760 553 760 654 q 728 398 760 461 q 643 294 696 335 q 523 236 590 254 q 383 218 456 218 q 361 218 376 218 q 329 219 346 218 q 297 221 313 219 q 274 224 281 222 l 274 0 l 83 0 l 83 972 m 367 711 q 314 709 339 711 q 274 704 289 707 l 274 389 q 290 386 279 388 q 314 384 301 385 q 338 383 326 383 q 356 383 350 383 q 430 390 393 383 q 496 416 467 397 q 542 468 525 435 q 560 556 560 501 q 543 631 560 601 q 499 679 526 661 q 438 704 472 697 q 367 711 403 711 z "},"ß":{"ha":875,"x_min":17,"x_max":836,"o":"m 113 542 l 17 542 l 17 694 l 113 694 q 135 830 113 775 q 197 919 157 885 q 291 968 236 953 q 411 983 346 983 q 538 967 482 983 q 634 922 594 951 q 695 852 674 893 q 717 761 717 811 q 692 674 717 707 q 638 617 668 640 q 584 572 608 593 q 560 521 560 551 q 580 481 560 496 q 631 452 600 465 q 698 424 663 439 q 765 386 733 410 q 816 326 796 363 q 836 232 836 289 q 821 138 836 183 q 773 58 806 93 q 691 1 740 22 q 575 -19 642 -19 q 455 -3 510 -19 q 361 36 400 13 l 410 171 q 474 139 442 153 q 560 125 506 125 q 628 153 601 125 q 656 222 656 182 q 635 269 656 251 q 584 302 615 288 q 517 331 553 317 q 451 366 482 344 q 399 419 419 388 q 379 501 379 451 q 403 594 379 561 q 458 651 428 628 q 512 693 488 674 q 536 746 536 713 q 526 780 536 764 q 500 807 517 796 q 463 825 483 818 q 421 832 442 832 q 323 799 354 832 q 292 678 292 767 l 292 0 l 113 0 l 113 542 z "},"à":{"ha":689,"x_min":32,"x_max":632,"o":"m 75 654 q 207 694 131 679 q 367 708 283 708 q 488 691 439 708 q 565 642 536 674 q 605 565 593 610 q 617 465 617 521 q 613 342 617 404 q 608 221 608 281 q 611 105 607 161 q 632 -1 615 49 l 485 -1 l 456 94 l 449 94 q 372 20 421 51 q 244 -11 322 -11 q 157 3 196 -11 q 90 45 118 18 q 47 109 63 72 q 32 192 32 146 q 60 299 32 256 q 142 370 89 343 q 270 408 196 397 q 436 414 344 418 q 425 526 446 492 q 332 560 404 560 q 217 549 278 560 q 118 519 157 538 l 75 654 m 304 138 q 390 162 358 138 q 438 214 422 186 l 438 304 q 355 306 394 308 q 285 293 315 303 q 236 265 254 283 q 218 219 218 247 q 241 159 218 181 q 304 138 264 138 m 432 786 l 332 786 l 160 958 l 160 1000 l 349 1000 l 432 786 z "},"á":{"ha":689,"x_min":32,"x_max":632,"o":"m 75 654 q 207 694 131 679 q 367 708 283 708 q 488 691 439 708 q 565 642 536 674 q 605 565 593 610 q 617 465 617 521 q 613 342 617 404 q 608 221 608 281 q 611 105 607 161 q 632 -1 615 49 l 485 -1 l 456 94 l 449 94 q 372 20 421 51 q 244 -11 322 -11 q 157 3 196 -11 q 90 45 118 18 q 47 109 63 72 q 32 192 32 146 q 60 299 32 256 q 142 370 89 343 q 270 408 196 397 q 436 414 344 418 q 425 526 446 492 q 332 560 404 560 q 217 549 278 560 q 118 519 157 538 l 75 654 m 304 138 q 390 162 358 138 q 438 214 422 186 l 438 304 q 355 306 394 308 q 285 293 315 303 q 236 265 254 283 q 218 219 218 247 q 241 159 218 181 q 304 138 264 138 m 329 1000 l 513 1000 l 513 958 l 358 786 l 256 786 l 329 1000 z "},"â":{"ha":689,"x_min":32,"x_max":632,"o":"m 75 654 q 207 694 131 679 q 367 708 283 708 q 488 691 439 708 q 565 642 536 674 q 605 565 593 610 q 617 465 617 521 q 613 342 617 404 q 608 221 608 281 q 611 105 607 161 q 632 -1 615 49 l 485 -1 l 456 94 l 449 94 q 372 20 421 51 q 244 -11 322 -11 q 157 3 196 -11 q 90 45 118 18 q 47 109 63 72 q 32 192 32 146 q 60 299 32 256 q 142 370 89 343 q 270 408 196 397 q 436 414 344 418 q 425 526 446 492 q 332 560 404 560 q 217 549 278 560 q 118 519 157 538 l 75 654 m 304 138 q 390 162 358 138 q 438 214 422 186 l 438 304 q 355 306 394 308 q 285 293 315 303 q 236 265 254 283 q 218 219 218 247 q 241 159 218 181 q 304 138 264 138 m 300 1017 l 419 1017 l 574 764 l 431 764 l 376 856 l 353 924 l 329 856 l 267 764 l 129 764 l 300 1017 z "},"ã":{"ha":689,"x_min":32,"x_max":632,"o":"m 75 654 q 207 694 131 679 q 367 708 283 708 q 488 691 439 708 q 565 642 536 674 q 605 565 593 610 q 617 465 617 521 q 613 342 617 404 q 608 221 608 281 q 611 105 607 161 q 632 -1 615 49 l 485 -1 l 456 94 l 449 94 q 372 20 421 51 q 244 -11 322 -11 q 157 3 196 -11 q 90 45 118 18 q 47 109 63 72 q 32 192 32 146 q 60 299 32 256 q 142 370 89 343 q 270 408 196 397 q 436 414 344 418 q 425 526 446 492 q 332 560 404 560 q 217 549 278 560 q 118 519 157 538 l 75 654 m 304 138 q 390 162 358 138 q 438 214 422 186 l 438 304 q 355 306 394 308 q 285 293 315 303 q 236 265 254 283 q 218 219 218 247 q 241 159 218 181 q 304 138 264 138 m 119 914 q 199 985 163 965 q 269 1004 236 1004 q 323 994 297 1004 q 374 974 349 985 q 422 953 399 963 q 471 943 446 943 q 510 951 490 943 q 553 981 531 960 l 581 883 q 506 822 540 839 q 440 806 472 806 q 386 815 413 806 q 335 835 360 824 q 285 855 310 846 q 235 864 260 864 q 192 855 214 864 q 146 824 169 846 l 119 914 z "},"ä":{"ha":689,"x_min":32,"x_max":632,"o":"m 75 654 q 207 694 131 679 q 367 708 283 708 q 488 691 439 708 q 565 642 536 674 q 605 565 593 610 q 617 465 617 521 q 613 342 617 404 q 608 221 608 281 q 611 105 607 161 q 632 -1 615 49 l 485 -1 l 456 94 l 449 94 q 372 20 421 51 q 244 -11 322 -11 q 157 3 196 -11 q 90 45 118 18 q 47 109 63 72 q 32 192 32 146 q 60 299 32 256 q 142 370 89 343 q 270 408 196 397 q 436 414 344 418 q 425 526 446 492 q 332 560 404 560 q 217 549 278 560 q 118 519 157 538 l 75 654 m 304 138 q 390 162 358 138 q 438 214 422 186 l 438 304 q 355 306 394 308 q 285 293 315 303 q 236 265 254 283 q 218 219 218 247 q 241 159 218 181 q 304 138 264 138 m 104 904 q 131 975 104 949 q 203 1001 158 1001 q 273 975 247 1001 q 299 904 299 949 q 273 836 299 863 q 203 810 247 810 q 131 836 158 810 q 104 904 104 863 m 408 904 q 434 975 408 949 q 504 1001 460 1001 q 576 975 549 1001 q 603 904 603 949 q 576 836 603 863 q 504 810 549 810 q 434 836 460 810 q 408 904 408 863 z "},"å":{"ha":689,"x_min":32,"x_max":632,"o":"m 75 654 q 207 694 131 679 q 367 708 283 708 q 488 691 439 708 q 565 642 536 674 q 605 565 593 610 q 617 465 617 521 q 613 342 617 404 q 608 221 608 281 q 611 105 607 161 q 632 -1 615 49 l 485 -1 l 456 94 l 449 94 q 372 20 421 51 q 244 -11 322 -11 q 157 3 196 -11 q 90 45 118 18 q 47 109 63 72 q 32 192 32 146 q 60 299 32 256 q 142 370 89 343 q 270 408 196 397 q 436 414 344 418 q 425 526 446 492 q 332 560 404 560 q 217 549 278 560 q 118 519 157 538 l 75 654 m 304 138 q 390 162 358 138 q 438 214 422 186 l 438 304 q 355 306 394 308 q 285 293 315 303 q 236 265 254 283 q 218 219 218 247 q 241 159 218 181 q 304 138 264 138 m 200 899 q 240 994 200 957 q 354 1032 279 1032 q 467 998 425 1032 q 508 899 508 964 q 467 806 508 844 q 354 768 426 768 q 240 803 281 768 q 200 899 200 839 m 300 899 q 317 865 300 876 q 354 853 333 853 q 393 864 378 853 q 408 899 408 875 q 392 934 408 922 q 354 946 376 946 q 317 935 333 946 q 300 899 300 924 z "},"æ":{"ha":1090,"x_min":32,"x_max":1042,"o":"m 304 138 q 390 162 358 138 q 438 214 422 186 l 438 304 q 355 306 394 308 q 285 293 315 303 q 236 265 254 283 q 218 219 218 247 q 241 159 218 181 q 304 138 264 138 m 486 106 q 394 24 449 58 q 244 -11 339 -11 q 157 3 196 -11 q 90 45 118 18 q 47 109 63 72 q 32 192 32 146 q 60 299 32 256 q 142 370 89 343 q 269 408 194 397 q 435 414 343 418 q 424 526 444 492 q 332 560 404 560 q 222 545 278 560 q 122 510 165 531 l 75 640 q 206 688 128 668 q 367 708 283 708 q 482 690 439 708 q 553 633 525 671 q 643 693 588 672 q 764 714 699 714 q 867 700 817 714 q 956 654 917 686 q 1018 568 994 622 q 1042 433 1042 514 q 1038 372 1042 404 q 1028 301 1035 339 l 610 301 q 656 169 615 214 q 789 125 697 125 q 891 142 846 125 q 960 178 936 160 l 1019 60 q 906 3 978 26 q 754 -19 835 -19 q 598 13 665 -19 q 493 106 531 46 l 486 106 m 761 569 q 656 527 690 569 q 615 414 622 485 l 875 414 q 851 529 879 489 q 761 569 824 569 z "},"ç":{"ha":601,"x_min":46,"x_max":571,"o":"m 571 43 q 498 6 539 19 q 411 -15 457 -8 l 386 -60 q 476 -90 443 -65 q 508 -164 508 -114 q 492 -219 508 -196 q 449 -259 476 -243 q 383 -283 421 -275 q 303 -292 346 -292 q 214 -283 260 -292 l 226 -217 q 244 -218 236 -218 q 260 -218 253 -218 q 328 -206 313 -218 q 343 -176 343 -193 q 224 -132 343 -137 l 293 -15 q 178 23 225 -7 q 101 99 131 53 q 59 209 72 146 q 46 347 46 272 q 125 619 46 524 q 356 714 204 714 q 478 701 432 714 q 563 669 525 689 l 519 522 q 456 546 488 538 q 385 554 425 554 q 271 505 310 554 q 232 347 232 456 q 242 265 232 303 q 271 200 251 228 q 322 156 290 172 q 394 140 353 140 q 472 152 440 140 q 529 181 504 164 l 571 43 z "},"è":{"ha":706,"x_min":46,"x_max":657,"o":"m 635 60 q 522 3 593 26 q 369 -19 450 -19 q 124 78 201 -19 q 46 347 46 176 q 133 622 46 531 q 379 714 221 714 q 482 700 432 714 q 571 654 532 686 q 633 568 610 622 q 657 433 657 514 q 653 371 657 404 q 643 301 650 338 l 226 301 q 272 169 231 214 q 404 125 313 125 q 506 142 461 125 q 575 178 551 160 l 635 60 m 376 569 q 272 527 306 569 q 231 414 238 485 l 489 414 q 466 529 494 489 q 376 569 438 569 m 457 786 l 357 786 l 185 958 l 185 1000 l 374 1000 l 457 786 z "},"é":{"ha":706,"x_min":46,"x_max":657,"o":"m 635 60 q 522 3 593 26 q 369 -19 450 -19 q 124 78 201 -19 q 46 347 46 176 q 133 622 46 531 q 379 714 221 714 q 482 700 432 714 q 571 654 532 686 q 633 568 610 622 q 657 433 657 514 q 653 371 657 404 q 643 301 650 338 l 226 301 q 272 169 231 214 q 404 125 313 125 q 506 142 461 125 q 575 178 551 160 l 635 60 m 376 569 q 272 527 306 569 q 231 414 238 485 l 489 414 q 466 529 494 489 q 376 569 438 569 m 381 1000 l 564 1000 l 564 958 l 410 786 l 307 786 l 381 1000 z "},"ê":{"ha":706,"x_min":46,"x_max":657,"o":"m 635 60 q 522 3 593 26 q 369 -19 450 -19 q 124 78 201 -19 q 46 347 46 176 q 133 622 46 531 q 379 714 221 714 q 482 700 432 714 q 571 654 532 686 q 633 568 610 622 q 657 433 657 514 q 653 371 657 404 q 643 301 650 338 l 226 301 q 272 169 231 214 q 404 125 313 125 q 506 142 461 125 q 575 178 551 160 l 635 60 m 376 569 q 272 527 306 569 q 231 414 238 485 l 489 414 q 466 529 494 489 q 376 569 438 569 m 307 1017 l 426 1017 l 581 764 l 438 764 l 383 856 l 360 924 l 336 856 l 274 764 l 136 764 l 307 1017 z "},"ë":{"ha":706,"x_min":46,"x_max":657,"o":"m 635 60 q 522 3 593 26 q 369 -19 450 -19 q 124 78 201 -19 q 46 347 46 176 q 133 622 46 531 q 379 714 221 714 q 482 700 432 714 q 571 654 532 686 q 633 568 610 622 q 657 433 657 514 q 653 371 657 404 q 643 301 650 338 l 226 301 q 272 169 231 214 q 404 125 313 125 q 506 142 461 125 q 575 178 551 160 l 635 60 m 376 569 q 272 527 306 569 q 231 414 238 485 l 489 414 q 466 529 494 489 q 376 569 438 569 m 114 904 q 141 975 114 949 q 213 1001 168 1001 q 283 975 257 1001 q 308 904 308 949 q 283 836 308 863 q 213 810 257 810 q 141 836 168 810 q 114 904 114 863 m 418 904 q 444 975 418 949 q 514 1001 469 1001 q 585 975 558 1001 q 613 904 613 949 q 585 836 613 863 q 514 810 558 810 q 444 836 469 810 q 418 904 418 863 z "},"ì":{"ha":374,"x_min":-3,"x_max":278,"o":"m 97 694 l 278 694 l 278 0 l 97 0 l 97 694 m 269 786 l 169 786 l -3 958 l -3 1000 l 186 1000 l 269 786 z "},"í":{"ha":374,"x_min":97,"x_max":356,"o":"m 97 694 l 278 694 l 278 0 l 97 0 l 97 694 m 172 1000 l 356 1000 l 356 958 l 201 786 l 99 786 l 172 1000 z "},"î":{"ha":374,"x_min":-42,"x_max":403,"o":"m 97 694 l 278 694 l 278 0 l 97 0 l 97 694 m 129 1017 l 249 1017 l 403 764 l 260 764 l 206 856 l 182 924 l 158 856 l 96 764 l -42 764 l 129 1017 z "},"ï":{"ha":374,"x_min":-62,"x_max":436,"o":"m 97 694 l 278 694 l 278 0 l 97 0 l 97 694 m -62 904 q -35 975 -62 949 q 36 1001 -8 1001 q 106 975 81 1001 q 132 904 132 949 q 106 836 132 863 q 36 810 81 810 q -35 836 -8 810 q -62 904 -62 863 m 242 904 q 267 975 242 949 q 338 1001 293 1001 q 409 975 382 1001 q 436 904 436 949 q 409 836 436 863 q 338 810 382 810 q 267 836 293 810 q 242 904 242 863 z "},"ð":{"ha":782,"x_min":51,"x_max":731,"o":"m 226 338 q 272 186 226 238 q 394 135 318 135 q 513 197 467 135 q 558 389 558 258 q 556 436 558 407 q 549 482 554 465 q 482 527 526 514 q 396 540 438 540 q 269 483 313 540 q 226 338 226 425 m 274 811 l 335 853 q 239 882 288 874 l 311 993 q 390 965 346 983 q 456 935 422 953 l 529 985 l 588 908 l 542 876 q 574 849 558 864 q 653 747 618 807 q 709 606 688 686 q 731 419 731 525 q 705 224 731 307 q 633 88 679 142 q 524 7 588 33 q 383 -19 460 -19 q 239 7 301 -19 q 135 81 176 33 q 72 195 93 129 q 51 340 51 261 q 75 479 51 415 q 141 591 99 543 q 243 666 183 639 q 374 693 303 693 q 472 678 426 693 q 544 636 517 664 q 497 728 528 686 q 428 799 467 768 l 333 735 l 274 811 z "},"ñ":{"ha":757,"x_min":79,"x_max":685,"o":"m 504 0 l 504 394 q 480 517 504 479 q 397 554 456 554 q 310 524 346 554 q 260 450 275 494 l 260 0 l 79 0 l 79 694 l 222 694 l 243 603 l 249 603 q 333 681 281 647 q 469 714 386 714 q 561 700 521 714 q 629 654 601 686 q 671 567 657 622 q 685 432 685 513 l 685 0 l 504 0 m 149 914 q 228 985 192 965 q 299 1004 265 1004 q 352 994 326 1004 q 403 974 378 985 q 451 953 428 963 q 500 943 475 943 q 540 951 519 943 q 582 981 560 960 l 610 883 q 535 822 569 839 q 469 806 501 806 q 415 815 442 806 q 364 835 389 824 q 314 855 339 846 q 264 864 289 864 q 221 855 243 864 q 175 824 199 846 l 149 914 z "},"ò":{"ha":746,"x_min":46,"x_max":700,"o":"m 46 347 q 132 619 46 524 q 374 714 218 714 q 518 688 457 714 q 619 613 579 661 q 680 497 660 565 q 700 347 700 429 q 615 76 700 171 q 374 -19 529 -19 q 229 7 290 -19 q 127 81 168 33 q 66 197 86 129 q 46 347 46 265 m 232 347 q 240 263 232 301 q 265 194 249 224 q 309 149 282 165 q 374 133 336 133 q 479 185 444 133 q 514 347 514 236 q 482 502 514 443 q 374 561 450 561 q 269 511 307 561 q 232 347 232 461 m 460 786 l 360 786 l 188 958 l 188 1000 l 376 1000 l 460 786 z "},"ó":{"ha":746,"x_min":46,"x_max":700,"o":"m 46 347 q 132 619 46 524 q 374 714 218 714 q 518 688 457 714 q 619 613 579 661 q 680 497 660 565 q 700 347 700 429 q 615 76 700 171 q 374 -19 529 -19 q 229 7 290 -19 q 127 81 168 33 q 66 197 86 129 q 46 347 46 265 m 232 347 q 240 263 232 301 q 265 194 249 224 q 309 149 282 165 q 374 133 336 133 q 479 185 444 133 q 514 347 514 236 q 482 502 514 443 q 374 561 450 561 q 269 511 307 561 q 232 347 232 461 m 382 1000 l 565 1000 l 565 958 l 411 786 l 308 786 l 382 1000 z "},"ô":{"ha":746,"x_min":46,"x_max":700,"o":"m 46 347 q 132 619 46 524 q 374 714 218 714 q 518 688 457 714 q 619 613 579 661 q 680 497 660 565 q 700 347 700 429 q 615 76 700 171 q 374 -19 529 -19 q 229 7 290 -19 q 127 81 168 33 q 66 197 86 129 q 46 347 46 265 m 232 347 q 240 263 232 301 q 265 194 249 224 q 309 149 282 165 q 374 133 336 133 q 479 185 444 133 q 514 347 514 236 q 482 502 514 443 q 374 561 450 561 q 269 511 307 561 q 232 347 232 461 m 321 1017 l 440 1017 l 594 764 l 451 764 l 397 856 l 374 924 l 350 856 l 288 764 l 150 764 l 321 1017 z "},"õ":{"ha":746,"x_min":46,"x_max":700,"o":"m 46 347 q 132 619 46 524 q 374 714 218 714 q 518 688 457 714 q 619 613 579 661 q 680 497 660 565 q 700 347 700 429 q 615 76 700 171 q 374 -19 529 -19 q 229 7 290 -19 q 127 81 168 33 q 66 197 86 129 q 46 347 46 265 m 232 347 q 240 263 232 301 q 265 194 249 224 q 309 149 282 165 q 374 133 336 133 q 479 185 444 133 q 514 347 514 236 q 482 502 514 443 q 374 561 450 561 q 269 511 307 561 q 232 347 232 461 m 144 914 q 224 985 188 965 q 294 1004 261 1004 q 348 994 322 1004 q 399 974 374 985 q 447 953 424 963 q 496 943 471 943 q 535 951 515 943 q 578 981 556 960 l 606 883 q 531 822 565 839 q 465 806 497 806 q 411 815 438 806 q 360 835 385 824 q 310 855 335 846 q 260 864 285 864 q 217 855 239 864 q 171 824 194 846 l 144 914 z "},"ö":{"ha":746,"x_min":46,"x_max":700,"o":"m 46 347 q 132 619 46 524 q 374 714 218 714 q 518 688 457 714 q 619 613 579 661 q 680 497 660 565 q 700 347 700 429 q 615 76 700 171 q 374 -19 529 -19 q 229 7 290 -19 q 127 81 168 33 q 66 197 86 129 q 46 347 46 265 m 232 347 q 240 263 232 301 q 265 194 249 224 q 309 149 282 165 q 374 133 336 133 q 479 185 444 133 q 514 347 514 236 q 482 502 514 443 q 374 561 450 561 q 269 511 307 561 q 232 347 232 461 m 122 904 q 149 975 122 949 q 221 1001 176 1001 q 291 975 265 1001 q 317 904 317 949 q 291 836 317 863 q 221 810 265 810 q 149 836 176 810 q 122 904 122 863 m 426 904 q 452 975 426 949 q 522 1001 478 1001 q 594 975 567 1001 q 621 904 621 949 q 594 836 621 863 q 522 810 567 810 q 452 836 478 810 q 426 904 426 863 z "},"÷":{"ha":732,"x_min":60,"x_max":674,"o":"m 60 547 l 674 547 l 674 392 l 60 392 l 60 547 m 256 739 q 286 816 256 788 q 367 844 317 844 q 450 816 419 844 q 481 739 481 788 q 450 661 481 690 q 367 632 419 632 q 286 661 317 632 q 256 739 256 690 m 256 201 q 286 278 256 250 q 367 307 317 307 q 450 278 419 307 q 481 201 481 250 q 450 124 481 153 q 367 94 419 94 q 286 124 317 94 q 256 201 256 153 z "},"ø":{"ha":744,"x_min":46,"x_max":699,"o":"m 46 347 q 131 619 46 524 q 372 714 217 714 q 454 706 417 714 q 524 683 492 699 l 557 731 l 668 649 l 631 596 q 682 485 665 549 q 699 347 699 422 q 613 76 699 171 q 372 -19 528 -19 q 285 -10 325 -19 q 213 14 246 -1 l 178 -33 l 63 50 l 106 110 q 60 216 75 156 q 46 347 46 276 m 513 347 q 501 446 513 399 l 294 158 q 372 133 325 133 q 478 185 443 133 q 513 347 513 236 m 232 347 q 240 257 232 299 l 444 540 q 372 561 415 561 q 269 511 306 561 q 232 347 232 461 z "},"ù":{"ha":747,"x_min":72,"x_max":690,"o":"m 253 694 l 253 300 q 273 178 253 215 q 351 140 293 140 q 437 171 403 140 q 488 246 471 201 l 488 694 l 668 694 l 668 211 q 674 99 668 154 q 690 0 679 44 l 554 0 l 522 103 l 517 103 q 428 15 485 50 q 293 -19 371 -19 q 199 -6 240 -19 q 129 40 157 8 q 87 126 101 72 q 72 263 72 181 l 72 694 l 253 694 m 442 786 l 342 786 l 169 958 l 169 1000 l 358 1000 l 442 786 z "},"ú":{"ha":747,"x_min":72,"x_max":690,"o":"m 253 694 l 253 300 q 273 178 253 215 q 351 140 293 140 q 437 171 403 140 q 488 246 471 201 l 488 694 l 668 694 l 668 211 q 674 99 668 154 q 690 0 679 44 l 554 0 l 522 103 l 517 103 q 428 15 485 50 q 293 -19 371 -19 q 199 -6 240 -19 q 129 40 157 8 q 87 126 101 72 q 72 263 72 181 l 72 694 l 253 694 m 363 1000 l 546 1000 l 546 958 l 392 786 l 289 786 l 363 1000 z "},"û":{"ha":747,"x_min":72,"x_max":690,"o":"m 253 694 l 253 300 q 273 178 253 215 q 351 140 293 140 q 437 171 403 140 q 488 246 471 201 l 488 694 l 668 694 l 668 211 q 674 99 668 154 q 690 0 679 44 l 554 0 l 522 103 l 517 103 q 428 15 485 50 q 293 -19 371 -19 q 199 -6 240 -19 q 129 40 157 8 q 87 126 101 72 q 72 263 72 181 l 72 694 l 253 694 m 322 1017 l 442 1017 l 596 764 l 453 764 l 399 856 l 375 924 l 351 856 l 289 764 l 151 764 l 322 1017 z "},"ü":{"ha":747,"x_min":72,"x_max":690,"o":"m 253 694 l 253 300 q 273 178 253 215 q 351 140 293 140 q 437 171 403 140 q 488 246 471 201 l 488 694 l 668 694 l 668 211 q 674 99 668 154 q 690 0 679 44 l 554 0 l 522 103 l 517 103 q 428 15 485 50 q 293 -19 371 -19 q 199 -6 240 -19 q 129 40 157 8 q 87 126 101 72 q 72 263 72 181 l 72 694 l 253 694 m 122 904 q 149 975 122 949 q 221 1001 176 1001 q 291 975 265 1001 q 317 904 317 949 q 291 836 317 863 q 221 810 265 810 q 149 836 176 810 q 122 904 122 863 m 426 904 q 452 975 426 949 q 522 1001 478 1001 q 594 975 567 1001 q 621 904 621 949 q 594 836 621 863 q 522 810 567 810 q 452 836 478 810 q 426 904 426 863 z "},"ý":{"ha":664,"x_min":-12,"x_max":675,"o":"m 332 304 l 357 196 l 365 196 l 383 306 l 489 694 l 675 694 l 464 68 q 413 -74 438 -10 q 360 -186 389 -139 q 295 -259 331 -233 q 211 -285 260 -285 q 96 -261 139 -285 l 129 -117 q 171 -125 150 -125 q 233 -98 203 -125 q 278 0 263 -71 l -12 694 l 204 694 l 332 304 m 353 1000 l 536 1000 l 536 958 l 382 786 l 279 786 l 353 1000 z "},"þ":{"ha":750,"x_min":79,"x_max":704,"o":"m 79 972 l 260 972 l 260 635 l 265 635 q 335 692 294 671 q 443 714 376 714 q 639 631 574 714 q 704 365 704 549 q 683 205 704 276 q 622 83 663 133 q 522 7 581 33 q 386 -19 463 -19 q 315 -13 343 -19 q 260 7 288 -7 l 260 -278 l 79 -278 l 79 972 m 389 561 q 308 535 339 561 q 260 456 276 508 l 260 167 q 302 142 279 151 q 363 133 325 133 q 479 188 440 133 q 518 369 518 243 q 488 511 518 461 q 389 561 457 561 z "},"ÿ":{"ha":664,"x_min":-12,"x_max":675,"o":"m 332 304 l 357 196 l 365 196 l 383 306 l 489 694 l 675 694 l 464 68 q 413 -74 438 -10 q 360 -186 389 -139 q 295 -259 331 -233 q 211 -285 260 -285 q 96 -261 139 -285 l 129 -117 q 171 -125 150 -125 q 233 -98 203 -125 q 278 0 263 -71 l -12 694 l 204 694 l 332 304 m 92 904 q 119 975 92 949 q 190 1001 146 1001 q 260 975 235 1001 q 286 904 286 949 q 260 836 286 863 q 190 810 235 810 q 119 836 146 810 q 92 904 92 863 m 396 904 q 422 975 396 949 q 492 1001 447 1001 q 563 975 536 1001 q 590 904 590 949 q 563 836 590 863 q 492 810 536 810 q 422 836 447 810 q 396 904 396 863 z "},"Ā":{"ha":840,"x_min":0,"x_max":840,"o":"m 563 215 l 264 215 l 190 0 l 0 0 l 350 979 l 490 979 l 840 0 l 640 0 l 563 215 m 313 368 l 521 368 l 449 585 l 419 738 l 413 738 l 383 583 l 313 368 m 179 1189 l 656 1189 l 656 1065 l 179 1065 l 179 1189 z "},"ā":{"ha":689,"x_min":32,"x_max":632,"o":"m 75 654 q 207 694 131 679 q 367 708 283 708 q 488 691 439 708 q 565 642 536 674 q 605 565 593 610 q 617 465 617 521 q 613 342 617 404 q 608 221 608 281 q 611 105 607 161 q 632 -1 615 49 l 485 -1 l 456 94 l 449 94 q 372 20 421 51 q 244 -11 322 -11 q 157 3 196 -11 q 90 45 118 18 q 47 109 63 72 q 32 192 32 146 q 60 299 32 256 q 142 370 89 343 q 270 408 196 397 q 436 414 344 418 q 425 526 446 492 q 332 560 404 560 q 217 549 278 560 q 118 519 157 538 l 75 654 m 304 138 q 390 162 358 138 q 438 214 422 186 l 438 304 q 355 306 394 308 q 285 293 315 303 q 236 265 254 283 q 218 219 218 247 q 241 159 218 181 q 304 138 264 138 m 126 914 l 575 914 l 575 786 l 126 786 l 126 914 z "},"Ă":{"ha":840,"x_min":0,"x_max":840,"o":"m 563 215 l 264 215 l 190 0 l 0 0 l 350 979 l 490 979 l 840 0 l 640 0 l 563 215 m 313 368 l 521 368 l 449 585 l 419 738 l 413 738 l 383 583 l 313 368 m 228 1215 q 308 1160 256 1179 q 426 1140 361 1140 q 541 1161 493 1140 q 617 1215 589 1182 l 685 1171 q 640 1101 668 1131 q 578 1053 613 1072 q 503 1024 543 1033 q 425 1014 464 1014 q 348 1022 388 1014 q 272 1048 308 1031 q 206 1094 236 1065 q 156 1164 175 1122 l 228 1215 z "},"ă":{"ha":689,"x_min":32,"x_max":632,"o":"m 75 654 q 207 694 131 679 q 367 708 283 708 q 488 691 439 708 q 565 642 536 674 q 605 565 593 610 q 617 465 617 521 q 613 342 617 404 q 608 221 608 281 q 611 105 607 161 q 632 -1 615 49 l 485 -1 l 456 94 l 449 94 q 372 20 421 51 q 244 -11 322 -11 q 157 3 196 -11 q 90 45 118 18 q 47 109 63 72 q 32 192 32 146 q 60 299 32 256 q 142 370 89 343 q 270 408 196 397 q 436 414 344 418 q 425 526 446 492 q 332 560 404 560 q 217 549 278 560 q 118 519 157 538 l 75 654 m 304 138 q 390 162 358 138 q 438 214 422 186 l 438 304 q 355 306 394 308 q 285 293 315 303 q 236 265 254 283 q 218 219 218 247 q 241 159 218 181 q 304 138 264 138 m 199 1000 q 265 938 222 958 q 354 918 307 918 q 441 939 401 918 q 501 1000 481 960 l 585 963 q 562 897 581 929 q 513 839 543 864 q 441 799 482 814 q 353 783 400 783 q 196 830 261 783 q 111 956 131 876 l 199 1000 z "},"Ą":{"ha":840,"x_min":0,"x_max":874,"o":"m 563 215 l 264 215 l 190 0 l 0 0 l 350 979 l 490 979 l 840 0 l 811 0 q 731 -101 731 -31 q 761 -155 731 -137 q 847 -144 792 -172 l 874 -231 q 808 -263 853 -247 q 714 -279 763 -279 q 595 -244 636 -279 q 554 -153 554 -210 q 586 -62 554 -100 q 675 0 618 -24 l 640 0 l 563 215 m 313 368 l 521 368 l 449 585 l 419 738 l 413 738 l 383 583 l 313 368 z "},"ą":{"ha":689,"x_min":32,"x_max":665,"o":"m 75 647 q 199 692 128 676 q 367 708 271 708 q 488 691 439 708 q 565 642 536 674 q 605 565 593 610 q 617 465 617 521 q 613 342 617 404 q 608 221 608 281 q 611 105 607 161 q 632 -1 615 49 l 600 -1 q 522 -101 522 -35 q 553 -155 522 -137 q 639 -144 583 -172 l 665 -231 q 599 -263 644 -247 q 506 -279 554 -279 q 387 -244 428 -279 q 346 -153 346 -210 q 383 -58 346 -97 q 482 6 419 -18 l 456 94 l 449 94 q 372 20 421 51 q 244 -11 322 -11 q 157 3 196 -11 q 90 45 118 18 q 47 109 63 72 q 32 192 32 146 q 60 299 32 256 q 142 370 89 343 q 269 408 194 397 q 435 414 343 418 q 424 526 444 492 q 332 560 404 560 q 222 548 278 560 q 122 517 165 536 l 75 647 m 304 138 q 390 162 358 138 q 438 214 422 186 l 438 304 q 355 306 394 308 q 285 293 315 303 q 236 265 254 283 q 218 219 218 247 q 241 159 218 181 q 304 138 264 138 z "},"Ć":{"ha":776,"x_min":53,"x_max":743,"o":"m 742 40 q 628 -6 697 8 q 488 -19 560 -19 q 322 8 400 -19 q 183 95 243 35 q 88 252 124 156 q 53 486 53 349 q 92 726 53 629 q 195 881 132 822 q 336 966 258 940 q 492 992 414 992 q 633 981 575 992 q 728 954 690 969 l 690 793 q 615 815 658 808 q 508 822 571 822 q 323 740 393 822 q 253 486 253 658 q 269 349 253 411 q 320 244 286 288 q 405 176 354 200 q 522 151 456 151 q 628 164 585 151 q 703 196 671 176 l 742 40 m 522 1208 l 743 1208 l 743 1167 l 521 1044 l 378 1044 l 522 1208 z "},"ć":{"ha":601,"x_min":46,"x_max":571,"o":"m 571 43 q 470 -3 529 13 q 349 -19 411 -19 q 208 7 265 -19 q 114 81 150 33 q 62 197 78 129 q 46 347 46 265 q 125 619 46 524 q 356 714 204 714 q 478 701 432 714 q 563 669 525 689 l 519 522 q 456 546 488 538 q 385 554 425 554 q 271 505 310 554 q 232 347 232 456 q 242 265 232 303 q 271 200 251 228 q 322 156 290 172 q 394 140 353 140 q 472 152 440 140 q 529 181 504 164 l 571 43 m 347 1000 l 531 1000 l 531 958 l 376 786 l 274 786 l 347 1000 z "},"Ĉ":{"ha":776,"x_min":53,"x_max":742,"o":"m 742 40 q 628 -6 697 8 q 488 -19 560 -19 q 322 8 400 -19 q 183 95 243 35 q 88 252 124 156 q 53 486 53 349 q 92 726 53 629 q 195 881 132 822 q 336 966 258 940 q 492 992 414 992 q 633 981 575 992 q 728 954 690 969 l 690 793 q 615 815 658 808 q 508 822 571 822 q 323 740 393 822 q 253 486 253 658 q 269 349 253 411 q 320 244 286 288 q 405 176 354 200 q 522 151 456 151 q 628 164 585 151 q 703 196 671 176 l 742 40 m 400 1208 l 533 1208 l 710 1079 l 710 1025 l 572 1025 l 493 1082 l 465 1129 l 436 1083 l 350 1025 l 215 1025 l 215 1081 l 400 1208 z "},"ĉ":{"ha":601,"x_min":46,"x_max":571,"o":"m 571 43 q 470 -3 529 13 q 349 -19 411 -19 q 208 7 265 -19 q 114 81 150 33 q 62 197 78 129 q 46 347 46 265 q 125 619 46 524 q 356 714 204 714 q 478 701 432 714 q 563 669 525 689 l 519 522 q 456 546 488 538 q 385 554 425 554 q 271 505 310 554 q 232 347 232 456 q 242 265 232 303 q 271 200 251 228 q 322 156 290 172 q 394 140 353 140 q 472 152 440 140 q 529 181 504 164 l 571 43 m 283 1017 l 403 1017 l 557 764 l 414 764 l 360 856 l 336 924 l 313 856 l 250 764 l 113 764 l 283 1017 z "},"Č":{"ha":776,"x_min":53,"x_max":742,"o":"m 742 40 q 628 -6 697 8 q 488 -19 560 -19 q 322 8 400 -19 q 183 95 243 35 q 88 252 124 156 q 53 486 53 349 q 92 726 53 629 q 195 881 132 822 q 336 966 258 940 q 492 992 414 992 q 633 981 575 992 q 728 954 690 969 l 690 793 q 615 815 658 808 q 508 822 571 822 q 323 740 393 822 q 253 486 253 658 q 269 349 253 411 q 320 244 286 288 q 405 176 354 200 q 522 151 456 151 q 628 164 585 151 q 703 196 671 176 l 742 40 m 536 1024 l 406 1024 l 229 1154 l 229 1208 l 375 1208 l 449 1146 l 475 1104 l 504 1144 l 582 1208 l 721 1208 l 721 1153 l 536 1024 z "},"č":{"ha":601,"x_min":46,"x_max":571,"o":"m 571 43 q 470 -3 529 13 q 349 -19 411 -19 q 208 7 265 -19 q 114 81 150 33 q 62 197 78 129 q 46 347 46 265 q 125 619 46 524 q 356 714 204 714 q 478 701 432 714 q 563 669 525 689 l 519 522 q 456 546 488 538 q 385 554 425 554 q 271 505 310 554 q 232 347 232 456 q 242 265 232 303 q 271 200 251 228 q 322 156 290 172 q 394 140 353 140 q 472 152 440 140 q 529 181 504 164 l 571 43 m 397 764 l 271 764 l 111 1017 l 264 1017 l 318 925 l 340 857 l 365 925 l 428 1017 l 568 1017 l 397 764 z "},"Ď":{"ha":899,"x_min":83,"x_max":846,"o":"m 83 972 q 149 979 113 976 q 225 983 186 982 q 301 985 264 985 q 367 986 338 986 q 588 950 496 986 q 736 849 679 914 q 819 693 793 783 q 846 494 846 603 q 821 304 846 396 q 738 142 796 213 q 584 28 679 71 q 349 -15 489 -15 q 290 -14 326 -15 q 213 -10 253 -12 q 138 -6 174 -8 q 83 -1 101 -4 l 83 972 m 382 817 q 320 815 351 817 q 274 811 289 814 l 274 160 q 292 158 279 158 q 321 156 306 157 q 350 155 336 156 q 371 154 364 154 q 505 183 451 154 q 590 258 558 211 q 633 367 621 306 q 646 494 646 429 q 635 609 646 551 q 594 713 624 667 q 513 788 564 758 q 382 817 461 817 m 456 1024 l 325 1024 l 149 1154 l 149 1208 l 294 1208 l 368 1146 l 394 1104 l 424 1144 l 501 1208 l 640 1208 l 640 1153 l 456 1024 z "},"ď":{"ha":888,"x_min":46,"x_max":910,"o":"m 669 244 q 671 128 669 186 q 683 -1 672 69 l 554 -1 l 529 89 l 524 89 q 444 10 496 40 q 321 -19 392 -19 q 118 67 190 -19 q 46 336 46 153 q 126 613 46 514 q 363 711 207 711 q 433 706 406 711 q 489 690 461 701 l 489 972 l 669 972 l 669 244 m 363 133 q 446 159 415 133 q 489 233 476 185 l 489 528 q 446 551 469 543 q 385 558 422 558 q 270 507 308 558 q 232 331 232 456 q 263 188 232 242 q 363 133 294 133 m 910 972 q 893 888 907 932 q 860 805 879 844 q 821 734 842 765 q 783 689 800 703 l 703 732 q 739 845 726 782 q 751 972 751 908 l 910 972 z "},"Đ":{"ha":929,"x_min":-8,"x_max":876,"o":"m -8 557 l 114 557 l 114 972 q 180 979 143 976 q 256 983 217 982 q 331 985 294 985 q 397 986 368 986 q 618 950 526 986 q 767 849 710 914 q 850 693 824 783 q 876 494 876 603 q 851 304 876 396 q 768 142 826 213 q 615 28 710 71 q 379 -15 519 -15 q 320 -14 357 -15 q 244 -10 283 -12 q 168 -6 204 -8 q 114 -1 132 -4 l 114 446 l -8 446 l -8 557 m 413 817 q 351 815 382 817 q 304 811 319 814 l 304 557 l 499 557 l 499 446 l 304 446 l 304 158 q 323 156 310 157 q 351 155 336 156 q 381 154 367 154 q 401 154 394 154 q 535 183 482 154 q 620 258 589 211 q 664 367 651 306 q 676 494 676 429 q 665 609 676 551 q 624 713 654 667 q 543 788 594 758 q 413 817 492 817 z "},"đ":{"ha":764,"x_min":46,"x_max":775,"o":"m 669 890 l 775 890 l 775 779 l 669 779 l 669 244 q 671 128 669 186 q 683 -1 672 69 l 554 -1 l 529 89 l 524 89 q 444 10 496 40 q 321 -19 392 -19 q 118 67 190 -19 q 46 336 46 153 q 126 613 46 514 q 363 711 207 711 q 433 706 406 711 q 489 690 461 701 l 489 779 l 283 779 l 283 890 l 489 890 l 489 972 l 669 972 l 669 890 m 363 133 q 446 159 415 133 q 489 233 476 185 l 489 528 q 446 551 469 543 q 385 558 422 558 q 270 507 308 558 q 232 331 232 456 q 263 188 232 242 q 363 133 294 133 z "},"Ē":{"ha":725,"x_min":83,"x_max":667,"o":"m 83 972 l 660 972 l 660 803 l 274 803 l 274 576 l 625 576 l 625 407 l 274 407 l 274 169 l 667 169 l 667 0 l 83 0 l 83 972 m 132 1189 l 608 1189 l 608 1065 l 132 1065 l 132 1189 z "},"ē":{"ha":706,"x_min":46,"x_max":657,"o":"m 635 60 q 522 3 593 26 q 369 -19 450 -19 q 124 78 201 -19 q 46 347 46 176 q 133 622 46 531 q 379 714 221 714 q 482 700 432 714 q 571 654 532 686 q 633 568 610 622 q 657 433 657 514 q 653 371 657 404 q 643 301 650 338 l 226 301 q 272 169 231 214 q 404 125 313 125 q 506 142 461 125 q 575 178 551 160 l 635 60 m 376 569 q 272 527 306 569 q 231 414 238 485 l 489 414 q 466 529 494 489 q 376 569 438 569 m 135 914 l 583 914 l 583 786 l 135 786 l 135 914 z "},"Ė":{"ha":725,"x_min":83,"x_max":667,"o":"m 83 972 l 660 972 l 660 803 l 274 803 l 274 576 l 625 576 l 625 407 l 274 407 l 274 169 l 667 169 l 667 0 l 83 0 l 83 972 m 265 1110 q 295 1169 265 1144 q 385 1194 325 1194 q 476 1169 444 1194 q 508 1110 508 1144 q 476 1049 508 1074 q 385 1024 444 1024 q 295 1049 325 1024 q 265 1110 265 1074 z "},"ė":{"ha":706,"x_min":46,"x_max":657,"o":"m 635 60 q 522 3 593 26 q 369 -19 450 -19 q 124 78 201 -19 q 46 347 46 176 q 133 622 46 531 q 379 714 221 714 q 482 700 432 714 q 571 654 532 686 q 633 568 610 622 q 657 433 657 514 q 653 371 657 404 q 643 301 650 338 l 226 301 q 272 169 231 214 q 404 125 313 125 q 506 142 461 125 q 575 178 551 160 l 635 60 m 376 569 q 272 527 306 569 q 231 414 238 485 l 489 414 q 466 529 494 489 q 376 569 438 569 m 258 890 q 288 959 258 931 q 371 988 318 988 q 456 959 424 988 q 489 890 489 931 q 456 823 489 850 q 371 796 424 796 q 288 823 318 796 q 258 890 258 850 z "},"Ę":{"ha":725,"x_min":83,"x_max":692,"o":"m 83 972 l 660 972 l 660 803 l 274 803 l 274 576 l 625 576 l 625 407 l 274 407 l 274 169 l 667 169 l 667 0 l 629 0 q 549 -101 549 -31 q 564 -144 549 -126 q 607 -161 579 -161 q 665 -144 632 -161 l 692 -231 q 626 -263 671 -247 q 532 -279 581 -279 q 413 -244 454 -279 q 372 -153 372 -210 q 404 -62 372 -100 q 493 0 436 -24 l 83 0 l 83 972 z "},"ę":{"ha":706,"x_min":46,"x_max":657,"o":"m 635 60 q 543 11 600 32 q 476 -94 476 -32 q 485 -127 476 -112 q 508 -150 493 -142 q 544 -158 522 -158 q 593 -143 565 -157 l 619 -229 q 554 -262 599 -246 q 461 -279 510 -279 q 341 -241 382 -279 q 300 -146 300 -203 q 317 -75 300 -107 q 364 -19 333 -43 q 124 78 200 -18 q 46 347 46 176 q 133 622 46 531 q 379 714 221 714 q 482 700 432 714 q 571 654 532 686 q 633 568 610 622 q 657 433 657 514 q 653 371 657 404 q 643 301 650 338 l 226 301 q 272 169 231 214 q 404 125 313 125 q 506 142 461 125 q 575 178 551 160 l 635 60 m 376 569 q 272 527 306 569 q 231 414 238 485 l 489 414 q 466 529 494 489 q 376 569 438 569 z "},"Ě":{"ha":725,"x_min":83,"x_max":667,"o":"m 83 972 l 660 972 l 660 803 l 274 803 l 274 576 l 625 576 l 625 407 l 274 407 l 274 169 l 667 169 l 667 0 l 83 0 l 83 972 m 428 1024 l 297 1024 l 121 1154 l 121 1208 l 267 1208 l 340 1146 l 367 1104 l 396 1144 l 474 1208 l 613 1208 l 613 1153 l 428 1024 z "},"ě":{"ha":706,"x_min":46,"x_max":657,"o":"m 635 60 q 522 3 593 26 q 369 -19 450 -19 q 124 78 201 -19 q 46 347 46 176 q 133 622 46 531 q 379 714 221 714 q 482 700 432 714 q 571 654 532 686 q 633 568 610 622 q 657 433 657 514 q 653 371 657 404 q 643 301 650 338 l 226 301 q 272 169 231 214 q 404 125 313 125 q 506 142 461 125 q 575 178 551 160 l 635 60 m 376 569 q 272 527 306 569 q 231 414 238 485 l 489 414 q 466 529 494 489 q 376 569 438 569 m 422 764 l 296 764 l 136 1017 l 289 1017 l 343 925 l 365 857 l 390 925 l 453 1017 l 593 1017 l 422 764 z "},"Ĝ":{"ha":846,"x_min":53,"x_max":789,"o":"m 426 507 l 789 507 l 789 74 q 649 3 731 25 q 489 -19 568 -19 q 316 10 396 -19 q 178 101 236 39 q 86 258 119 163 q 53 486 53 354 q 92 720 53 624 q 197 877 132 817 q 342 965 261 938 q 506 992 422 992 q 652 979 589 992 q 753 953 715 967 l 714 793 q 636 815 679 807 q 526 822 593 822 q 417 804 467 822 q 330 745 367 786 q 273 640 293 704 q 253 485 253 576 q 272 334 253 397 q 326 230 292 271 q 408 169 361 189 q 507 150 454 150 q 578 159 543 150 q 636 186 613 168 l 636 369 l 426 392 l 426 507 m 421 1208 l 554 1208 l 731 1079 l 731 1025 l 593 1025 l 514 1082 l 486 1129 l 457 1083 l 371 1025 l 236 1025 l 236 1081 l 421 1208 z "},"ĝ":{"ha":744,"x_min":46,"x_max":667,"o":"m 667 0 q 585 -223 667 -151 q 356 -294 503 -294 q 198 -281 256 -294 q 111 -251 140 -267 l 149 -108 q 223 -133 181 -121 q 328 -146 265 -146 q 456 -105 422 -146 q 490 10 490 -64 l 490 54 l 485 54 q 313 -11 436 -11 q 112 72 178 -11 q 46 333 46 156 q 135 615 46 519 q 393 711 224 711 q 552 699 482 711 q 667 669 622 686 l 667 0 m 361 133 q 442 157 414 133 q 486 228 471 181 l 486 540 q 379 558 443 558 q 271 506 310 558 q 232 340 232 454 q 265 186 232 239 q 361 133 299 133 m 331 1017 l 450 1017 l 604 764 l 461 764 l 407 856 l 383 924 l 360 856 l 297 764 l 160 764 l 331 1017 z "},"Ğ":{"ha":846,"x_min":53,"x_max":789,"o":"m 426 507 l 789 507 l 789 74 q 649 3 731 25 q 489 -19 568 -19 q 316 10 396 -19 q 178 101 236 39 q 86 258 119 163 q 53 486 53 354 q 92 720 53 624 q 197 877 132 817 q 342 965 261 938 q 506 992 422 992 q 652 979 589 992 q 753 953 715 967 l 714 793 q 636 815 679 807 q 526 822 593 822 q 417 804 467 822 q 330 745 367 786 q 273 640 293 704 q 253 485 253 576 q 272 334 253 397 q 326 230 292 271 q 408 169 361 189 q 507 150 454 150 q 578 159 543 150 q 636 186 613 168 l 636 369 l 426 392 l 426 507 m 272 1215 q 353 1160 300 1179 q 471 1140 406 1140 q 585 1161 538 1140 q 661 1215 633 1182 l 729 1171 q 685 1101 713 1131 q 622 1053 657 1072 q 548 1024 588 1033 q 469 1014 508 1014 q 392 1022 432 1014 q 317 1048 353 1031 q 250 1094 281 1065 q 200 1164 219 1122 l 272 1215 z "},"ğ":{"ha":744,"x_min":46,"x_max":667,"o":"m 667 0 q 585 -223 667 -151 q 356 -294 503 -294 q 198 -281 256 -294 q 111 -251 140 -267 l 149 -108 q 223 -133 181 -121 q 328 -146 265 -146 q 456 -105 422 -146 q 490 10 490 -64 l 490 54 l 485 54 q 313 -11 436 -11 q 112 72 178 -11 q 46 333 46 156 q 135 615 46 519 q 393 711 224 711 q 552 699 482 711 q 667 669 622 686 l 667 0 m 361 133 q 442 157 414 133 q 486 228 471 181 l 486 540 q 379 558 443 558 q 271 506 310 558 q 232 340 232 454 q 265 186 232 239 q 361 133 299 133 m 219 1000 q 285 938 243 958 q 375 918 328 918 q 462 939 422 918 q 522 1000 501 960 l 606 963 q 583 897 601 929 q 533 839 564 864 q 462 799 503 814 q 374 783 421 783 q 217 830 282 783 q 132 956 151 876 l 219 1000 z "},"Ģ":{"ha":846,"x_min":53,"x_max":789,"o":"m 426 507 l 789 507 l 789 74 q 649 3 731 25 q 489 -19 568 -19 q 316 10 396 -19 q 178 101 236 39 q 86 258 119 163 q 53 486 53 354 q 92 720 53 624 q 197 877 132 817 q 342 965 261 938 q 506 992 422 992 q 652 979 589 992 q 753 953 715 967 l 714 793 q 636 815 679 807 q 526 822 593 822 q 417 804 467 822 q 330 745 367 786 q 273 640 293 704 q 253 485 253 576 q 272 334 253 397 q 326 230 292 271 q 408 169 361 189 q 507 150 454 150 q 578 159 543 150 q 636 186 613 168 l 636 369 l 426 392 l 426 507 m 386 -146 q 413 -82 386 -106 q 481 -58 440 -58 q 560 -90 529 -58 q 590 -181 590 -122 q 575 -261 590 -226 q 538 -320 560 -296 q 490 -359 515 -344 q 447 -379 465 -374 l 400 -304 q 439 -277 419 -294 q 461 -231 458 -260 q 410 -210 433 -232 q 386 -146 386 -189 z "},"ģ":{"ha":744,"x_min":46,"x_max":667,"o":"m 667 0 q 585 -223 667 -151 q 356 -294 503 -294 q 198 -281 256 -294 q 111 -251 140 -267 l 149 -108 q 223 -133 181 -121 q 328 -146 265 -146 q 456 -105 422 -146 q 490 10 490 -64 l 490 54 l 485 54 q 313 -11 436 -11 q 112 72 178 -11 q 46 333 46 156 q 135 615 46 519 q 393 711 224 711 q 552 699 482 711 q 667 669 622 686 l 667 0 m 361 133 q 442 157 414 133 q 486 228 471 181 l 486 540 q 379 558 443 558 q 271 506 310 558 q 232 340 232 454 q 265 186 232 239 q 361 133 299 133 m 499 853 q 472 789 499 812 q 404 765 444 765 q 325 797 356 765 q 294 887 294 829 q 310 968 294 933 q 347 1027 325 1003 q 394 1066 369 1051 q 438 1086 419 1081 l 485 1011 q 446 984 465 1001 q 424 937 426 967 q 475 917 451 939 q 499 853 499 896 z "},"Ĥ":{"ha":904,"x_min":83,"x_max":819,"o":"m 629 407 l 274 407 l 274 0 l 83 0 l 83 972 l 274 972 l 274 576 l 629 576 l 629 972 l 819 972 l 819 0 l 629 0 l 629 407 m 386 1208 l 519 1208 l 696 1079 l 696 1025 l 558 1025 l 479 1082 l 451 1129 l 422 1083 l 336 1025 l 201 1025 l 201 1081 l 386 1208 z "},"ĥ":{"ha":757,"x_min":-62,"x_max":685,"o":"m 504 0 l 504 394 q 481 517 504 479 q 394 554 457 554 q 310 523 349 554 q 260 443 272 492 l 260 0 l 79 0 l 79 972 l 260 972 l 260 617 l 265 617 q 347 688 299 661 q 471 714 396 714 q 564 700 524 714 q 631 654 604 686 q 672 567 658 622 q 685 432 685 513 l 685 0 l 504 0 m 122 1208 l 256 1208 l 432 1079 l 432 1025 l 294 1025 l 215 1082 l 188 1129 l 158 1083 l 72 1025 l -62 1025 l -62 1081 l 122 1208 z "},"Ħ":{"ha":949,"x_min":3,"x_max":946,"o":"m 3 831 l 107 831 l 107 972 l 297 972 l 297 831 l 653 831 l 653 972 l 843 972 l 843 831 l 946 831 l 946 717 l 843 717 l 843 0 l 653 0 l 653 407 l 297 407 l 297 0 l 107 0 l 107 717 l 3 717 l 3 831 m 653 576 l 653 717 l 297 717 l 297 576 l 653 576 z "},"ħ":{"ha":772,"x_min":-8,"x_max":700,"o":"m -8 890 l 94 890 l 94 972 l 275 972 l 275 890 l 499 890 l 499 779 l 275 779 l 275 617 l 281 617 q 363 688 314 661 q 486 714 411 714 q 579 700 539 714 q 647 654 619 686 q 687 567 674 622 q 700 432 700 513 l 700 0 l 519 0 l 519 394 q 496 517 519 479 q 410 554 472 554 q 326 523 364 554 q 275 443 288 492 l 275 0 l 94 0 l 94 779 l -8 779 l -8 890 z "},"Ī":{"ha":396,"x_min":-35,"x_max":442,"o":"m 103 972 l 293 972 l 293 0 l 103 0 l 103 972 m -35 1189 l 442 1189 l 442 1065 l -35 1065 l -35 1189 z "},"ī":{"ha":374,"x_min":-37,"x_max":411,"o":"m 97 694 l 278 694 l 278 0 l 97 0 l 97 694 m -37 914 l 411 914 l 411 786 l -37 786 l -37 914 z "},"Į":{"ha":396,"x_min":31,"x_max":350,"o":"m 103 972 l 293 972 l 293 0 l 274 0 q 224 -42 242 -17 q 207 -101 206 -67 q 222 -144 207 -126 q 265 -161 238 -161 q 322 -144 289 -161 l 350 -231 q 284 -264 329 -247 q 190 -281 239 -281 q 71 -245 111 -281 q 31 -153 31 -210 q 63 -62 31 -100 q 151 0 94 -24 l 103 0 l 103 972 z "},"į":{"ha":375,"x_min":18,"x_max":338,"o":"m 97 694 l 278 694 l 278 0 l 260 0 q 211 -44 228 -19 q 194 -101 194 -69 q 211 -144 196 -126 q 254 -161 226 -161 q 311 -144 278 -161 l 338 -231 q 272 -264 317 -247 q 179 -281 228 -281 q 59 -245 100 -281 q 18 -153 18 -210 q 50 -62 18 -100 q 139 0 82 -24 l 97 0 l 97 694 m 71 890 q 101 959 71 931 q 183 988 131 988 q 269 959 236 988 q 301 890 301 931 q 269 823 301 850 q 183 796 236 796 q 101 823 131 796 q 71 890 71 850 z "},"İ":{"ha":396,"x_min":79,"x_max":322,"o":"m 103 972 l 293 972 l 293 0 l 103 0 l 103 972 m 79 1110 q 109 1169 79 1144 q 199 1194 139 1194 q 290 1169 258 1194 q 322 1110 322 1144 q 290 1049 322 1074 q 199 1024 258 1024 q 109 1049 139 1024 q 79 1110 79 1074 z "},"ı":{"ha":374,"x_min":97,"x_max":278,"o":"m 97 694 l 278 694 l 278 0 l 97 0 l 97 694 z "},"Ĵ":{"ha":464,"x_min":-32,"x_max":524,"o":"m 182 972 l 372 972 l 372 261 q 360 156 372 206 q 319 67 347 106 q 246 6 290 29 q 138 -17 201 -17 q 50 -8 97 -17 q -32 15 3 0 l 10 171 q 92 153 46 153 q 166 196 150 153 q 182 310 182 239 l 182 972 m 214 1208 l 347 1208 l 524 1079 l 524 1025 l 386 1025 l 307 1082 l 279 1129 l 250 1083 l 164 1025 l 29 1025 l 29 1081 l 214 1208 z "},"ĵ":{"ha":372,"x_min":-36,"x_max":408,"o":"m 96 694 l 276 694 l 276 -29 q 226 -222 276 -156 q 67 -289 176 -289 q -22 -279 25 -289 l -22 -128 q -12 -128 -17 -128 q -4 -129 -8 -129 q 77 -89 58 -129 q 96 22 96 -49 l 96 694 m 135 1017 l 254 1017 l 408 764 l 265 764 l 211 856 l 188 924 l 164 856 l 101 764 l -36 764 l 135 1017 z "},"Ķ":{"ha":861,"x_min":83,"x_max":846,"o":"m 324 415 l 274 415 l 274 0 l 83 0 l 83 972 l 274 972 l 274 542 l 318 561 l 586 972 l 803 972 l 519 564 l 444 511 l 522 457 l 846 0 l 611 0 l 324 415 m 307 -146 q 334 -82 307 -106 q 401 -58 361 -58 q 481 -90 450 -58 q 511 -181 511 -122 q 496 -261 511 -226 q 458 -320 481 -296 q 411 -359 436 -344 q 368 -379 386 -374 l 321 -304 q 360 -277 340 -294 q 382 -231 379 -260 q 331 -210 354 -232 q 307 -146 307 -189 z "},"ķ":{"ha":682,"x_min":79,"x_max":685,"o":"m 308 288 l 260 288 l 260 0 l 79 0 l 79 972 l 260 972 l 260 399 l 301 418 l 460 694 l 658 694 l 492 431 l 421 378 l 497 324 l 685 0 l 478 0 l 308 288 m 249 -146 q 276 -82 249 -106 q 343 -58 303 -58 q 422 -90 392 -58 q 453 -181 453 -122 q 438 -261 453 -226 q 400 -320 422 -296 q 353 -359 378 -344 q 310 -379 328 -374 l 263 -304 q 301 -277 282 -294 q 324 -231 321 -260 q 272 -210 296 -232 q 249 -146 249 -189 z "},"Ĺ":{"ha":714,"x_min":83,"x_max":699,"o":"m 699 0 l 83 0 l 83 972 l 274 972 l 274 169 l 699 169 l 699 0 m 289 1208 l 510 1208 l 510 1167 l 288 1044 l 144 1044 l 289 1208 z "},"ĺ":{"ha":408,"x_min":85,"x_max":463,"o":"m 265 233 q 278 163 265 185 q 318 140 290 140 q 351 143 335 140 q 390 156 367 146 l 410 14 q 342 -8 388 3 q 247 -19 296 -19 q 126 17 168 -19 q 85 139 85 54 l 85 972 l 265 972 l 265 233 m 242 1208 l 463 1208 l 463 1167 l 240 1044 l 97 1044 l 242 1208 z "},"Ļ":{"ha":714,"x_min":83,"x_max":699,"o":"m 699 0 l 83 0 l 83 972 l 274 972 l 274 169 l 699 169 l 699 0 m 251 -146 q 278 -82 251 -106 q 346 -58 306 -58 q 425 -90 394 -58 q 456 -181 456 -122 q 440 -261 456 -226 q 403 -320 425 -296 q 356 -359 381 -344 q 313 -379 331 -374 l 265 -304 q 304 -277 285 -294 q 326 -231 324 -260 q 275 -210 299 -232 q 251 -146 251 -189 z "},"ļ":{"ha":408,"x_min":85,"x_max":410,"o":"m 265 233 q 278 163 265 185 q 318 140 290 140 q 351 143 335 140 q 390 156 367 146 l 410 14 q 342 -8 388 3 q 247 -19 296 -19 q 126 17 168 -19 q 85 139 85 54 l 85 972 l 265 972 l 265 233 m 132 -146 q 159 -82 132 -106 q 226 -58 186 -58 q 306 -90 275 -58 q 336 -181 336 -122 q 321 -261 336 -226 q 283 -320 306 -296 q 236 -359 261 -344 q 193 -379 211 -374 l 146 -304 q 185 -277 165 -294 q 207 -231 204 -260 q 156 -210 179 -232 q 132 -146 132 -189 z "},"Ľ":{"ha":714,"x_min":83,"x_max":699,"o":"m 699 0 l 83 0 l 83 972 l 274 972 l 274 169 l 699 169 l 699 0 m 643 972 q 626 888 640 932 q 594 805 613 844 q 554 734 575 765 q 517 689 533 703 l 436 732 q 472 845 460 782 q 485 972 485 908 l 643 972 z "},"ľ":{"ha":408,"x_min":85,"x_max":508,"o":"m 265 233 q 278 163 265 185 q 318 140 290 140 q 351 143 335 140 q 390 156 367 146 l 410 14 q 342 -8 388 3 q 247 -19 296 -19 q 126 17 168 -19 q 85 139 85 54 l 85 972 l 265 972 l 265 233 m 508 972 q 492 888 506 932 q 459 805 478 844 q 419 734 440 765 q 382 689 399 703 l 301 732 q 338 845 325 782 q 350 972 350 908 l 508 972 z "},"Ł":{"ha":729,"x_min":4,"x_max":714,"o":"m 4 442 l 99 504 l 99 972 l 289 972 l 289 632 l 428 725 l 428 551 l 289 460 l 289 169 l 714 169 l 714 0 l 99 0 l 99 335 l 4 274 l 4 442 z "},"ł":{"ha":443,"x_min":8,"x_max":443,"o":"m 8 426 l 118 500 l 118 972 l 299 972 l 299 621 l 432 710 l 432 536 l 299 449 l 299 233 q 311 163 299 185 q 351 140 324 140 q 384 143 368 140 q 424 156 400 146 l 443 14 q 375 -8 421 3 q 281 -19 329 -19 q 160 17 201 -19 q 118 139 118 54 l 118 331 l 8 258 l 8 426 z "},"Ń":{"ha":913,"x_min":83,"x_max":829,"o":"m 325 507 l 249 660 l 242 660 l 264 507 l 264 0 l 83 0 l 83 979 l 222 979 l 590 461 l 664 313 l 671 313 l 649 461 l 649 972 l 829 972 l 829 -7 l 690 -7 l 325 507 m 508 1208 l 729 1208 l 729 1167 l 507 1044 l 364 1044 l 508 1208 z "},"ń":{"ha":757,"x_min":79,"x_max":685,"o":"m 504 0 l 504 394 q 480 517 504 479 q 397 554 456 554 q 310 524 346 554 q 260 450 275 494 l 260 0 l 79 0 l 79 694 l 222 694 l 243 603 l 249 603 q 333 681 281 647 q 469 714 386 714 q 561 700 521 714 q 629 654 601 686 q 671 567 657 622 q 685 432 685 513 l 685 0 l 504 0 m 385 1000 l 568 1000 l 568 958 l 414 786 l 311 786 l 385 1000 z "},"Ņ":{"ha":913,"x_min":83,"x_max":829,"o":"m 325 507 l 249 660 l 242 660 l 264 507 l 264 0 l 83 0 l 83 979 l 222 979 l 590 461 l 664 313 l 671 313 l 649 461 l 649 972 l 829 972 l 829 -7 l 690 -7 l 325 507 m 353 -146 q 380 -82 353 -106 q 447 -58 407 -58 q 526 -90 496 -58 q 557 -181 557 -122 q 542 -261 557 -226 q 504 -320 526 -296 q 457 -359 482 -344 q 414 -379 432 -374 l 367 -304 q 406 -277 386 -294 q 428 -231 425 -260 q 376 -210 400 -232 q 353 -146 353 -189 z "},"ņ":{"ha":757,"x_min":79,"x_max":685,"o":"m 504 0 l 504 394 q 480 517 504 479 q 397 554 456 554 q 310 524 346 554 q 260 450 275 494 l 260 0 l 79 0 l 79 694 l 222 694 l 243 603 l 249 603 q 333 681 281 647 q 469 714 386 714 q 561 700 521 714 q 629 654 601 686 q 671 567 657 622 q 685 432 685 513 l 685 0 l 504 0 m 275 -146 q 302 -82 275 -106 q 369 -58 329 -58 q 449 -90 418 -58 q 479 -181 479 -122 q 464 -261 479 -226 q 426 -320 449 -296 q 379 -359 404 -344 q 336 -379 354 -374 l 289 -304 q 328 -277 308 -294 q 350 -231 347 -260 q 299 -210 322 -232 q 275 -146 275 -189 z "},"Ň":{"ha":913,"x_min":83,"x_max":829,"o":"m 325 507 l 249 660 l 242 660 l 264 507 l 264 0 l 83 0 l 83 979 l 222 979 l 590 461 l 664 313 l 671 313 l 649 461 l 649 972 l 829 972 l 829 -7 l 690 -7 l 325 507 m 524 1024 l 393 1024 l 217 1154 l 217 1208 l 363 1208 l 436 1146 l 463 1104 l 492 1144 l 569 1208 l 708 1208 l 708 1153 l 524 1024 z "},"ň":{"ha":757,"x_min":79,"x_max":685,"o":"m 504 0 l 504 394 q 480 517 504 479 q 397 554 456 554 q 310 524 346 554 q 260 450 275 494 l 260 0 l 79 0 l 79 694 l 222 694 l 243 603 l 249 603 q 333 681 281 647 q 469 714 386 714 q 561 700 521 714 q 629 654 601 686 q 671 567 657 622 q 685 432 685 513 l 685 0 l 504 0 m 442 764 l 315 764 l 156 1017 l 308 1017 l 363 925 l 385 857 l 410 925 l 472 1017 l 613 1017 l 442 764 z "},"Ō":{"ha":931,"x_min":53,"x_max":878,"o":"m 53 486 q 160 860 53 729 q 465 992 267 992 q 647 956 569 992 q 776 853 725 919 q 853 693 828 786 q 878 486 878 600 q 770 112 878 243 q 465 -19 663 -19 q 282 17 360 -19 q 153 119 204 53 q 78 279 103 186 q 53 486 53 372 m 253 486 q 265 351 253 413 q 303 244 278 289 q 369 175 329 200 q 465 150 410 150 q 622 229 567 150 q 678 486 678 308 q 666 618 678 557 q 629 725 654 679 q 564 797 604 771 q 465 822 524 822 q 308 741 364 822 q 253 486 253 660 m 232 1189 l 708 1189 l 708 1065 l 232 1065 l 232 1189 z "},"ō":{"ha":746,"x_min":46,"x_max":700,"o":"m 46 347 q 132 619 46 524 q 374 714 218 714 q 518 688 457 714 q 619 613 579 661 q 680 497 660 565 q 700 347 700 429 q 615 76 700 171 q 374 -19 529 -19 q 229 7 290 -19 q 127 81 168 33 q 66 197 86 129 q 46 347 46 265 m 232 347 q 240 263 232 301 q 265 194 249 224 q 309 149 282 165 q 374 133 336 133 q 479 185 444 133 q 514 347 514 236 q 482 502 514 443 q 374 561 450 561 q 269 511 307 561 q 232 347 232 461 m 149 914 l 597 914 l 597 786 l 149 786 l 149 914 z "},"Ő":{"ha":931,"x_min":53,"x_max":878,"o":"m 53 486 q 160 860 53 729 q 465 992 267 992 q 647 956 569 992 q 776 853 725 919 q 853 693 828 786 q 878 486 878 600 q 770 112 878 243 q 465 -19 663 -19 q 282 17 360 -19 q 153 119 204 53 q 78 279 103 186 q 53 486 53 372 m 253 486 q 265 351 253 413 q 303 244 278 289 q 369 175 329 200 q 465 150 410 150 q 622 229 567 150 q 678 486 678 308 q 666 618 678 557 q 629 725 654 679 q 564 797 604 771 q 465 822 524 822 q 308 741 364 822 q 253 486 253 660 m 347 1181 l 533 1181 l 533 1158 l 394 1029 l 265 1029 l 347 1181 m 622 1181 l 817 1181 l 817 1158 l 618 1029 l 488 1029 l 622 1181 z "},"ő":{"ha":746,"x_min":46,"x_max":700,"o":"m 46 347 q 132 619 46 524 q 374 714 218 714 q 518 688 457 714 q 619 613 579 661 q 680 497 660 565 q 700 347 700 429 q 615 76 700 171 q 374 -19 529 -19 q 229 7 290 -19 q 127 81 168 33 q 66 197 86 129 q 46 347 46 265 m 232 347 q 240 263 232 301 q 265 194 249 224 q 309 149 282 165 q 374 133 336 133 q 479 185 444 133 q 514 347 514 236 q 482 502 514 443 q 374 561 450 561 q 269 511 307 561 q 232 347 232 461 m 250 972 l 415 972 l 415 950 l 310 793 l 201 793 l 250 972 m 497 972 l 672 972 l 672 950 l 508 793 l 396 793 l 497 972 z "},"Œ":{"ha":1271,"x_min":53,"x_max":1213,"o":"m 629 788 q 558 813 600 803 q 465 822 517 822 q 308 741 364 822 q 253 486 253 660 q 265 351 253 413 q 305 244 278 289 q 374 175 332 200 q 475 150 415 150 q 552 155 515 150 q 629 176 589 160 l 629 788 m 629 0 q 556 -15 603 -10 q 465 -19 510 -19 q 282 17 360 -19 q 153 119 204 53 q 78 279 103 186 q 53 486 53 372 q 160 860 53 729 q 465 992 267 992 q 559 985 519 992 q 629 972 599 979 l 1206 972 l 1206 803 l 819 803 l 819 576 l 1171 576 l 1171 407 l 819 407 l 819 169 l 1213 169 l 1213 0 l 629 0 z "},"œ":{"ha":1168,"x_min":46,"x_max":1119,"o":"m 232 347 q 240 263 232 301 q 265 194 249 224 q 309 149 282 165 q 374 133 336 133 q 479 185 444 133 q 514 347 514 236 q 482 502 514 443 q 374 561 450 561 q 269 511 307 561 q 232 347 232 461 m 599 83 q 509 9 564 38 q 374 -19 454 -19 q 229 7 290 -19 q 127 81 168 33 q 66 197 86 129 q 46 347 46 265 q 132 619 46 524 q 374 714 218 714 q 521 683 465 714 q 608 614 576 651 q 697 684 640 654 q 842 714 753 714 q 944 700 894 714 q 1033 654 994 686 q 1096 568 1072 622 q 1119 433 1119 514 q 1116 371 1119 404 q 1106 301 1113 338 l 688 301 q 733 169 692 214 q 867 125 775 125 q 969 142 924 125 q 1038 178 1014 160 l 1097 60 q 984 3 1056 26 q 832 -19 913 -19 q 599 83 678 -19 m 839 569 q 734 527 768 569 q 693 414 700 485 l 951 414 q 952 425 951 419 q 953 436 953 431 q 924 535 953 500 q 839 569 896 569 z "},"Ŕ":{"ha":836,"x_min":83,"x_max":814,"o":"m 83 963 q 152 973 115 968 q 226 981 189 978 q 297 985 263 983 q 361 986 332 986 q 495 974 429 986 q 613 931 561 961 q 697 847 665 900 q 728 713 728 793 q 672 518 728 593 q 524 414 617 443 l 592 371 l 814 0 l 594 0 l 374 381 l 274 399 l 274 0 l 83 0 l 83 963 m 375 817 q 317 815 346 817 q 274 810 289 814 l 274 528 l 354 528 q 481 564 433 528 q 528 683 528 600 q 489 781 528 746 q 375 817 450 817 m 406 1208 l 626 1208 l 626 1167 l 404 1044 l 261 1044 l 406 1208 z "},"ŕ":{"ha":488,"x_min":79,"x_max":486,"o":"m 463 525 q 385 540 419 540 q 303 515 336 540 q 260 449 271 489 l 260 0 l 79 0 l 79 694 l 219 694 l 240 603 l 246 603 q 310 682 269 654 q 404 710 350 710 q 486 694 440 710 l 463 525 m 239 1000 l 422 1000 l 422 958 l 268 786 l 165 786 l 239 1000 z "},"Ŗ":{"ha":836,"x_min":83,"x_max":814,"o":"m 83 963 q 152 973 115 968 q 226 981 189 978 q 297 985 263 983 q 361 986 332 986 q 495 974 429 986 q 613 931 561 961 q 697 847 665 900 q 728 713 728 793 q 672 518 728 593 q 524 414 617 443 l 592 371 l 814 0 l 594 0 l 374 381 l 274 399 l 274 0 l 83 0 l 83 963 m 375 817 q 317 815 346 817 q 274 810 289 814 l 274 528 l 354 528 q 481 564 433 528 q 528 683 528 600 q 489 781 528 746 q 375 817 450 817 m 317 -146 q 344 -82 317 -106 q 411 -58 371 -58 q 490 -90 460 -58 q 521 -181 521 -122 q 506 -261 521 -226 q 468 -320 490 -296 q 421 -359 446 -344 q 378 -379 396 -374 l 331 -304 q 369 -277 350 -294 q 392 -231 389 -260 q 340 -210 364 -232 q 317 -146 317 -189 z "},"ŗ":{"ha":488,"x_min":79,"x_max":486,"o":"m 463 525 q 385 540 419 540 q 303 515 336 540 q 260 449 271 489 l 260 0 l 79 0 l 79 694 l 219 694 l 240 603 l 246 603 q 310 682 269 654 q 404 710 350 710 q 486 694 440 710 l 463 525 m 118 -146 q 145 -82 118 -106 q 213 -58 172 -58 q 292 -90 261 -58 q 322 -181 322 -122 q 307 -261 322 -226 q 269 -320 292 -296 q 222 -359 247 -344 q 179 -379 197 -374 l 132 -304 q 171 -277 151 -294 q 193 -231 190 -260 q 142 -210 165 -232 q 118 -146 118 -189 z "},"Ř":{"ha":836,"x_min":83,"x_max":814,"o":"m 83 963 q 152 973 115 968 q 226 981 189 978 q 297 985 263 983 q 361 986 332 986 q 495 974 429 986 q 613 931 561 961 q 697 847 665 900 q 728 713 728 793 q 672 518 728 593 q 524 414 617 443 l 592 371 l 814 0 l 594 0 l 374 381 l 274 399 l 274 0 l 83 0 l 83 963 m 375 817 q 317 815 346 817 q 274 810 289 814 l 274 528 l 354 528 q 481 564 433 528 q 528 683 528 600 q 489 781 528 746 q 375 817 450 817 m 421 1024 l 290 1024 l 114 1154 l 114 1208 l 260 1208 l 333 1146 l 360 1104 l 389 1144 l 467 1208 l 606 1208 l 606 1153 l 421 1024 z "},"ř":{"ha":488,"x_min":46,"x_max":503,"o":"m 463 525 q 385 540 419 540 q 303 515 336 540 q 260 449 271 489 l 260 0 l 79 0 l 79 694 l 219 694 l 240 603 l 246 603 q 310 682 269 654 q 404 710 350 710 q 486 694 440 710 l 463 525 m 332 764 l 206 764 l 46 1017 l 199 1017 l 253 925 l 275 857 l 300 925 l 363 1017 l 503 1017 l 332 764 z "},"Ś":{"ha":736,"x_min":38,"x_max":693,"o":"m 503 261 q 470 333 503 306 q 388 384 438 361 q 281 431 339 407 q 174 491 224 456 q 92 579 125 526 q 60 714 60 632 q 83 837 60 785 q 151 924 107 889 q 254 975 194 958 q 388 992 314 992 q 547 977 472 992 q 671 935 622 963 l 611 775 q 519 810 581 794 q 388 826 458 826 q 285 800 321 826 q 250 729 250 774 q 283 660 250 688 q 365 608 315 632 q 472 560 414 585 q 578 499 529 535 q 660 412 628 464 q 693 282 693 360 q 667 148 693 204 q 595 54 642 92 q 483 -1 549 17 q 338 -19 417 -19 q 154 0 233 -19 q 38 39 75 19 l 99 201 q 138 183 114 193 q 193 165 163 174 q 258 151 224 157 q 328 146 292 146 q 458 174 413 146 q 503 261 503 203 m 419 1208 l 640 1208 l 640 1167 l 418 1044 l 275 1044 l 419 1208 z "},"ś":{"ha":586,"x_min":35,"x_max":547,"o":"m 367 192 q 343 236 367 219 q 285 267 319 253 q 208 295 250 281 q 132 335 167 310 q 74 401 97 361 q 50 503 50 440 q 111 660 50 606 q 288 714 172 714 q 431 697 367 714 q 531 660 494 681 l 490 529 q 410 556 458 542 q 311 569 361 569 q 231 507 231 569 q 254 467 231 482 q 313 438 278 451 q 389 410 347 425 q 465 370 431 394 q 524 307 500 346 q 547 207 547 268 q 480 41 547 101 q 278 -19 413 -19 q 140 -1 204 -19 q 35 43 75 18 l 85 178 q 169 142 117 160 q 278 125 222 125 q 342 140 318 125 q 367 192 367 156 m 289 1000 l 472 1000 l 472 958 l 318 786 l 215 786 l 289 1000 z "},"Ŝ":{"ha":736,"x_min":38,"x_max":693,"o":"m 503 261 q 470 333 503 306 q 388 384 438 361 q 281 431 339 407 q 174 491 224 456 q 92 579 125 526 q 60 714 60 632 q 83 837 60 785 q 151 924 107 889 q 254 975 194 958 q 388 992 314 992 q 547 977 472 992 q 671 935 622 963 l 611 775 q 519 810 581 794 q 388 826 458 826 q 285 800 321 826 q 250 729 250 774 q 283 660 250 688 q 365 608 315 632 q 472 560 414 585 q 578 499 529 535 q 660 412 628 464 q 693 282 693 360 q 667 148 693 204 q 595 54 642 92 q 483 -1 549 17 q 338 -19 417 -19 q 154 0 233 -19 q 38 39 75 19 l 99 201 q 138 183 114 193 q 193 165 163 174 q 258 151 224 157 q 328 146 292 146 q 458 174 413 146 q 503 261 503 203 m 319 1208 l 453 1208 l 629 1079 l 629 1025 l 492 1025 l 413 1082 l 385 1129 l 356 1083 l 269 1025 l 135 1025 l 135 1081 l 319 1208 z "},"ŝ":{"ha":586,"x_min":35,"x_max":547,"o":"m 367 192 q 343 236 367 219 q 285 267 319 253 q 208 295 250 281 q 132 335 167 310 q 74 401 97 361 q 50 503 50 440 q 111 660 50 606 q 288 714 172 714 q 431 697 367 714 q 531 660 494 681 l 490 529 q 410 556 458 542 q 311 569 361 569 q 231 507 231 569 q 254 467 231 482 q 313 438 278 451 q 389 410 347 425 q 465 370 431 394 q 524 307 500 346 q 547 207 547 268 q 480 41 547 101 q 278 -19 413 -19 q 140 -1 204 -19 q 35 43 75 18 l 85 178 q 169 142 117 160 q 278 125 222 125 q 342 140 318 125 q 367 192 367 156 m 246 1017 l 365 1017 l 519 764 l 376 764 l 322 856 l 299 924 l 275 856 l 213 764 l 75 764 l 246 1017 z "},"Ş":{"ha":736,"x_min":38,"x_max":693,"o":"m 503 261 q 470 333 503 306 q 388 384 438 361 q 281 431 339 407 q 174 491 224 456 q 92 579 125 526 q 60 714 60 632 q 83 837 60 785 q 151 924 107 889 q 254 975 194 958 q 388 992 314 992 q 547 977 472 992 q 671 935 622 963 l 611 775 q 519 810 581 794 q 388 826 458 826 q 285 800 321 826 q 250 729 250 774 q 283 660 250 688 q 365 608 315 632 q 472 560 414 585 q 578 499 529 535 q 660 412 628 464 q 693 282 693 360 q 622 78 693 150 q 428 -12 550 6 l 403 -60 q 492 -90 460 -65 q 525 -164 525 -114 q 509 -219 525 -196 q 465 -259 493 -243 q 400 -283 438 -275 q 319 -292 363 -292 q 231 -283 276 -292 l 243 -217 q 261 -218 253 -218 q 276 -218 269 -218 q 344 -206 329 -218 q 360 -176 360 -193 q 240 -132 360 -137 l 307 -19 q 142 1 213 -17 q 38 39 72 19 l 99 201 q 138 183 114 193 q 193 165 163 174 q 258 151 224 157 q 328 146 292 146 q 458 174 413 146 q 503 261 503 203 z "},"ş":{"ha":586,"x_min":35,"x_max":547,"o":"m 367 192 q 343 236 367 219 q 285 267 319 253 q 208 295 250 281 q 132 335 167 310 q 74 401 97 361 q 50 503 50 440 q 111 660 50 606 q 288 714 172 714 q 431 697 367 714 q 531 660 494 681 l 490 529 q 410 556 458 542 q 311 569 361 569 q 231 507 231 569 q 254 467 231 482 q 313 438 278 451 q 389 410 347 425 q 465 370 431 394 q 524 307 500 346 q 547 207 547 268 q 499 60 547 118 q 354 -12 450 3 l 329 -60 q 419 -90 386 -65 q 451 -164 451 -114 q 435 -219 451 -196 q 392 -259 419 -243 q 326 -283 364 -275 q 246 -292 289 -292 q 157 -283 203 -292 l 169 -217 q 188 -218 179 -218 q 203 -218 196 -218 q 271 -206 256 -218 q 286 -176 286 -193 q 167 -132 286 -137 l 235 -17 q 121 5 174 -11 q 35 43 68 21 l 85 178 q 169 142 117 160 q 278 125 222 125 q 342 140 318 125 q 367 192 367 156 z "},"Š":{"ha":736,"x_min":38,"x_max":693,"o":"m 503 261 q 470 333 503 306 q 388 384 438 361 q 281 431 339 407 q 174 491 224 456 q 92 579 125 526 q 60 714 60 632 q 83 837 60 785 q 151 924 107 889 q 254 975 194 958 q 388 992 314 992 q 547 977 472 992 q 671 935 622 963 l 611 775 q 519 810 581 794 q 388 826 458 826 q 285 800 321 826 q 250 729 250 774 q 283 660 250 688 q 365 608 315 632 q 472 560 414 585 q 578 499 529 535 q 660 412 628 464 q 693 282 693 360 q 667 148 693 204 q 595 54 642 92 q 483 -1 549 17 q 338 -19 417 -19 q 154 0 233 -19 q 38 39 75 19 l 99 201 q 138 183 114 193 q 193 165 163 174 q 258 151 224 157 q 328 146 292 146 q 458 174 413 146 q 503 261 503 203 m 456 1024 l 325 1024 l 149 1154 l 149 1208 l 294 1208 l 368 1146 l 394 1104 l 424 1144 l 501 1208 l 640 1208 l 640 1153 l 456 1024 z "},"š":{"ha":586,"x_min":35,"x_max":547,"o":"m 367 192 q 343 236 367 219 q 285 267 319 253 q 208 295 250 281 q 132 335 167 310 q 74 401 97 361 q 50 503 50 440 q 111 660 50 606 q 288 714 172 714 q 431 697 367 714 q 531 660 494 681 l 490 529 q 410 556 458 542 q 311 569 361 569 q 231 507 231 569 q 254 467 231 482 q 313 438 278 451 q 389 410 347 425 q 465 370 431 394 q 524 307 500 346 q 547 207 547 268 q 480 41 547 101 q 278 -19 413 -19 q 140 -1 204 -19 q 35 43 75 18 l 85 178 q 169 142 117 160 q 278 125 222 125 q 342 140 318 125 q 367 192 367 156 m 351 764 l 225 764 l 65 1017 l 218 1017 l 272 925 l 294 857 l 319 925 l 382 1017 l 522 1017 l 351 764 z "},"Ţ":{"ha":789,"x_min":15,"x_max":774,"o":"m 300 0 l 300 803 l 15 803 l 15 972 l 774 972 l 774 803 l 490 803 l 490 0 l 453 0 l 419 -60 q 509 -90 476 -65 q 542 -164 542 -114 q 526 -219 542 -196 q 482 -259 510 -243 q 417 -283 454 -275 q 336 -292 379 -292 q 247 -283 293 -292 l 260 -217 q 278 -218 269 -218 q 293 -218 286 -218 q 361 -206 346 -218 q 376 -176 376 -193 q 257 -132 376 -137 l 336 0 l 300 0 z "},"ţ":{"ha":485,"x_min":7,"x_max":478,"o":"m 7 694 l 103 694 l 103 825 l 283 876 l 283 694 l 453 694 l 453 542 l 283 542 l 283 275 q 298 171 283 203 q 353 139 313 139 q 401 144 381 139 q 446 161 421 150 l 478 24 q 421 3 451 11 q 354 -12 390 -6 l 329 -60 q 419 -90 386 -65 q 451 -164 451 -114 q 435 -219 451 -196 q 392 -259 419 -243 q 326 -283 364 -275 q 246 -292 289 -292 q 157 -283 203 -292 l 169 -217 q 188 -218 179 -218 q 203 -218 196 -218 q 271 -206 256 -218 q 286 -176 286 -193 q 167 -132 286 -137 l 236 -15 q 135 47 168 -3 q 103 192 103 96 l 103 542 l 7 542 l 7 694 z "},"Ť":{"ha":789,"x_min":15,"x_max":774,"o":"m 774 803 l 490 803 l 490 0 l 300 0 l 300 803 l 15 803 l 15 972 l 774 972 l 774 803 m 454 1024 l 324 1024 l 147 1154 l 147 1208 l 293 1208 l 367 1146 l 393 1104 l 422 1144 l 500 1208 l 639 1208 l 639 1153 l 454 1024 z "},"ť":{"ha":500,"x_min":7,"x_max":521,"o":"m 7 694 l 103 694 l 103 825 l 283 876 l 283 694 l 453 694 l 453 542 l 283 542 l 283 275 q 298 172 283 203 q 353 140 313 140 q 401 146 381 140 q 446 163 421 151 l 478 24 q 390 -7 440 6 q 289 -19 340 -19 q 148 30 193 -19 q 103 192 103 79 l 103 542 l 7 542 l 7 694 m 521 1004 q 504 920 518 964 q 472 837 490 876 q 432 766 453 797 q 394 721 411 735 l 314 764 q 350 877 338 814 q 363 1004 363 940 l 521 1004 z "},"Ū":{"ha":871,"x_min":79,"x_max":792,"o":"m 611 972 l 792 972 l 792 344 q 767 182 792 250 q 697 69 742 114 q 589 4 653 25 q 449 -17 525 -17 q 79 321 79 -17 l 79 972 l 269 972 l 269 358 q 280 262 269 301 q 313 198 290 222 q 368 163 335 174 q 446 153 401 153 q 572 201 533 153 q 611 358 611 250 l 611 972 m 201 1189 l 678 1189 l 678 1065 l 201 1065 l 201 1189 z "},"ū":{"ha":747,"x_min":72,"x_max":690,"o":"m 253 694 l 253 300 q 273 178 253 215 q 351 140 293 140 q 437 171 403 140 q 488 246 471 201 l 488 694 l 668 694 l 668 211 q 674 99 668 154 q 690 0 679 44 l 554 0 l 522 103 l 517 103 q 428 15 485 50 q 293 -19 371 -19 q 199 -6 240 -19 q 129 40 157 8 q 87 126 101 72 q 72 263 72 181 l 72 694 l 253 694 m 147 914 l 596 914 l 596 786 l 147 786 l 147 914 z "},"Ŭ":{"ha":871,"x_min":79,"x_max":792,"o":"m 611 972 l 792 972 l 792 344 q 767 182 792 250 q 697 69 742 114 q 589 4 653 25 q 449 -17 525 -17 q 79 321 79 -17 l 79 972 l 269 972 l 269 358 q 280 262 269 301 q 313 198 290 222 q 368 163 335 174 q 446 153 401 153 q 572 201 533 153 q 611 358 611 250 l 611 972 m 240 1215 q 321 1160 268 1179 q 439 1140 374 1140 q 553 1161 506 1140 q 629 1215 601 1182 l 697 1171 q 653 1101 681 1131 q 590 1053 625 1072 q 516 1024 556 1033 q 438 1014 476 1014 q 360 1022 400 1014 q 285 1048 321 1031 q 218 1094 249 1065 q 168 1164 188 1122 l 240 1215 z "},"ŭ":{"ha":747,"x_min":72,"x_max":690,"o":"m 253 694 l 253 300 q 273 178 253 215 q 351 140 293 140 q 437 171 403 140 q 488 246 471 201 l 488 694 l 668 694 l 668 211 q 674 99 668 154 q 690 0 679 44 l 554 0 l 522 103 l 517 103 q 428 15 485 50 q 293 -19 371 -19 q 199 -6 240 -19 q 129 40 157 8 q 87 126 101 72 q 72 263 72 181 l 72 694 l 253 694 m 221 1000 q 287 938 244 958 q 376 918 329 918 q 463 939 424 918 q 524 1000 503 960 l 607 963 q 584 897 603 929 q 535 839 565 864 q 463 799 504 814 q 375 783 422 783 q 218 830 283 783 q 133 956 153 876 l 221 1000 z "},"Ů":{"ha":871,"x_min":79,"x_max":792,"o":"m 611 972 l 792 972 l 792 344 q 767 182 792 250 q 697 69 742 114 q 589 4 653 25 q 449 -17 525 -17 q 79 321 79 -17 l 79 972 l 269 972 l 269 358 q 280 262 269 301 q 313 198 290 222 q 368 163 335 174 q 446 153 401 153 q 572 201 533 153 q 611 358 611 250 l 611 972 m 267 1072 q 275 1120 267 1097 q 303 1160 283 1143 q 358 1188 324 1178 q 444 1197 392 1197 q 582 1164 542 1197 q 622 1072 622 1131 q 613 1025 622 1047 q 583 987 604 1003 q 528 961 563 971 q 444 951 494 951 q 306 985 346 951 q 267 1072 267 1019 m 383 1072 q 444 1029 383 1029 q 493 1040 479 1029 q 507 1072 507 1051 q 492 1107 507 1096 q 444 1118 478 1118 q 383 1072 383 1118 z "},"ů":{"ha":747,"x_min":72,"x_max":690,"o":"m 253 694 l 253 300 q 273 178 253 215 q 351 140 293 140 q 437 171 403 140 q 488 246 471 201 l 488 694 l 668 694 l 668 211 q 674 99 668 154 q 690 0 679 44 l 554 0 l 522 103 l 517 103 q 428 15 485 50 q 293 -19 371 -19 q 199 -6 240 -19 q 129 40 157 8 q 87 126 101 72 q 72 263 72 181 l 72 694 l 253 694 m 215 899 q 255 994 215 957 q 369 1032 294 1032 q 482 998 440 1032 q 524 899 524 964 q 483 806 524 844 q 369 768 442 768 q 256 803 296 768 q 215 899 215 839 m 315 899 q 332 865 315 876 q 369 853 349 853 q 408 864 393 853 q 424 899 424 875 q 408 934 424 922 q 369 946 392 946 q 332 935 349 946 q 315 899 315 924 z "},"Ű":{"ha":871,"x_min":79,"x_max":792,"o":"m 611 972 l 792 972 l 792 344 q 767 182 792 250 q 697 69 742 114 q 589 4 653 25 q 449 -17 525 -17 q 79 321 79 -17 l 79 972 l 269 972 l 269 358 q 280 262 269 301 q 313 198 290 222 q 368 163 335 174 q 446 153 401 153 q 572 201 533 153 q 611 358 611 250 l 611 972 m 313 1181 l 499 1181 l 499 1158 l 360 1029 l 231 1029 l 313 1181 m 588 1181 l 782 1181 l 782 1158 l 583 1029 l 453 1029 l 588 1181 z "},"ű":{"ha":747,"x_min":72,"x_max":690,"o":"m 253 694 l 253 300 q 273 178 253 215 q 351 140 293 140 q 437 171 403 140 q 488 246 471 201 l 488 694 l 668 694 l 668 211 q 674 99 668 154 q 690 0 679 44 l 554 0 l 522 103 l 517 103 q 428 15 485 50 q 293 -19 371 -19 q 199 -6 240 -19 q 129 40 157 8 q 87 126 101 72 q 72 263 72 181 l 72 694 l 253 694 m 231 972 l 396 972 l 396 950 l 290 793 l 182 793 l 231 972 m 478 972 l 653 972 l 653 950 l 489 793 l 376 793 l 478 972 z "},"Ų":{"ha":871,"x_min":79,"x_max":792,"o":"m 611 972 l 792 972 l 792 344 q 767 182 792 250 q 697 69 742 114 q 596 7 656 28 q 533 -94 533 -36 q 541 -127 533 -112 q 564 -150 549 -142 q 601 -158 579 -158 q 650 -143 622 -157 l 676 -229 q 610 -262 656 -246 q 517 -279 565 -279 q 398 -241 439 -279 q 357 -146 357 -203 q 431 -17 357 -69 q 79 321 79 -8 l 79 972 l 269 972 l 269 358 q 280 262 269 301 q 313 198 290 222 q 368 163 335 174 q 446 153 401 153 q 572 201 533 153 q 611 358 611 250 l 611 972 z "},"ų":{"ha":747,"x_min":72,"x_max":731,"o":"m 253 694 l 253 300 q 273 178 253 215 q 351 140 293 140 q 437 171 403 140 q 488 246 471 201 l 488 694 l 668 694 l 668 211 q 674 99 668 154 q 690 0 679 44 l 665 0 q 606 -40 625 -14 q 588 -100 588 -65 q 619 -153 589 -136 q 704 -143 649 -171 l 731 -229 q 665 -262 710 -246 q 572 -279 621 -279 q 452 -244 493 -279 q 411 -151 411 -208 q 449 -54 411 -94 q 551 8 486 -14 l 522 103 l 517 103 q 428 15 485 50 q 293 -19 371 -19 q 199 -6 240 -19 q 129 40 157 8 q 87 126 101 72 q 72 263 72 181 l 72 694 l 253 694 z "},"Ÿ":{"ha":822,"x_min":-3,"x_max":825,"o":"m 317 361 l -3 972 l 224 972 l 401 607 l 421 504 l 428 504 l 449 610 l 621 972 l 825 972 l 507 363 l 507 0 l 317 0 l 317 361 m 161 1108 q 186 1167 161 1144 q 267 1189 211 1189 q 346 1167 321 1189 q 371 1108 371 1144 q 346 1051 371 1072 q 267 1029 321 1029 q 186 1051 211 1029 q 161 1108 161 1072 m 458 1108 q 483 1167 458 1144 q 563 1189 508 1189 q 643 1167 618 1189 q 668 1108 668 1144 q 643 1051 668 1072 q 563 1029 618 1029 q 483 1051 508 1029 q 458 1108 458 1072 z "},"Ź":{"ha":749,"x_min":38,"x_max":711,"o":"m 38 169 l 449 744 l 521 803 l 38 803 l 38 972 l 711 972 l 711 803 l 297 222 l 226 169 l 711 169 l 711 0 l 38 0 l 38 169 m 414 1208 l 635 1208 l 635 1167 l 413 1044 l 269 1044 l 414 1208 z "},"ź":{"ha":636,"x_min":43,"x_max":588,"o":"m 43 153 l 317 482 l 388 542 l 43 542 l 43 694 l 588 694 l 588 542 l 317 207 l 247 153 l 588 153 l 588 0 l 43 0 l 43 153 m 308 1000 l 492 1000 l 492 958 l 338 786 l 235 786 l 308 1000 z "},"Ż":{"ha":749,"x_min":38,"x_max":711,"o":"m 38 169 l 449 744 l 521 803 l 38 803 l 38 972 l 711 972 l 711 803 l 297 222 l 226 169 l 711 169 l 711 0 l 38 0 l 38 169 m 258 1110 q 288 1169 258 1144 q 378 1194 318 1194 q 469 1169 438 1194 q 501 1110 501 1144 q 469 1049 501 1074 q 378 1024 438 1024 q 288 1049 318 1024 q 258 1110 258 1074 z "},"ż":{"ha":636,"x_min":43,"x_max":588,"o":"m 43 153 l 317 482 l 388 542 l 43 542 l 43 694 l 588 694 l 588 542 l 317 207 l 247 153 l 588 153 l 588 0 l 43 0 l 43 153 m 210 890 q 240 959 210 931 q 322 988 269 988 q 408 959 375 988 q 440 890 440 931 q 408 823 440 850 q 322 796 375 796 q 240 823 269 796 q 210 890 210 850 z "},"Ž":{"ha":749,"x_min":38,"x_max":711,"o":"m 38 169 l 449 744 l 521 803 l 38 803 l 38 972 l 711 972 l 711 803 l 297 222 l 226 169 l 711 169 l 711 0 l 38 0 l 38 169 m 429 1024 l 299 1024 l 122 1154 l 122 1208 l 268 1208 l 342 1146 l 368 1104 l 397 1144 l 475 1208 l 614 1208 l 614 1153 l 429 1024 z "},"ž":{"ha":636,"x_min":43,"x_max":588,"o":"m 43 153 l 317 482 l 388 542 l 43 542 l 43 694 l 588 694 l 588 542 l 317 207 l 247 153 l 588 153 l 588 0 l 43 0 l 43 153 m 374 764 l 247 764 l 88 1017 l 240 1017 l 294 925 l 317 857 l 342 925 l 404 1017 l 544 1017 l 374 764 z "},"ſ":{"ha":346,"x_min":17,"x_max":515,"o":"m 17 694 l 113 694 l 113 733 q 168 924 113 865 q 329 983 224 983 q 435 974 392 983 q 515 950 478 965 l 479 810 q 424 826 447 821 q 372 831 400 831 q 328 822 344 831 q 305 797 313 814 q 295 753 297 779 q 293 694 293 728 l 293 0 l 113 0 l 113 542 l 17 542 l 17 694 z "},"ƒ":{"ha":788,"x_min":-72,"x_max":772,"o":"m 475 542 l 376 -47 q 352 -142 368 -99 q 308 -219 336 -186 q 237 -270 279 -251 q 133 -289 194 -289 q 85 -286 114 -289 q 28 -279 57 -283 q -28 -269 -1 -275 q -72 -256 -56 -262 l -43 -110 q 18 -130 -11 -124 q 86 -136 47 -136 q 164 -102 136 -136 q 204 11 192 -68 l 289 542 l 181 542 l 181 694 l 314 694 l 329 788 q 352 877 338 839 q 392 941 367 915 q 458 979 418 967 q 558 992 499 992 q 609 988 581 992 q 667 978 638 985 q 724 965 696 972 q 772 947 751 957 l 728 813 q 596 839 660 839 q 534 817 551 839 q 508 740 517 796 l 501 694 l 667 694 l 667 542 l 475 542 z "},"Ǵ":{"ha":846,"x_min":53,"x_max":789,"o":"m 426 507 l 789 507 l 789 74 q 649 3 731 25 q 489 -19 568 -19 q 316 10 396 -19 q 178 101 236 39 q 86 258 119 163 q 53 486 53 354 q 92 720 53 624 q 197 877 132 817 q 342 965 261 938 q 506 992 422 992 q 652 979 589 992 q 753 953 715 967 l 714 793 q 636 815 679 807 q 526 822 593 822 q 417 804 467 822 q 330 745 367 786 q 273 640 293 704 q 253 485 253 576 q 272 334 253 397 q 326 230 292 271 q 408 169 361 189 q 507 150 454 150 q 578 159 543 150 q 636 186 613 168 l 636 369 l 426 392 l 426 507 m 543 1208 l 764 1208 l 764 1167 l 542 1044 l 399 1044 l 543 1208 z "},"ǵ":{"ha":744,"x_min":46,"x_max":667,"o":"m 667 0 q 585 -223 667 -151 q 356 -294 503 -294 q 198 -281 256 -294 q 111 -251 140 -267 l 149 -108 q 223 -133 181 -121 q 328 -146 265 -146 q 456 -105 422 -146 q 490 10 490 -64 l 490 54 l 485 54 q 313 -11 436 -11 q 112 72 178 -11 q 46 333 46 156 q 135 615 46 519 q 393 711 224 711 q 552 699 482 711 q 667 669 622 686 l 667 0 m 361 133 q 442 157 414 133 q 486 228 471 181 l 486 540 q 379 558 443 558 q 271 506 310 558 q 232 340 232 454 q 265 186 232 239 q 361 133 299 133 m 386 1000 l 569 1000 l 569 958 l 415 786 l 313 786 l 386 1000 z "},"Ș":{"ha":736,"x_min":38,"x_max":693,"o":"m 503 261 q 470 333 503 306 q 388 384 438 361 q 281 431 339 407 q 174 491 224 456 q 92 579 125 526 q 60 714 60 632 q 83 837 60 785 q 151 924 107 889 q 254 975 194 958 q 388 992 314 992 q 547 977 472 992 q 671 935 622 963 l 611 775 q 519 810 581 794 q 388 826 458 826 q 285 800 321 826 q 250 729 250 774 q 283 660 250 688 q 365 608 315 632 q 472 560 414 585 q 578 499 529 535 q 660 412 628 464 q 693 282 693 360 q 667 148 693 204 q 595 54 642 92 q 483 -1 549 17 q 338 -19 417 -19 q 154 0 233 -19 q 38 39 75 19 l 99 201 q 138 183 114 193 q 193 165 163 174 q 258 151 224 157 q 328 146 292 146 q 458 174 413 146 q 503 261 503 203 m 257 -146 q 284 -82 257 -106 q 351 -58 311 -58 q 431 -90 400 -58 q 461 -181 461 -122 q 446 -261 461 -226 q 408 -320 431 -296 q 361 -359 386 -344 q 318 -379 336 -374 l 271 -304 q 310 -277 290 -294 q 332 -231 329 -260 q 281 -210 304 -232 q 257 -146 257 -189 z "},"ș":{"ha":586,"x_min":35,"x_max":547,"o":"m 367 192 q 343 236 367 219 q 285 267 319 253 q 208 295 250 281 q 132 335 167 310 q 74 401 97 361 q 50 503 50 440 q 111 660 50 606 q 288 714 172 714 q 431 697 367 714 q 531 660 494 681 l 490 529 q 410 556 458 542 q 311 569 361 569 q 231 507 231 569 q 254 467 231 482 q 313 438 278 451 q 389 410 347 425 q 465 370 431 394 q 524 307 500 346 q 547 207 547 268 q 480 41 547 101 q 278 -19 413 -19 q 140 -1 204 -19 q 35 43 75 18 l 85 178 q 169 142 117 160 q 278 125 222 125 q 342 140 318 125 q 367 192 367 156 m 196 -146 q 223 -82 196 -106 q 290 -58 250 -58 q 369 -90 339 -58 q 400 -181 400 -122 q 385 -261 400 -226 q 347 -320 369 -296 q 300 -359 325 -344 q 257 -379 275 -374 l 210 -304 q 249 -277 229 -294 q 271 -231 268 -260 q 219 -210 243 -232 q 196 -146 196 -189 z "},"Ț":{"ha":789,"x_min":15,"x_max":774,"o":"m 774 803 l 490 803 l 490 0 l 300 0 l 300 803 l 15 803 l 15 972 l 774 972 l 774 803 m 285 -146 q 312 -82 285 -106 q 379 -58 339 -58 q 458 -90 428 -58 q 489 -181 489 -122 q 474 -261 489 -226 q 436 -320 458 -296 q 389 -359 414 -344 q 346 -379 364 -374 l 299 -304 q 338 -277 318 -294 q 360 -231 357 -260 q 308 -210 332 -232 q 285 -146 285 -189 z "},"ț":{"ha":485,"x_min":7,"x_max":478,"o":"m 7 694 l 103 694 l 103 825 l 283 876 l 283 694 l 453 694 l 453 542 l 283 542 l 283 275 q 298 172 283 203 q 353 140 313 140 q 401 146 381 140 q 446 163 421 151 l 478 24 q 390 -7 440 6 q 289 -19 340 -19 q 148 30 193 -19 q 103 192 103 79 l 103 542 l 7 542 l 7 694 m 151 -146 q 178 -82 151 -106 q 246 -58 206 -58 q 325 -90 294 -58 q 356 -181 356 -122 q 340 -261 356 -226 q 303 -320 325 -296 q 256 -359 281 -344 q 213 -379 231 -374 l 165 -304 q 204 -277 185 -294 q 226 -231 224 -260 q 175 -210 199 -232 q 151 -146 151 -189 z "},"ȷ":{"ha":372,"x_min":-22,"x_max":276,"o":"m 96 694 l 276 694 l 276 -29 q 226 -222 276 -156 q 67 -289 176 -289 q -22 -279 25 -289 l -22 -128 q -12 -128 -17 -128 q -4 -129 -8 -129 q 77 -89 58 -129 q 96 22 96 -49 l 96 694 z "},"ʼ":{"ha":310,"x_min":53,"x_max":257,"o":"m 53 894 q 80 960 53 935 q 149 985 107 985 q 228 951 199 985 q 257 864 257 918 q 240 769 257 808 q 198 705 222 731 q 147 665 174 679 q 101 643 119 650 l 56 719 q 105 753 83 732 q 129 806 126 774 q 77 827 101 804 q 53 894 53 850 z "},"ˆ":{"ha":611,"x_min":83,"x_max":528,"o":"m 254 1017 l 374 1017 l 528 764 l 385 764 l 331 856 l 307 924 l 283 856 l 221 764 l 83 764 l 254 1017 z "},"ˇ":{"ha":624,"x_min":83,"x_max":540,"o":"m 369 764 l 243 764 l 83 1017 l 236 1017 l 290 925 l 313 857 l 338 925 l 400 1017 l 540 1017 l 369 764 z "},"˘":{"ha":640,"x_min":83,"x_max":557,"o":"m 171 1000 q 237 938 194 958 q 326 918 279 918 q 413 939 374 918 q 474 1000 453 960 l 557 963 q 534 897 553 929 q 485 839 515 864 q 413 799 454 814 q 325 783 372 783 q 168 830 233 783 q 83 956 103 876 l 171 1000 z "},"˙":{"ha":397,"x_min":83,"x_max":314,"o":"m 83 890 q 113 959 83 931 q 196 988 143 988 q 281 959 249 988 q 314 890 314 931 q 281 823 314 850 q 196 796 249 796 q 113 823 143 796 q 83 890 83 850 z "},"˚":{"ha":475,"x_min":83,"x_max":392,"o":"m 83 899 q 123 994 83 957 q 238 1032 163 1032 q 350 998 308 1032 q 392 899 392 964 q 351 806 392 844 q 238 768 310 768 q 124 803 164 768 q 83 899 83 839 m 183 899 q 200 865 183 876 q 238 853 217 853 q 276 864 261 853 q 292 899 292 875 q 276 934 292 922 q 238 946 260 946 q 200 935 217 946 q 183 899 183 924 z "},"˛":{"ha":486,"x_min":83,"x_max":403,"o":"m 365 14 q 260 -96 260 -17 q 275 -138 260 -121 q 318 -156 290 -156 q 376 -139 343 -156 l 403 -225 q 337 -258 382 -242 q 243 -274 292 -274 q 124 -239 165 -274 q 83 -147 83 -204 q 122 -50 83 -90 q 226 14 160 -10 l 365 14 z "},"˜":{"ha":628,"x_min":83,"x_max":544,"o":"m 83 914 q 163 985 126 965 q 233 1004 200 1004 q 287 994 261 1004 q 338 974 313 985 q 386 953 363 963 q 435 943 410 943 q 474 951 454 943 q 517 981 494 960 l 544 883 q 470 822 504 839 q 404 806 436 806 q 350 815 376 806 q 299 835 324 824 q 249 855 274 846 q 199 864 224 864 q 156 855 178 864 q 110 824 133 846 l 83 914 z "},"˝":{"ha":638,"x_min":83,"x_max":554,"o":"m 132 972 l 297 972 l 297 950 l 192 793 l 83 793 l 132 972 m 379 972 l 554 972 l 554 950 l 390 793 l 278 793 l 379 972 z "},"́":{"ha":3,"x_min":-424,"x_max":-167,"o":"m -350 1000 l -167 1000 l -167 958 l -321 786 l -424 786 l -350 1000 z "},"Δ":{"ha":813,"x_min":17,"x_max":799,"o":"m 17 0 l 17 99 l 351 979 l 461 979 l 799 99 l 799 0 l 17 0 m 219 161 l 594 161 l 439 575 l 407 714 l 400 714 l 367 574 l 219 161 z "},"Ω":{"ha":1081,"x_min":81,"x_max":1000,"o":"m 81 153 l 226 153 l 344 135 l 344 174 l 281 186 q 203 238 239 206 q 140 315 167 269 q 97 420 113 361 q 82 551 82 479 q 115 734 82 653 q 208 872 147 815 q 353 960 268 929 q 540 992 438 992 q 734 959 649 992 q 878 868 819 926 q 967 728 936 810 q 999 546 999 646 q 982 416 999 474 q 938 314 965 358 q 876 238 911 269 q 803 188 840 207 l 735 174 l 735 135 l 853 153 l 1000 153 l 1000 0 l 583 0 l 583 282 q 658 306 619 288 q 727 355 696 324 q 778 433 758 386 q 799 544 799 479 q 785 646 799 596 q 740 735 771 696 q 660 799 710 775 q 539 822 611 822 q 349 751 415 822 q 282 540 282 681 q 301 431 282 478 q 351 353 321 385 q 420 305 382 322 q 496 282 458 288 l 496 0 l 81 0 l 81 153 z "},"π":{"ha":967,"x_min":26,"x_max":919,"o":"m 786 217 q 799 163 786 178 q 831 147 811 147 q 862 150 844 147 q 892 156 879 153 l 919 31 q 848 5 892 18 q 742 -8 804 -8 q 635 33 664 -8 q 606 147 606 75 l 606 542 l 411 542 l 411 0 l 231 0 l 231 542 l 211 542 q 167 528 186 542 q 132 481 149 514 l 26 547 q 105 656 53 618 q 231 694 157 694 l 901 694 l 901 542 l 786 542 l 786 217 z "},"Ё":{"ha":725,"x_min":83,"x_max":667,"o":"m 83 972 l 660 972 l 660 803 l 274 803 l 274 576 l 625 576 l 625 407 l 274 407 l 274 169 l 667 169 l 667 0 l 83 0 l 83 972 m 114 1108 q 139 1167 114 1144 q 219 1189 164 1189 q 299 1167 274 1189 q 324 1108 324 1144 q 299 1051 324 1072 q 219 1029 274 1029 q 139 1051 164 1029 q 114 1108 114 1072 m 411 1108 q 436 1167 411 1144 q 515 1189 461 1189 q 596 1167 571 1189 q 621 1108 621 1144 q 596 1051 621 1072 q 515 1029 571 1029 q 436 1051 461 1029 q 411 1108 411 1072 z "},"Ђ":{"ha":1028,"x_min":15,"x_max":975,"o":"m 490 0 l 300 0 l 300 803 l 15 803 l 15 972 l 774 972 l 774 803 l 490 803 l 490 604 q 560 624 513 613 q 682 635 607 635 q 788 621 736 635 q 882 572 840 607 q 949 476 924 536 q 975 322 975 415 q 896 76 975 161 q 640 -10 817 -10 q 583 -8 601 -10 q 553 -4 564 -7 l 553 158 q 585 155 563 156 q 632 154 608 154 q 738 194 701 154 q 775 314 775 235 q 763 391 775 361 q 728 438 750 421 q 675 460 706 454 q 608 465 644 465 q 541 457 576 465 q 490 440 506 449 l 490 0 z "},"Ѓ":{"ha":636,"x_min":83,"x_max":649,"o":"m 649 803 l 274 803 l 274 0 l 83 0 l 83 972 l 649 972 l 649 803 m 406 1208 l 626 1208 l 626 1167 l 404 1044 l 261 1044 l 406 1208 z "},"Є":{"ha":801,"x_min":53,"x_max":763,"o":"m 763 40 q 710 13 742 25 q 644 -6 679 1 q 571 -16 608 -12 q 497 -19 533 -19 q 326 8 407 -19 q 185 95 246 35 q 89 252 125 156 q 53 486 53 349 q 93 726 53 629 q 198 881 133 822 q 342 966 263 940 q 503 992 422 992 q 649 981 586 992 q 749 954 711 969 l 713 789 q 631 813 681 804 q 519 822 582 822 q 427 808 471 822 q 349 763 383 793 q 291 686 315 732 q 257 578 267 640 l 639 578 l 639 422 l 253 422 q 340 224 268 299 q 533 150 411 150 q 644 163 596 150 q 724 193 693 175 l 763 40 z "},"Ѕ":{"ha":736,"x_min":38,"x_max":693,"o":"m 503 261 q 470 333 503 306 q 388 384 438 361 q 281 431 339 407 q 174 491 224 456 q 92 579 125 526 q 60 714 60 632 q 83 837 60 785 q 151 924 107 889 q 254 975 194 958 q 388 992 314 992 q 547 977 472 992 q 671 935 622 963 l 611 775 q 519 810 581 794 q 388 826 458 826 q 285 800 321 826 q 250 729 250 774 q 283 660 250 688 q 365 608 315 632 q 472 560 414 585 q 578 499 529 535 q 660 412 628 464 q 693 282 693 360 q 667 148 693 204 q 595 54 642 92 q 483 -1 549 17 q 338 -19 417 -19 q 154 0 233 -19 q 38 39 75 19 l 99 201 q 138 183 114 193 q 193 165 163 174 q 258 151 224 157 q 328 146 292 146 q 458 174 413 146 q 503 261 503 203 z "},"І":{"ha":396,"x_min":103,"x_max":293,"o":"m 103 972 l 293 972 l 293 0 l 103 0 l 103 972 z "},"Ї":{"ha":411,"x_min":26,"x_max":386,"o":"m 26 1100 q 48 1166 26 1143 q 110 1189 69 1189 q 170 1166 149 1189 q 192 1100 192 1143 q 170 1036 192 1058 q 110 1014 149 1014 q 48 1036 69 1014 q 26 1100 26 1058 m 221 1100 q 242 1166 221 1143 q 303 1189 264 1189 q 365 1166 343 1189 q 386 1100 386 1143 q 365 1036 386 1058 q 303 1014 343 1014 q 242 1036 264 1014 q 221 1100 221 1058 m 110 972 l 300 972 l 300 0 l 110 0 l 110 972 z "},"Ј":{"ha":464,"x_min":-32,"x_max":372,"o":"m 182 972 l 372 972 l 372 261 q 360 156 372 206 q 319 67 347 106 q 246 6 290 29 q 138 -17 201 -17 q 50 -8 97 -17 q -32 15 3 0 l 10 171 q 92 153 46 153 q 166 196 150 153 q 182 310 182 239 l 182 972 z "},"Љ":{"ha":1299,"x_min":-18,"x_max":1267,"o":"m 592 803 l 385 803 q 372 563 379 671 q 353 367 365 454 q 322 214 342 281 q 272 99 303 147 q 228 46 253 67 q 178 13 204 25 q 126 -5 151 0 q 78 -10 100 -10 q 24 -5 46 -10 q -18 10 3 0 l 3 174 q 19 169 11 171 q 36 168 28 168 q 80 179 58 168 q 117 217 101 190 q 153 306 138 247 q 180 457 168 365 q 199 676 192 549 q 208 972 206 803 l 782 972 l 782 624 q 805 627 789 625 q 840 631 821 629 q 878 633 858 632 q 914 635 897 635 q 1046 621 982 635 q 1159 572 1110 607 q 1238 476 1208 536 q 1267 322 1267 415 q 1163 71 1267 156 q 867 -14 1060 -14 q 825 -13 850 -14 q 770 -11 800 -12 q 707 -7 740 -10 q 643 0 674 -4 l 592 0 l 592 803 m 876 156 q 950 163 915 156 q 1011 190 985 171 q 1052 239 1038 208 q 1067 314 1067 269 q 1051 391 1067 361 q 1009 438 1035 421 q 949 460 983 454 q 876 465 914 465 q 853 464 867 465 q 825 461 839 463 q 799 458 811 460 q 782 454 788 456 l 782 164 q 823 158 797 160 q 876 156 849 156 z "},"Њ":{"ha":1336,"x_min":83,"x_max":1304,"o":"m 629 424 l 274 424 l 274 0 l 83 0 l 83 972 l 274 972 l 274 593 l 629 593 l 629 972 l 819 972 l 819 603 q 842 606 826 604 q 877 610 858 608 q 915 613 896 611 q 951 614 935 614 q 1083 601 1019 614 q 1197 556 1147 589 q 1275 464 1246 522 q 1304 313 1304 406 q 1201 66 1304 146 q 904 -14 1099 -14 q 851 -12 885 -14 q 780 -9 818 -11 q 701 -3 742 -7 q 629 4 661 0 l 629 424 m 914 156 q 992 163 957 156 q 1053 187 1028 169 q 1091 233 1078 204 q 1104 304 1104 261 q 1090 376 1104 349 q 1051 418 1076 403 q 991 439 1026 433 q 914 444 956 444 q 890 443 904 444 q 863 440 876 442 q 837 436 849 439 q 819 432 825 433 l 819 164 q 860 158 835 160 q 914 156 886 156 z "},"Ћ":{"ha":1053,"x_min":15,"x_max":994,"o":"m 490 0 l 300 0 l 300 803 l 15 803 l 15 972 l 774 972 l 774 803 l 490 803 l 490 557 q 585 596 525 578 q 729 614 646 614 q 836 599 788 614 q 920 551 885 583 q 975 468 956 519 q 994 344 994 417 l 994 0 l 804 0 l 804 286 q 771 410 804 369 q 663 451 738 451 q 564 440 610 451 q 490 404 518 428 l 490 0 z "},"Ќ":{"ha":861,"x_min":83,"x_max":846,"o":"m 324 415 l 274 415 l 274 0 l 83 0 l 83 972 l 274 972 l 274 542 l 318 561 l 586 972 l 803 972 l 519 564 l 444 511 l 522 457 l 846 0 l 611 0 l 324 415 m 442 1208 l 663 1208 l 663 1167 l 440 1044 l 297 1044 l 442 1208 z "},"Ў":{"ha":789,"x_min":-12,"x_max":808,"o":"m 408 543 l 436 417 l 444 417 l 467 547 l 613 972 l 808 972 l 550 300 q 491 163 519 221 q 430 66 463 104 q 357 9 397 28 q 263 -10 317 -10 q 188 -3 217 -10 q 126 24 160 3 l 175 178 q 218 163 199 165 q 260 160 238 160 q 351 263 325 160 l -12 972 l 211 972 l 408 543 m 317 1214 q 349 1150 322 1169 q 419 1131 376 1131 q 522 1213 513 1131 l 676 1189 q 597 1061 661 1101 q 418 1021 532 1021 q 314 1029 361 1021 q 231 1056 267 1038 q 173 1107 196 1075 q 144 1186 150 1139 l 317 1214 z "},"Џ":{"ha":888,"x_min":83,"x_max":804,"o":"m 83 0 l 83 972 l 274 972 l 274 169 l 614 169 l 614 972 l 804 972 l 804 0 l 526 0 l 506 -243 l 383 -243 l 356 0 l 83 0 z "},"А":{"ha":840,"x_min":0,"x_max":840,"o":"m 563 215 l 264 215 l 190 0 l 0 0 l 350 979 l 490 979 l 840 0 l 640 0 l 563 215 m 313 368 l 521 368 l 449 585 l 419 738 l 413 738 l 383 583 l 313 368 z "},"Б":{"ha":792,"x_min":83,"x_max":753,"o":"m 83 972 l 682 972 l 682 803 l 274 803 l 274 600 q 331 608 297 604 q 399 613 365 613 q 542 597 476 613 q 653 547 607 582 q 726 453 700 511 q 753 313 753 396 q 726 169 753 231 q 648 68 699 108 q 526 7 597 28 q 365 -14 454 -14 q 306 -12 342 -14 q 231 -8 271 -11 q 153 -1 192 -6 q 83 10 114 3 l 83 972 m 379 143 q 447 152 415 143 q 501 180 478 161 q 539 228 525 199 q 553 299 553 257 q 538 379 553 349 q 496 427 522 410 q 435 450 469 444 q 363 456 401 456 q 314 452 343 456 q 274 446 285 449 l 274 150 q 320 144 289 146 q 379 143 351 143 z "},"В":{"ha":821,"x_min":83,"x_max":768,"o":"m 738 746 q 728 674 738 710 q 699 608 719 638 q 644 555 678 578 q 564 521 611 532 l 564 513 q 643 489 606 506 q 708 443 681 472 q 752 372 736 414 q 768 274 768 331 q 736 144 768 199 q 651 54 704 89 q 529 3 597 19 q 389 -14 461 -14 q 328 -14 365 -14 q 249 -12 292 -14 q 163 -6 207 -10 q 83 7 119 -1 l 83 965 q 144 974 110 969 q 217 981 178 978 q 297 985 256 983 q 378 986 338 986 q 510 976 446 986 q 626 939 575 965 q 707 865 676 913 q 738 746 738 818 m 390 143 q 458 151 425 143 q 515 177 490 160 q 556 221 540 194 q 571 283 571 247 q 553 356 571 329 q 506 397 535 382 q 440 415 476 411 q 368 419 404 419 l 267 419 l 267 151 q 289 147 274 149 q 322 145 304 146 q 358 144 339 144 q 390 143 376 143 m 328 564 q 373 565 347 564 q 415 569 399 567 q 506 619 468 586 q 544 707 544 653 q 531 767 544 743 q 494 804 517 790 q 442 824 471 818 q 381 829 413 829 q 314 828 344 829 q 267 824 283 826 l 267 564 l 328 564 z "},"Г":{"ha":636,"x_min":83,"x_max":649,"o":"m 649 803 l 274 803 l 274 0 l 83 0 l 83 972 l 649 972 l 649 803 z "},"Д":{"ha":960,"x_min":0,"x_max":936,"o":"m 936 -174 l 801 -174 l 781 0 l 156 0 l 135 -174 l 0 -174 l 0 169 l 103 169 q 135 238 113 185 q 179 387 157 290 q 217 628 201 483 q 231 972 232 774 l 813 972 l 813 169 l 936 169 l 936 -174 m 622 169 l 622 803 l 407 803 q 367 398 399 556 q 304 169 336 240 l 622 169 z "},"Е":{"ha":725,"x_min":83,"x_max":667,"o":"m 83 972 l 660 972 l 660 803 l 274 803 l 274 576 l 625 576 l 625 407 l 274 407 l 274 169 l 667 169 l 667 0 l 83 0 l 83 972 z "},"Ж":{"ha":1165,"x_min":-10,"x_max":1174,"o":"m 486 972 l 667 972 l 667 540 l 715 560 l 917 972 l 1131 972 l 904 546 l 839 499 l 918 440 l 1174 0 l 944 0 l 721 422 l 667 422 l 667 0 l 486 0 l 486 439 l 436 419 l 213 0 l -10 0 l 244 426 l 319 481 l 247 532 l 10 972 l 231 972 l 432 557 l 486 557 l 486 972 z "},"З":{"ha":731,"x_min":25,"x_max":682,"o":"m 167 431 l 167 579 l 200 579 q 231 579 213 579 q 267 580 249 579 q 304 583 286 581 q 333 588 322 585 q 417 627 382 599 q 451 704 451 656 q 409 795 451 771 q 297 819 367 819 q 181 803 235 819 q 99 771 126 786 l 50 932 q 94 950 65 940 q 159 969 122 960 q 239 983 196 978 q 326 989 282 989 q 446 978 388 989 q 550 939 504 967 q 624 865 596 911 q 651 746 651 818 q 613 613 651 674 q 490 524 575 551 l 490 517 q 631 439 581 499 q 682 279 682 379 q 650 144 682 200 q 566 51 618 88 q 446 -2 514 15 q 307 -19 378 -19 q 140 -4 215 -19 q 25 32 65 11 l 74 197 q 165 166 106 182 q 307 150 225 150 q 369 158 338 150 q 425 183 400 165 q 465 228 450 200 q 481 294 481 256 q 432 393 481 360 q 258 429 383 426 q 233 431 242 431 q 204 431 225 431 l 167 431 z "},"И":{"ha":925,"x_min":83,"x_max":840,"o":"m 650 539 l 661 665 l 654 665 l 589 535 l 226 0 l 83 0 l 83 972 l 274 972 l 274 443 l 260 313 l 268 313 l 336 447 l 699 972 l 840 972 l 840 0 l 650 0 l 650 539 z "},"Й":{"ha":925,"x_min":83,"x_max":840,"o":"m 650 539 l 661 665 l 654 665 l 589 535 l 226 0 l 83 0 l 83 972 l 274 972 l 274 443 l 260 313 l 268 313 l 336 447 l 699 972 l 840 972 l 840 0 l 650 0 l 650 539 m 379 1214 q 412 1150 385 1169 q 482 1131 439 1131 q 585 1213 575 1131 l 739 1189 q 659 1061 724 1101 q 481 1021 594 1021 q 376 1029 424 1021 q 294 1056 329 1038 q 235 1107 258 1075 q 207 1186 213 1139 l 379 1214 z "},"К":{"ha":861,"x_min":83,"x_max":846,"o":"m 324 415 l 274 415 l 274 0 l 83 0 l 83 972 l 274 972 l 274 542 l 318 561 l 586 972 l 803 972 l 519 564 l 444 511 l 522 457 l 846 0 l 611 0 l 324 415 z "},"Л":{"ha":865,"x_min":-18,"x_max":782,"o":"m 592 803 l 385 803 q 372 563 379 671 q 353 367 365 454 q 322 214 342 281 q 272 99 303 147 q 228 46 253 67 q 178 13 204 25 q 126 -5 151 0 q 78 -10 100 -10 q 24 -5 46 -10 q -18 10 3 0 l 3 174 q 19 169 11 171 q 36 168 28 168 q 80 179 58 168 q 117 217 101 190 q 153 306 138 247 q 180 457 168 365 q 199 676 192 549 q 208 972 206 803 l 782 972 l 782 0 l 592 0 l 592 803 z "},"М":{"ha":1111,"x_min":83,"x_max":1028,"o":"m 838 504 l 858 697 l 850 697 l 790 542 l 583 179 l 522 179 l 304 543 l 243 697 l 236 697 l 264 506 l 264 0 l 83 0 l 83 972 l 257 972 l 517 528 l 563 417 l 568 417 l 610 531 l 856 972 l 1028 972 l 1028 0 l 838 0 l 838 504 z "},"Н":{"ha":904,"x_min":83,"x_max":819,"o":"m 629 407 l 274 407 l 274 0 l 83 0 l 83 972 l 274 972 l 274 576 l 629 576 l 629 972 l 819 972 l 819 0 l 629 0 l 629 407 z "},"О":{"ha":931,"x_min":53,"x_max":878,"o":"m 53 486 q 160 860 53 729 q 465 992 267 992 q 647 956 569 992 q 776 853 725 919 q 853 693 828 786 q 878 486 878 600 q 770 112 878 243 q 465 -19 663 -19 q 282 17 360 -19 q 153 119 204 53 q 78 279 103 186 q 53 486 53 372 m 253 486 q 265 351 253 413 q 303 244 278 289 q 369 175 329 200 q 465 150 410 150 q 622 229 567 150 q 678 486 678 308 q 666 618 678 557 q 629 725 654 679 q 564 797 604 771 q 465 822 524 822 q 308 741 364 822 q 253 486 253 660 z "},"П":{"ha":888,"x_min":83,"x_max":804,"o":"m 614 803 l 274 803 l 274 0 l 83 0 l 83 972 l 804 972 l 804 0 l 614 0 l 614 803 z "},"Р":{"ha":794,"x_min":83,"x_max":760,"o":"m 83 963 q 212 980 142 974 q 351 986 282 986 q 497 974 424 986 q 628 927 569 963 q 723 828 686 892 q 760 664 760 765 q 728 509 760 572 q 643 406 696 446 q 523 347 590 365 q 383 329 456 329 q 361 329 376 329 q 329 330 346 329 q 297 332 313 331 q 274 335 281 333 l 274 0 l 83 0 l 83 963 m 367 822 q 314 820 339 822 q 274 815 289 818 l 274 500 q 290 497 279 499 q 314 495 301 496 q 338 494 326 494 q 356 494 350 494 q 430 501 393 494 q 496 527 467 508 q 542 579 525 546 q 560 667 560 613 q 543 742 560 713 q 499 790 526 772 q 438 815 472 808 q 367 822 403 822 z "},"С":{"ha":776,"x_min":53,"x_max":742,"o":"m 742 40 q 628 -6 697 8 q 488 -19 560 -19 q 322 8 400 -19 q 183 95 243 35 q 88 252 124 156 q 53 486 53 349 q 92 726 53 629 q 195 881 132 822 q 336 966 258 940 q 492 992 414 992 q 633 981 575 992 q 728 954 690 969 l 690 793 q 615 815 658 808 q 508 822 571 822 q 323 740 393 822 q 253 486 253 658 q 269 349 253 411 q 320 244 286 288 q 405 176 354 200 q 522 151 456 151 q 628 164 585 151 q 703 196 671 176 l 742 40 z "},"Т":{"ha":789,"x_min":15,"x_max":774,"o":"m 774 803 l 490 803 l 490 0 l 300 0 l 300 803 l 15 803 l 15 972 l 774 972 l 774 803 z "},"У":{"ha":789,"x_min":-12,"x_max":808,"o":"m 408 543 l 436 417 l 444 417 l 467 547 l 613 972 l 808 972 l 550 300 q 491 163 519 221 q 430 66 463 104 q 357 9 397 28 q 263 -10 317 -10 q 188 -3 217 -10 q 126 24 160 3 l 175 178 q 218 163 199 165 q 260 160 238 160 q 351 263 325 160 l -12 972 l 211 972 l 408 543 z "},"Ф":{"ha":1114,"x_min":36,"x_max":1079,"o":"m 464 106 q 410 100 438 101 q 350 99 382 99 q 226 122 283 99 q 127 192 169 144 q 60 313 85 240 q 36 486 36 386 q 60 655 36 581 q 130 781 85 729 q 238 861 175 833 q 376 889 300 889 q 421 888 394 889 q 464 882 447 886 l 464 1000 l 650 1000 l 650 878 q 710 887 676 885 q 765 889 744 889 q 890 865 833 889 q 990 791 947 840 q 1056 669 1032 742 q 1078 500 1079 596 q 1053 326 1079 401 q 981 201 1026 251 q 874 124 935 150 q 744 99 814 99 q 697 101 722 99 q 650 108 671 103 l 650 -28 l 464 -28 l 464 106 m 721 736 q 683 733 707 735 q 643 728 660 732 l 643 256 q 673 253 656 253 q 706 251 690 253 q 778 267 744 253 q 836 311 811 281 q 875 388 861 342 q 888 499 889 433 q 844 672 889 610 q 721 736 800 735 m 399 253 q 433 253 410 253 q 471 260 456 254 l 471 731 q 439 734 457 733 q 406 735 421 735 q 278 676 329 735 q 226 488 226 617 q 274 314 226 375 q 399 253 321 253 z "},"Х":{"ha":879,"x_min":14,"x_max":864,"o":"m 313 494 l 42 972 l 271 972 l 421 692 l 454 593 l 486 692 l 643 972 l 850 972 l 569 504 l 864 0 l 638 0 l 467 300 l 429 403 l 393 300 l 221 0 l 14 0 l 313 494 z "},"Ц":{"ha":947,"x_min":83,"x_max":924,"o":"m 924 -174 l 789 -174 l 768 0 l 83 0 l 83 972 l 274 972 l 274 169 l 608 169 l 608 972 l 799 972 l 799 169 l 924 169 l 924 -174 z "},"Ч":{"ha":842,"x_min":64,"x_max":758,"o":"m 254 972 l 254 664 q 287 540 254 581 q 394 499 319 499 q 494 510 447 499 q 568 546 540 522 l 568 972 l 758 972 l 758 0 l 568 0 l 568 392 q 472 353 532 371 q 328 336 411 336 q 222 351 269 336 q 138 398 174 365 q 83 481 103 431 q 64 604 64 532 l 64 972 l 254 972 z "},"Ш":{"ha":1196,"x_min":83,"x_max":1113,"o":"m 83 0 l 83 972 l 274 972 l 274 169 l 503 169 l 503 972 l 693 972 l 693 169 l 922 169 l 922 972 l 1113 972 l 1113 0 l 83 0 z "},"Щ":{"ha":1265,"x_min":83,"x_max":1240,"o":"m 83 0 l 83 972 l 274 972 l 274 169 l 503 169 l 503 972 l 693 972 l 693 169 l 922 169 l 922 972 l 1113 972 l 1113 169 l 1240 169 l 1240 -174 l 1107 -174 l 1086 0 l 83 0 z "},"Ъ":{"ha":922,"x_min":-6,"x_max":890,"o":"m 215 803 l -6 803 l -6 972 l 406 972 l 406 624 q 428 627 413 625 q 463 631 444 629 q 502 633 482 632 q 539 635 522 635 q 670 621 607 635 q 783 572 733 607 q 861 476 832 536 q 890 322 890 415 q 788 71 890 156 q 490 -14 685 -14 q 438 -13 471 -14 q 366 -10 404 -12 q 288 -3 328 -7 q 215 10 249 1 l 215 803 m 500 156 q 574 163 539 156 q 635 190 608 171 q 676 239 661 208 q 690 314 690 269 q 674 391 690 361 q 633 438 658 421 q 572 460 607 454 q 500 465 538 465 q 476 464 490 465 q 449 461 463 463 q 423 458 435 460 q 406 454 411 456 l 406 164 q 447 158 421 160 q 500 156 472 156 z "},"Ы":{"ha":1108,"x_min":83,"x_max":1024,"o":"m 833 972 l 1024 972 l 1024 0 l 833 0 l 833 972 m 83 972 l 274 972 l 274 624 q 322 631 289 626 q 388 635 356 635 q 520 621 457 635 q 631 572 583 607 q 706 476 678 536 q 733 324 733 415 q 635 70 733 154 q 342 -14 536 -14 q 292 -13 322 -14 q 226 -10 261 -12 q 153 -3 190 -7 q 83 10 115 1 l 83 972 m 356 156 q 484 192 435 156 q 533 315 533 229 q 519 390 533 361 q 482 436 506 419 q 426 459 458 453 q 357 465 394 465 q 311 462 338 465 q 274 454 285 458 l 274 164 q 310 158 289 160 q 356 156 332 156 z "},"Ь":{"ha":790,"x_min":83,"x_max":758,"o":"m 83 972 l 274 972 l 274 624 q 297 627 281 625 q 331 631 313 629 q 369 633 350 632 q 406 635 389 635 q 538 621 474 635 q 651 572 601 607 q 729 476 700 536 q 758 322 758 415 q 655 71 758 156 q 358 -14 551 -14 q 306 -13 339 -14 q 235 -10 274 -12 q 156 -3 196 -7 q 83 10 117 1 l 83 972 m 368 156 q 442 163 407 156 q 503 190 476 171 q 544 239 529 208 q 558 314 558 269 q 542 391 558 361 q 501 438 526 421 q 440 460 475 454 q 368 465 406 465 q 344 464 358 465 q 317 461 331 463 q 291 458 303 460 q 274 454 279 456 l 274 164 q 315 158 289 160 q 368 156 340 156 z "},"Э":{"ha":797,"x_min":28,"x_max":744,"o":"m 181 569 l 554 569 q 531 672 550 625 q 481 751 513 718 q 401 803 449 785 q 294 822 354 822 q 164 806 219 822 q 74 771 108 790 l 33 932 q 156 974 82 957 q 301 992 229 992 q 478 965 397 992 q 619 878 560 939 q 711 722 678 818 q 744 486 744 625 q 706 244 744 342 q 601 89 667 147 q 451 6 536 31 q 275 -19 367 -19 q 131 -6 196 -19 q 28 26 67 8 l 78 192 q 164 163 110 176 q 289 150 218 150 q 389 165 343 150 q 470 213 435 181 q 528 296 506 246 q 556 417 550 346 l 181 417 l 181 569 z "},"Ю":{"ha":1246,"x_min":83,"x_max":1193,"o":"m 274 576 l 403 576 q 519 883 421 775 q 796 992 618 992 q 976 956 901 992 q 1099 853 1051 919 q 1170 693 1147 786 q 1193 486 1193 600 q 1093 112 1193 243 q 796 -19 993 -19 q 634 11 704 -19 q 515 97 564 42 q 439 232 467 153 q 403 407 411 311 l 274 407 l 274 0 l 83 0 l 83 972 l 274 972 l 274 576 m 597 486 q 608 351 597 413 q 641 244 618 289 q 702 175 664 200 q 796 150 740 150 q 945 229 897 150 q 993 486 993 308 q 984 618 993 557 q 953 725 975 679 q 892 797 931 771 q 796 822 854 822 q 647 741 696 822 q 597 486 597 660 z "},"Я":{"ha":806,"x_min":7,"x_max":721,"o":"m 721 0 l 531 0 l 531 385 l 431 358 l 228 0 l 7 0 l 207 324 l 290 383 q 207 417 246 394 q 139 476 168 440 q 93 562 110 513 q 76 674 76 611 q 107 821 76 761 q 192 917 138 881 q 321 970 246 954 q 483 986 396 986 q 538 985 507 986 q 601 981 568 983 q 665 974 633 978 q 721 963 696 969 l 721 0 m 460 817 q 389 810 422 817 q 331 786 356 803 q 291 740 306 769 q 276 665 276 711 q 290 592 276 622 q 329 544 304 563 q 388 517 354 525 q 460 508 421 508 l 531 508 l 531 810 q 499 815 515 813 q 460 817 483 817 z "},"а":{"ha":689,"x_min":32,"x_max":632,"o":"m 75 654 q 207 694 131 679 q 367 708 283 708 q 488 691 439 708 q 565 642 536 674 q 605 565 593 610 q 617 465 617 521 q 613 342 617 404 q 608 221 608 281 q 611 105 607 161 q 632 -1 615 49 l 485 -1 l 456 94 l 449 94 q 372 20 421 51 q 244 -11 322 -11 q 157 3 196 -11 q 90 45 118 18 q 47 109 63 72 q 32 192 32 146 q 60 299 32 256 q 142 370 89 343 q 270 408 196 397 q 436 414 344 418 q 425 526 446 492 q 332 560 404 560 q 217 549 278 560 q 118 519 157 538 l 75 654 m 304 138 q 390 162 358 138 q 438 214 422 186 l 438 304 q 355 306 394 308 q 285 293 315 303 q 236 265 254 283 q 218 219 218 247 q 241 159 218 181 q 304 138 264 138 z "},"б":{"ha":746,"x_min":46,"x_max":700,"o":"m 197 564 q 292 652 238 625 q 425 679 347 679 q 626 602 551 679 q 700 363 700 525 q 615 78 700 175 q 376 -19 531 -19 q 131 88 215 -19 q 46 421 46 194 q 60 625 46 540 q 99 768 74 710 q 160 861 125 826 q 240 916 196 896 q 333 944 283 936 q 439 958 383 953 q 563 976 511 965 q 639 1010 614 986 l 646 849 q 567 816 618 825 q 428 800 515 807 q 335 788 375 797 q 265 753 294 778 q 219 683 236 728 q 193 564 201 638 l 197 564 m 232 339 q 267 192 232 250 q 374 133 301 133 q 481 186 449 133 q 514 339 514 239 q 483 478 514 429 q 382 526 453 526 q 269 476 306 526 q 232 339 232 426 z "},"в":{"ha":701,"x_min":79,"x_max":653,"o":"m 79 693 q 197 701 128 697 q 344 706 265 706 q 562 662 497 706 q 626 531 626 618 q 599 436 626 482 q 511 369 571 390 l 511 364 q 619 305 586 347 q 653 196 653 263 q 573 40 653 92 q 317 -11 493 -11 q 193 -8 258 -11 q 79 1 128 -4 l 79 693 m 256 139 q 292 135 275 136 q 333 133 308 133 q 440 154 408 133 q 472 218 472 175 q 445 277 472 254 q 349 300 418 300 l 256 300 l 256 139 m 351 411 q 424 433 396 411 q 453 488 453 454 q 428 542 453 524 q 340 561 404 561 q 290 560 308 561 q 256 557 271 558 l 256 411 l 351 411 z "},"г":{"ha":522,"x_min":79,"x_max":528,"o":"m 528 535 l 265 535 l 265 0 l 79 0 l 79 694 l 528 694 l 528 535 z "},"д":{"ha":789,"x_min":-3,"x_max":769,"o":"m 769 -158 l 638 -158 l 617 0 l 150 0 l 129 -158 l -3 -158 l -3 160 l 79 160 q 108 212 90 175 q 142 313 125 249 q 172 471 160 376 q 185 694 185 565 l 668 694 l 668 160 l 769 160 l 769 -158 m 488 151 l 488 542 l 342 542 q 332 435 339 492 q 315 326 325 379 q 290 228 304 274 q 260 151 276 182 l 488 151 z "},"е":{"ha":706,"x_min":46,"x_max":657,"o":"m 635 60 q 522 3 593 26 q 369 -19 450 -19 q 124 78 201 -19 q 46 347 46 176 q 133 622 46 531 q 379 714 221 714 q 482 700 432 714 q 571 654 532 686 q 633 568 610 622 q 657 433 657 514 q 653 371 657 404 q 643 301 650 338 l 226 301 q 272 169 231 214 q 404 125 313 125 q 506 142 461 125 q 575 178 551 160 l 635 60 m 376 569 q 272 527 306 569 q 231 414 238 485 l 489 414 q 466 529 494 489 q 376 569 438 569 z "},"ж":{"ha":963,"x_min":-8,"x_max":969,"o":"m 336 282 l 194 0 l -8 0 l 174 318 l 221 360 l 150 413 l 7 694 l 200 694 l 329 413 l 389 413 l 389 694 l 561 694 l 561 399 l 614 418 l 744 694 l 936 694 l 785 413 l 731 368 l 801 313 l 969 0 l 763 0 l 621 288 l 561 288 l 561 0 l 389 0 l 389 301 l 336 282 z "},"з":{"ha":600,"x_min":31,"x_max":554,"o":"m 151 288 l 151 414 l 236 414 q 316 433 285 414 q 347 485 347 453 q 319 538 347 522 q 235 554 292 554 q 139 540 181 554 q 72 511 97 526 l 33 649 q 144 690 75 672 q 290 707 213 707 q 469 663 410 707 q 528 533 528 618 q 522 485 528 510 q 501 439 515 461 q 467 399 488 417 q 419 372 447 382 l 419 367 q 524 308 493 350 q 554 194 554 265 q 536 112 554 150 q 481 46 518 74 q 389 1 444 18 q 257 -15 333 -15 q 124 1 181 -15 q 31 38 68 17 l 69 178 q 147 149 101 160 q 247 138 192 138 q 374 218 374 138 q 341 271 374 254 q 219 288 308 288 l 151 288 z "},"и":{"ha":757,"x_min":79,"x_max":678,"o":"m 497 317 l 504 415 l 500 415 l 440 314 l 193 0 l 79 0 l 79 694 l 260 694 l 260 364 l 251 269 l 257 269 l 314 368 l 564 694 l 678 694 l 678 0 l 497 0 l 497 317 z "},"й":{"ha":757,"x_min":79,"x_max":678,"o":"m 497 317 l 504 415 l 500 415 l 440 314 l 193 0 l 79 0 l 79 694 l 260 694 l 260 364 l 251 269 l 257 269 l 314 368 l 564 694 l 678 694 l 678 0 l 497 0 l 497 317 m 304 978 q 337 901 314 924 q 396 879 360 879 q 458 901 435 879 q 489 976 481 924 l 626 942 q 544 808 610 851 q 392 764 479 764 q 308 774 349 764 q 236 805 268 783 q 182 860 204 826 q 151 942 160 893 l 304 978 z "},"к":{"ha":679,"x_min":79,"x_max":685,"o":"m 308 288 l 260 288 l 260 0 l 79 0 l 79 694 l 260 694 l 260 399 l 303 418 l 465 694 l 658 694 l 490 431 l 419 378 l 497 324 l 685 0 l 478 0 l 308 288 z "},"л":{"ha":715,"x_min":-24,"x_max":638,"o":"m 457 535 l 319 535 q 300 339 311 436 q 265 165 289 242 q 199 40 240 88 q 90 -8 157 -8 q -24 13 10 -8 l -1 163 q 40 154 21 154 q 89 178 68 154 q 124 263 110 201 q 148 428 139 324 q 161 694 157 533 l 638 694 l 638 0 l 457 0 l 457 535 z "},"м":{"ha":925,"x_min":79,"x_max":847,"o":"m 674 318 l 685 463 l 678 463 l 622 343 l 492 128 l 426 128 l 283 343 l 231 463 l 222 463 l 240 319 l 240 0 l 79 0 l 79 694 l 267 694 l 426 433 l 465 346 l 471 346 l 511 436 l 658 694 l 847 694 l 847 0 l 674 0 l 674 318 z "},"н":{"ha":746,"x_min":79,"x_max":667,"o":"m 486 274 l 260 274 l 260 0 l 79 0 l 79 694 l 260 694 l 260 433 l 486 433 l 486 694 l 667 694 l 667 0 l 486 0 l 486 274 z "},"о":{"ha":746,"x_min":46,"x_max":700,"o":"m 46 347 q 132 619 46 524 q 374 714 218 714 q 518 688 457 714 q 619 613 579 661 q 680 497 660 565 q 700 347 700 429 q 615 76 700 171 q 374 -19 529 -19 q 229 7 290 -19 q 127 81 168 33 q 66 197 86 129 q 46 347 46 265 m 232 347 q 240 263 232 301 q 265 194 249 224 q 309 149 282 165 q 374 133 336 133 q 479 185 444 133 q 514 347 514 236 q 482 502 514 443 q 374 561 450 561 q 269 511 307 561 q 232 347 232 461 z "},"п":{"ha":739,"x_min":79,"x_max":660,"o":"m 479 535 l 260 535 l 260 0 l 79 0 l 79 694 l 660 694 l 660 0 l 479 0 l 479 535 z "},"р":{"ha":750,"x_min":79,"x_max":704,"o":"m 79 694 l 211 694 l 232 611 l 238 611 q 323 689 274 664 q 443 714 372 714 q 639 631 574 714 q 704 365 704 549 q 683 205 704 276 q 622 83 663 133 q 522 7 581 33 q 386 -19 463 -19 q 315 -13 343 -19 q 260 7 288 -7 l 260 -278 l 79 -278 l 79 694 m 389 561 q 306 535 336 561 q 260 456 276 508 l 260 167 q 302 142 279 151 q 363 133 325 133 q 479 188 440 133 q 518 369 518 243 q 488 511 518 461 q 389 561 457 561 z "},"с":{"ha":601,"x_min":46,"x_max":571,"o":"m 571 43 q 470 -3 529 13 q 349 -19 411 -19 q 208 7 265 -19 q 114 81 150 33 q 62 197 78 129 q 46 347 46 265 q 125 619 46 524 q 356 714 204 714 q 478 701 432 714 q 563 669 525 689 l 519 522 q 456 546 488 538 q 385 554 425 554 q 271 505 310 554 q 232 347 232 456 q 242 265 232 303 q 271 200 251 228 q 322 156 290 172 q 394 140 353 140 q 472 152 440 140 q 529 181 504 164 l 571 43 z "},"т":{"ha":581,"x_min":1,"x_max":579,"o":"m 579 535 l 383 535 l 383 0 l 197 0 l 197 535 l 1 535 l 1 694 l 579 694 l 579 535 z "},"у":{"ha":664,"x_min":-12,"x_max":675,"o":"m 332 304 l 357 196 l 365 196 l 383 306 l 489 694 l 675 694 l 464 68 q 413 -74 438 -10 q 360 -186 389 -139 q 295 -259 331 -233 q 211 -285 260 -285 q 96 -261 139 -285 l 129 -117 q 171 -125 150 -125 q 233 -98 203 -125 q 278 0 263 -71 l -12 694 l 204 694 l 332 304 z "},"ф":{"ha":972,"x_min":39,"x_max":933,"o":"m 397 -8 q 348 -18 374 -17 q 301 -19 322 -19 q 107 71 175 -19 q 39 347 39 161 q 114 617 39 525 q 331 708 189 708 q 397 703 369 708 l 397 972 l 575 972 l 575 701 q 619 707 600 706 q 657 708 639 708 q 864 627 794 708 q 933 361 933 546 q 915 203 933 274 q 860 83 896 133 q 772 7 824 33 q 651 -19 719 -19 q 615 -17 639 -19 q 575 -10 590 -15 l 575 -278 l 397 -278 l 397 -8 m 617 565 q 592 563 603 565 q 567 558 582 561 l 567 128 q 592 124 578 125 q 624 124 607 124 q 722 178 690 124 q 753 361 753 233 q 722 517 753 469 q 617 565 692 565 m 349 124 q 377 126 364 124 q 406 131 390 128 l 406 560 q 351 565 379 565 q 253 516 288 565 q 219 347 219 467 q 251 181 219 239 q 349 124 282 124 z "},"х":{"ha":729,"x_min":11,"x_max":718,"o":"m 236 356 l 28 694 l 243 694 l 333 546 l 372 449 l 414 546 l 508 694 l 704 694 l 494 361 l 718 0 l 508 0 l 401 167 l 360 269 l 315 167 l 208 0 l 11 0 l 236 356 z "},"ц":{"ha":776,"x_min":79,"x_max":757,"o":"m 757 -158 l 625 -158 l 604 0 l 79 0 l 79 694 l 260 694 l 260 160 l 475 160 l 475 694 l 656 694 l 656 160 l 757 160 l 757 -158 z "},"ч":{"ha":701,"x_min":46,"x_max":622,"o":"m 226 694 l 226 536 q 230 462 226 493 q 244 410 233 431 q 273 381 254 390 q 322 371 292 371 q 392 381 363 371 q 442 404 422 390 l 442 694 l 622 694 l 622 0 l 442 0 l 442 272 q 378 238 421 257 q 263 219 335 219 q 171 231 211 219 q 103 269 131 242 q 60 343 75 297 q 46 458 46 389 l 46 694 l 226 694 z "},"ш":{"ha":1047,"x_min":79,"x_max":968,"o":"m 79 0 l 79 694 l 260 694 l 260 160 l 433 160 l 433 694 l 614 694 l 614 160 l 788 160 l 788 694 l 968 694 l 968 0 l 79 0 z "},"щ":{"ha":1088,"x_min":79,"x_max":1068,"o":"m 1068 -158 l 938 -158 l 917 0 l 79 0 l 79 694 l 260 694 l 260 160 l 433 160 l 433 694 l 614 694 l 614 160 l 788 160 l 788 694 l 968 694 l 968 160 l 1068 160 l 1068 -158 z "},"ъ":{"ha":749,"x_min":-7,"x_max":719,"o":"m 326 151 q 406 143 365 143 q 503 166 472 143 q 533 238 533 189 q 410 328 533 328 q 326 318 361 328 l 326 151 m 326 447 q 394 455 360 453 q 457 457 429 457 q 579 441 529 457 q 660 396 629 425 q 706 327 692 367 q 719 242 719 288 q 644 53 719 115 q 390 -10 568 -10 q 253 -7 311 -10 q 146 0 194 -4 l 146 535 l -7 535 l -7 694 l 326 694 l 326 447 z "},"ы":{"ha":976,"x_min":79,"x_max":897,"o":"m 260 151 q 339 143 301 143 q 426 166 401 143 q 451 238 451 189 q 426 305 451 282 q 343 328 401 328 q 260 318 297 328 l 260 151 m 260 447 q 327 455 293 453 q 389 457 361 457 q 507 441 460 457 q 583 396 554 425 q 625 327 613 367 q 638 242 638 288 q 621 132 638 179 q 567 53 604 85 q 469 6 529 22 q 322 -10 410 -10 q 185 -7 243 -10 q 79 0 128 -4 l 79 694 l 260 694 l 260 447 m 717 694 l 897 694 l 897 0 l 717 0 l 717 694 z "},"ь":{"ha":681,"x_min":79,"x_max":651,"o":"m 260 151 q 339 143 301 143 q 435 166 406 143 q 465 238 465 189 q 343 328 465 328 q 260 318 297 328 l 260 151 m 260 447 q 327 455 293 453 q 389 457 361 457 q 511 441 461 457 q 592 396 561 425 q 638 327 624 367 q 651 242 651 288 q 576 53 651 115 q 322 -10 501 -10 q 185 -7 243 -10 q 79 0 128 -4 l 79 694 l 260 694 l 260 447 z "},"э":{"ha":638,"x_min":32,"x_max":592,"o":"m 151 417 l 410 417 q 364 524 403 486 q 249 561 325 561 q 156 549 196 561 q 85 519 115 536 l 36 650 q 283 714 128 714 q 515 622 439 714 q 592 347 592 529 q 506 72 592 164 q 269 -19 419 -19 q 138 -6 204 -19 q 32 31 71 7 l 76 172 q 152 144 108 154 q 240 133 196 133 q 367 171 329 133 q 411 288 404 208 l 151 288 l 151 417 z "},"ю":{"ha":1019,"x_min":79,"x_max":972,"o":"m 667 -19 q 534 1 589 -19 q 444 61 479 22 q 390 156 408 100 q 365 281 371 211 l 260 281 l 260 0 l 79 0 l 79 694 l 260 694 l 260 433 l 367 433 q 452 641 381 568 q 669 714 524 714 q 806 688 749 714 q 900 613 863 661 q 955 497 938 565 q 972 347 972 429 q 897 76 972 171 q 667 -19 822 -19 m 538 347 q 566 190 538 246 q 667 133 594 133 q 758 181 731 133 q 786 347 786 228 q 760 508 786 454 q 663 561 733 561 q 568 513 599 561 q 538 347 538 464 z "},"я":{"ha":699,"x_min":14,"x_max":626,"o":"m 446 263 l 363 246 l 229 0 l 14 0 l 149 218 l 217 269 q 104 334 149 281 q 60 468 60 388 q 144 654 60 594 q 401 714 228 714 q 526 707 468 714 q 626 692 583 700 l 626 0 l 446 0 l 446 263 m 446 357 l 446 549 q 413 558 431 556 q 378 561 394 561 q 281 535 315 561 q 246 456 246 508 q 284 378 246 403 q 396 354 322 353 l 446 357 z "},"ё":{"ha":706,"x_min":46,"x_max":657,"o":"m 635 60 q 522 3 593 26 q 369 -19 450 -19 q 124 78 201 -19 q 46 347 46 176 q 133 622 46 531 q 379 714 221 714 q 482 700 432 714 q 571 654 532 686 q 633 568 610 622 q 657 433 657 514 q 653 371 657 404 q 643 301 650 338 l 226 301 q 272 169 231 214 q 404 125 313 125 q 506 142 461 125 q 575 178 551 160 l 635 60 m 376 569 q 272 527 306 569 q 231 414 238 485 l 489 414 q 466 529 494 489 q 376 569 438 569 m 118 878 q 145 949 118 922 q 217 975 172 975 q 287 949 261 975 q 313 878 313 922 q 287 810 313 836 q 217 783 261 783 q 145 810 172 783 q 118 878 118 836 m 422 878 q 448 949 422 922 q 518 975 474 975 q 590 949 563 975 q 617 878 617 922 q 590 810 617 836 q 518 783 563 783 q 448 810 474 783 q 422 878 422 836 z "},"ђ":{"ha":764,"x_min":-17,"x_max":692,"o":"m -17 833 l 86 833 l 86 972 l 267 972 l 267 833 l 490 833 l 490 722 l 267 722 l 267 542 l 272 542 q 354 613 304 586 q 479 639 404 639 q 572 625 532 639 q 639 579 613 611 q 678 492 665 547 q 692 357 692 438 l 692 -29 q 642 -222 692 -156 q 482 -289 592 -289 q 393 -279 440 -289 l 393 -128 q 403 -128 399 -128 q 414 -129 408 -129 q 492 -95 474 -129 q 511 0 511 -61 l 511 319 q 488 442 511 404 q 403 479 465 479 q 317 449 357 479 q 267 369 278 418 l 267 0 l 86 0 l 86 722 l -17 722 l -17 833 z "},"ѓ":{"ha":522,"x_min":79,"x_max":528,"o":"m 528 535 l 265 535 l 265 0 l 79 0 l 79 694 l 528 694 l 528 535 m 301 1000 l 485 1000 l 485 958 l 331 786 l 228 786 l 301 1000 z "},"є":{"ha":635,"x_min":51,"x_max":604,"o":"m 604 43 q 500 -3 563 13 q 375 -19 438 -19 q 231 7 292 -19 q 130 81 169 33 q 71 197 90 129 q 51 347 51 265 q 75 503 51 435 q 142 618 99 571 q 246 690 185 665 q 382 714 307 714 q 507 701 457 714 q 594 669 557 689 l 553 522 q 485 546 521 538 q 410 554 450 554 q 298 521 344 554 q 238 413 251 488 l 510 413 l 510 290 l 236 290 q 294 182 249 224 q 419 140 339 140 q 501 152 467 140 q 563 181 536 164 l 604 43 z "},"ѕ":{"ha":586,"x_min":35,"x_max":547,"o":"m 367 192 q 343 236 367 219 q 285 267 319 253 q 208 295 250 281 q 132 335 167 310 q 74 401 97 361 q 50 503 50 440 q 111 660 50 606 q 288 714 172 714 q 431 697 367 714 q 531 660 494 681 l 490 529 q 410 556 458 542 q 311 569 361 569 q 231 507 231 569 q 254 467 231 482 q 313 438 278 451 q 389 410 347 425 q 465 370 431 394 q 524 307 500 346 q 547 207 547 268 q 480 41 547 101 q 278 -19 413 -19 q 140 -1 204 -19 q 35 43 75 18 l 85 178 q 169 142 117 160 q 278 125 222 125 q 342 140 318 125 q 367 192 367 156 z "},"і":{"ha":374,"x_min":72,"x_max":303,"o":"m 94 694 l 275 694 l 275 0 l 94 0 l 94 694 m 72 890 q 102 959 72 931 q 185 988 132 988 q 270 959 238 988 q 303 890 303 931 q 270 823 303 850 q 185 796 238 796 q 102 823 132 796 q 72 890 72 850 z "},"ї":{"ha":442,"x_min":29,"x_max":414,"o":"m 29 892 q 51 962 29 935 q 117 989 72 989 q 183 962 161 989 q 204 892 204 935 q 183 823 204 850 q 117 796 161 796 q 51 823 72 796 q 29 892 29 850 m 239 892 q 260 962 239 935 q 326 989 282 989 q 392 962 371 989 q 414 892 414 935 q 392 823 414 850 q 326 796 371 796 q 260 823 282 796 q 239 892 239 850 m 129 694 l 310 694 l 310 0 l 129 0 l 129 694 z "},"ј":{"ha":372,"x_min":-22,"x_max":301,"o":"m 96 694 l 276 694 l 276 -29 q 226 -222 276 -156 q 67 -289 176 -289 q -22 -279 25 -289 l -22 -128 q -12 -128 -17 -128 q -4 -129 -8 -129 q 77 -89 58 -129 q 96 22 96 -49 l 96 694 m 71 890 q 101 959 71 931 q 183 988 131 988 q 269 959 236 988 q 301 890 301 931 q 269 823 301 850 q 183 796 236 796 q 101 823 131 796 q 71 890 71 850 z "},"љ":{"ha":1058,"x_min":-24,"x_max":1029,"o":"m 638 447 q 705 455 671 453 q 767 457 739 457 q 889 441 839 457 q 970 396 939 425 q 1015 327 1001 367 q 1029 242 1029 288 q 954 53 1029 115 q 700 -10 879 -10 q 563 -7 621 -10 q 457 0 506 -4 l 457 535 l 319 535 q 300 339 311 436 q 265 165 289 242 q 199 40 240 88 q 90 -8 157 -8 q -24 13 10 -8 l -1 163 q 40 154 21 154 q 89 178 68 154 q 124 263 110 201 q 148 428 139 324 q 161 694 157 533 l 638 694 l 638 447 m 721 328 q 638 318 672 328 l 638 150 q 677 144 657 146 q 717 143 697 143 q 813 166 783 143 q 843 238 843 189 q 721 328 843 328 z "},"њ":{"ha":1089,"x_min":79,"x_max":1060,"o":"m 667 446 q 735 453 700 451 q 797 456 769 456 q 919 440 869 456 q 1001 394 969 424 q 1046 326 1032 365 q 1060 242 1060 288 q 984 53 1060 115 q 731 -10 908 -10 q 593 -7 651 -10 q 486 0 535 -4 l 486 276 l 260 276 l 260 0 l 79 0 l 79 694 l 260 694 l 260 436 l 486 436 l 486 694 l 667 694 l 667 446 m 667 151 q 746 143 706 143 q 843 166 813 143 q 874 238 874 189 q 750 326 874 326 q 667 317 701 326 l 667 151 z "},"ћ":{"ha":764,"x_min":-17,"x_max":692,"o":"m -17 833 l 86 833 l 86 972 l 267 972 l 267 833 l 490 833 l 490 722 l 267 722 l 267 542 l 272 542 q 354 613 304 586 q 479 639 404 639 q 572 625 532 639 q 639 579 613 611 q 678 492 665 547 q 692 357 692 438 l 692 0 l 511 0 l 511 319 q 488 442 511 404 q 403 479 465 479 q 317 449 357 479 q 267 369 278 418 l 267 0 l 86 0 l 86 722 l -17 722 l -17 833 z "},"ќ":{"ha":679,"x_min":79,"x_max":685,"o":"m 308 288 l 260 288 l 260 0 l 79 0 l 79 694 l 260 694 l 260 399 l 303 418 l 465 694 l 658 694 l 490 431 l 419 378 l 497 324 l 685 0 l 478 0 l 308 288 m 339 1000 l 522 1000 l 522 958 l 368 786 l 265 786 l 339 1000 z "},"ў":{"ha":664,"x_min":-12,"x_max":675,"o":"m 332 304 l 357 196 l 365 196 l 383 306 l 489 694 l 675 694 l 464 68 q 413 -74 438 -10 q 360 -186 389 -139 q 295 -259 331 -233 q 211 -285 260 -285 q 96 -261 139 -285 l 129 -117 q 171 -125 150 -125 q 233 -98 203 -125 q 278 0 263 -71 l -12 694 l 204 694 l 332 304 m 257 978 q 290 901 267 924 q 349 879 313 879 q 410 901 388 879 q 442 976 433 924 l 579 942 q 497 808 563 851 q 344 764 432 764 q 261 774 301 764 q 189 805 221 783 q 135 860 157 826 q 104 942 113 893 l 257 978 z "},"џ":{"ha":739,"x_min":79,"x_max":660,"o":"m 79 0 l 79 694 l 260 694 l 260 160 l 479 160 l 479 694 l 660 694 l 660 0 l 454 0 l 433 -243 l 311 -243 l 283 0 l 79 0 z "},"Ѣ":{"ha":904,"x_min":0,"x_max":872,"o":"m 0 900 l 197 900 l 197 1007 l 388 1007 l 388 900 l 665 900 l 665 740 l 388 740 l 388 615 q 410 619 394 617 q 445 622 426 621 q 483 625 464 624 q 519 626 503 626 q 651 613 588 626 q 765 565 715 600 q 843 472 814 531 q 872 322 872 414 q 769 71 872 156 q 472 -14 665 -14 q 420 -13 453 -14 q 349 -10 388 -12 q 270 -3 310 -7 q 197 10 231 1 l 197 740 l 0 740 l 0 900 m 482 156 q 556 163 521 156 q 617 190 590 171 q 658 239 643 208 q 672 314 672 269 q 656 391 672 361 q 615 438 640 421 q 554 460 589 454 q 482 465 519 465 q 458 464 472 465 q 431 461 444 463 q 405 458 417 460 q 388 454 393 456 l 388 164 q 428 158 403 160 q 482 156 454 156 z "},"ѣ":{"ha":749,"x_min":-7,"x_max":719,"o":"m -7 694 l 146 694 l 146 972 l 326 972 l 326 694 l 549 694 l 549 565 l 326 565 l 326 447 q 394 455 360 453 q 457 457 429 457 q 579 441 529 457 q 660 396 629 425 q 706 327 692 367 q 719 242 719 288 q 644 53 719 115 q 390 -10 568 -10 q 253 -7 311 -10 q 146 0 194 -4 l 146 565 l -7 565 l -7 694 m 326 151 q 406 143 365 143 q 503 166 472 143 q 533 238 533 189 q 410 328 533 328 q 326 318 361 328 l 326 151 z "},"Ѳ":{"ha":931,"x_min":53,"x_max":878,"o":"m 53 486 q 160 860 53 729 q 465 992 267 992 q 647 956 569 992 q 776 853 725 919 q 853 693 828 786 q 878 486 878 600 q 770 112 878 243 q 465 -19 663 -19 q 282 17 360 -19 q 153 119 204 53 q 78 279 103 186 q 53 486 53 372 m 678 565 q 611 756 667 689 q 465 822 556 822 q 389 808 425 822 q 324 764 353 794 q 277 684 296 733 q 253 565 258 635 l 678 565 m 253 413 q 321 215 264 281 q 465 150 378 150 q 542 163 506 150 q 608 206 579 176 q 655 286 636 236 q 678 413 674 336 l 253 413 z "},"ѳ":{"ha":746,"x_min":46,"x_max":700,"o":"m 46 347 q 132 619 46 524 q 374 714 218 714 q 518 688 457 714 q 619 613 579 661 q 680 497 660 565 q 700 347 700 429 q 615 76 700 171 q 374 -19 529 -19 q 229 7 290 -19 q 127 81 168 33 q 66 197 86 129 q 46 347 46 265 m 514 401 q 467 523 503 485 q 374 561 432 561 q 324 553 347 561 q 281 526 300 544 q 249 476 263 507 q 232 401 236 446 l 514 401 m 232 288 q 279 173 240 213 q 374 133 318 133 q 466 167 426 133 q 514 288 506 201 l 232 288 z "},"Ѵ":{"ha":874,"x_min":-18,"x_max":949,"o":"m 482 -7 l 346 -7 l -18 972 l 203 972 l 397 401 l 422 236 l 428 236 l 450 403 l 546 721 q 592 847 568 796 q 645 928 615 897 q 713 972 675 958 q 800 985 750 985 q 886 976 853 985 q 949 953 919 968 l 907 792 q 863 808 883 804 q 821 813 843 813 q 768 788 789 813 q 729 708 747 764 l 482 -7 z "},"ѵ":{"ha":732,"x_min":-10,"x_max":754,"o":"m 401 -7 l 292 -7 l -10 694 l 200 694 l 329 331 l 353 224 l 358 224 l 379 333 l 411 432 q 456 560 435 507 q 503 645 478 613 q 562 692 529 678 q 640 707 594 707 q 704 701 674 707 q 754 683 735 694 l 729 536 q 682 549 704 549 q 637 529 658 549 q 593 457 615 510 l 401 -7 z "},"Ҋ":{"ha":989,"x_min":83,"x_max":1003,"o":"m 650 539 l 661 665 l 654 665 l 589 535 l 226 0 l 83 0 l 83 972 l 274 972 l 274 443 l 260 313 l 268 313 l 336 447 l 699 972 l 840 972 l 840 160 l 1003 160 l 1003 117 l 869 -181 l 739 -181 l 801 0 l 650 0 l 650 539 m 361 1214 q 394 1150 367 1169 q 464 1131 421 1131 q 567 1213 557 1131 l 721 1189 q 641 1061 706 1101 q 463 1021 576 1021 q 358 1029 406 1021 q 276 1056 311 1038 q 217 1107 240 1075 q 189 1186 194 1139 l 361 1214 z "},"ҋ":{"ha":819,"x_min":79,"x_max":826,"o":"m 497 317 l 504 415 l 500 415 l 440 314 l 193 0 l 79 0 l 79 694 l 260 694 l 260 364 l 251 269 l 257 269 l 314 368 l 564 694 l 678 694 l 678 160 l 826 160 l 826 117 l 693 -158 l 563 -158 l 625 0 l 497 0 l 497 317 m 304 978 q 337 901 314 924 q 396 879 360 879 q 458 901 435 879 q 489 976 481 924 l 626 942 q 544 808 610 851 q 392 764 479 764 q 308 774 349 764 q 236 805 268 783 q 182 860 204 826 q 151 942 160 893 l 304 978 z "},"Ҍ":{"ha":904,"x_min":0,"x_max":872,"o":"m 0 900 l 197 900 l 197 1007 l 388 1007 l 388 900 l 665 900 l 665 740 l 388 740 l 388 615 q 410 619 394 617 q 445 622 426 621 q 483 625 464 624 q 519 626 503 626 q 651 613 588 626 q 765 565 715 600 q 843 472 814 531 q 872 322 872 414 q 769 71 872 156 q 472 -14 665 -14 q 420 -13 453 -14 q 349 -10 388 -12 q 270 -3 310 -7 q 197 10 231 1 l 197 740 l 0 740 l 0 900 m 482 156 q 556 163 521 156 q 617 190 590 171 q 658 239 643 208 q 672 314 672 269 q 656 391 672 361 q 615 438 640 421 q 554 460 589 454 q 482 465 519 465 q 458 464 472 465 q 431 461 444 463 q 405 458 417 460 q 388 454 393 456 l 388 164 q 428 158 403 160 q 482 156 454 156 z "},"ҍ":{"ha":749,"x_min":-7,"x_max":719,"o":"m -7 694 l 146 694 l 146 972 l 326 972 l 326 694 l 549 694 l 549 565 l 326 565 l 326 447 q 394 455 360 453 q 457 457 429 457 q 579 441 529 457 q 660 396 629 425 q 706 327 692 367 q 719 242 719 288 q 644 53 719 115 q 390 -10 568 -10 q 253 -7 311 -10 q 146 0 194 -4 l 146 565 l -7 565 l -7 694 m 326 151 q 406 143 365 143 q 503 166 472 143 q 533 238 533 189 q 410 328 533 328 q 326 318 361 328 l 326 151 z "},"Ҏ":{"ha":794,"x_min":83,"x_max":760,"o":"m 83 963 q 212 980 142 974 q 351 986 282 986 q 497 974 424 986 q 628 927 569 963 q 723 828 686 892 q 760 664 760 765 q 725 503 760 568 q 632 397 690 438 l 721 271 l 611 190 l 504 342 q 383 329 446 329 q 361 329 376 329 q 329 330 346 329 q 297 332 313 331 q 274 335 281 333 l 274 0 l 83 0 l 83 963 m 421 664 l 508 536 q 546 587 532 556 q 560 667 560 618 q 543 742 560 713 q 499 790 526 772 q 438 815 472 808 q 367 822 403 822 q 314 820 339 822 q 274 815 289 818 l 274 500 q 290 497 279 499 q 314 495 301 496 q 338 494 326 494 q 356 494 350 494 q 393 496 375 494 q 429 501 411 497 l 349 617 l 421 664 z "},"ҏ":{"ha":750,"x_min":79,"x_max":704,"o":"m 79 694 l 211 694 l 232 611 l 238 611 q 323 689 274 664 q 443 714 372 714 q 639 631 574 714 q 704 365 704 549 q 607 67 704 168 l 672 -11 l 571 -96 l 494 -3 q 442 -15 469 -10 q 386 -19 415 -19 q 315 -13 343 -19 q 260 7 288 -7 l 260 -278 l 79 -278 l 79 694 m 408 268 l 475 185 q 507 259 496 214 q 518 369 518 304 q 488 511 518 461 q 389 561 457 561 q 306 535 336 561 q 260 456 276 508 l 260 167 q 302 142 279 151 q 363 133 325 133 q 390 135 376 133 q 414 140 403 136 l 349 219 l 408 268 z "},"Ґ":{"ha":636,"x_min":83,"x_max":650,"o":"m 650 972 l 649 803 l 274 803 l 274 0 l 83 0 l 83 972 l 497 972 l 526 1183 l 649 1183 l 649 972 l 650 972 z "},"ґ":{"ha":522,"x_min":79,"x_max":528,"o":"m 265 535 l 265 0 l 79 0 l 79 694 l 378 694 l 407 906 l 528 906 l 528 535 l 265 535 z "},"Ғ":{"ha":706,"x_min":0,"x_max":699,"o":"m 699 803 l 324 803 l 324 538 l 635 538 l 635 408 l 324 408 l 324 0 l 133 0 l 133 408 l 0 408 l 0 538 l 133 538 l 133 972 l 699 972 l 699 803 z "},"ғ":{"ha":575,"x_min":0,"x_max":564,"o":"m 564 535 l 301 535 l 301 381 l 526 381 l 526 269 l 301 269 l 301 0 l 115 0 l 115 269 l 0 269 l 0 381 l 115 381 l 115 694 l 564 694 l 564 535 z "},"Ҕ":{"ha":808,"x_min":83,"x_max":758,"o":"m 274 0 l 83 0 l 83 972 l 649 972 l 649 803 l 274 803 l 274 521 q 342 540 296 529 q 456 551 389 551 q 568 535 514 551 q 665 480 622 519 q 733 372 707 440 q 758 197 758 303 q 679 -79 758 18 q 424 -176 600 -176 q 367 -175 386 -176 q 338 -171 349 -174 l 338 -7 q 370 -10 347 -10 q 415 -11 393 -11 q 522 38 486 -11 q 558 189 558 86 q 546 283 558 246 q 511 342 533 321 q 458 373 489 364 q 393 382 428 382 q 325 374 360 382 q 274 357 290 365 l 274 0 z "},"ҕ":{"ha":742,"x_min":79,"x_max":694,"o":"m 260 0 l 79 0 l 79 694 l 521 694 l 521 535 l 260 535 l 260 360 q 324 378 282 368 q 432 389 365 389 q 533 374 485 389 q 617 321 581 358 q 674 219 653 283 q 694 58 694 156 q 678 -96 694 -29 q 625 -207 663 -162 q 527 -274 588 -251 q 379 -296 467 -296 q 322 -294 340 -296 q 292 -289 303 -292 l 292 -133 q 326 -135 303 -135 q 371 -136 349 -136 q 507 47 507 -136 q 470 188 507 146 q 371 229 433 229 q 308 221 339 229 q 260 204 276 213 l 260 0 z "},"Җ":{"ha":1190,"x_min":-10,"x_max":1183,"o":"m 486 972 l 667 972 l 667 540 l 715 560 l 917 972 l 1131 972 l 904 546 l 839 499 l 918 440 l 1075 169 l 1183 169 l 1183 -174 l 1050 -174 l 1029 0 l 944 0 l 721 422 l 667 422 l 667 0 l 486 0 l 486 439 l 436 419 l 213 0 l -10 0 l 244 426 l 319 481 l 247 532 l 10 972 l 231 972 l 432 557 l 486 557 l 486 972 z "},"җ":{"ha":1010,"x_min":-8,"x_max":1000,"o":"m 336 282 l 194 0 l -8 0 l 174 318 l 221 360 l 150 413 l 7 694 l 200 694 l 329 413 l 389 413 l 389 694 l 561 694 l 561 399 l 614 418 l 744 694 l 936 694 l 785 413 l 731 368 l 801 313 l 883 160 l 1000 160 l 1000 -158 l 868 -158 l 847 0 l 763 0 l 621 288 l 561 288 l 561 0 l 389 0 l 389 301 l 336 282 z "},"Ҙ":{"ha":731,"x_min":25,"x_max":682,"o":"m 167 431 l 167 579 l 200 579 q 231 579 213 579 q 267 580 249 579 q 304 583 286 581 q 333 588 322 585 q 417 627 382 599 q 451 704 451 656 q 409 795 451 771 q 297 819 367 819 q 181 803 235 819 q 99 771 126 786 l 50 932 q 94 950 65 940 q 159 969 122 960 q 239 983 196 978 q 326 989 282 989 q 446 978 388 989 q 550 939 504 967 q 624 865 596 911 q 651 746 651 818 q 613 613 651 674 q 490 524 575 551 l 490 517 q 631 439 581 499 q 682 279 682 379 q 658 160 682 211 q 593 74 633 110 q 499 16 553 38 q 386 -14 446 -6 l 367 -243 l 244 -243 l 218 -15 q 106 4 156 -8 q 25 32 56 17 l 74 197 q 165 166 106 182 q 307 150 225 150 q 369 158 338 150 q 425 183 400 165 q 465 228 450 200 q 481 294 481 256 q 432 393 481 360 q 258 429 383 426 q 233 431 242 431 q 204 431 225 431 l 167 431 z "},"ҙ":{"ha":600,"x_min":31,"x_max":554,"o":"m 151 288 l 151 414 l 236 414 q 316 434 285 414 q 347 486 347 454 q 320 539 347 524 q 236 554 293 554 q 140 540 182 554 q 72 510 97 525 l 33 649 q 144 690 75 672 q 290 707 213 707 q 469 663 410 707 q 528 533 528 618 q 522 485 528 510 q 501 439 515 461 q 467 399 488 417 q 419 372 447 382 l 419 367 q 524 308 493 350 q 554 194 554 265 q 507 69 554 124 q 360 -6 460 14 l 340 -243 l 218 -243 l 192 -11 q 99 8 139 -6 q 31 38 60 21 l 69 178 q 147 148 101 160 q 249 136 193 136 q 374 217 374 136 q 341 270 374 253 q 219 288 308 288 l 151 288 z "},"Қ":{"ha":882,"x_min":83,"x_max":872,"o":"m 324 415 l 274 415 l 274 0 l 83 0 l 83 972 l 274 972 l 274 542 l 318 561 l 586 972 l 803 972 l 519 564 l 444 511 l 522 457 l 725 169 l 872 169 l 872 -174 l 739 -174 l 718 0 l 611 0 l 324 415 z "},"қ":{"ha":732,"x_min":79,"x_max":721,"o":"m 308 288 l 260 288 l 260 0 l 79 0 l 79 694 l 260 694 l 260 399 l 303 418 l 465 694 l 658 694 l 490 431 l 419 378 l 497 324 l 592 160 l 721 160 l 721 -158 l 589 -158 l 568 0 l 478 0 l 308 288 z "},"Ҝ":{"ha":994,"x_min":83,"x_max":979,"o":"m 349 415 l 274 415 l 274 0 l 83 0 l 83 972 l 274 972 l 274 542 l 349 547 l 349 732 l 478 732 l 478 558 l 508 561 l 733 972 l 939 972 l 701 564 l 626 511 l 704 457 l 979 0 l 758 0 l 514 415 l 478 415 l 478 239 l 349 239 l 349 415 z "},"ҝ":{"ha":815,"x_min":79,"x_max":794,"o":"m 318 288 l 260 288 l 260 0 l 79 0 l 79 694 l 260 694 l 260 399 l 318 404 l 318 571 l 424 571 l 424 415 l 454 418 l 582 694 l 771 694 l 638 431 l 564 378 l 642 324 l 794 0 l 594 0 l 460 288 l 424 288 l 424 124 l 318 124 l 318 288 z "},"Ҟ":{"ha":961,"x_min":0,"x_max":946,"o":"m 0 893 l 183 893 l 183 972 l 374 972 l 374 893 l 503 893 l 503 764 l 374 764 l 374 542 l 449 561 l 694 972 l 903 972 l 642 564 l 553 511 l 638 457 l 946 0 l 711 0 l 439 415 l 374 415 l 374 0 l 183 0 l 183 749 l 0 749 l 0 893 z "},"ҟ":{"ha":697,"x_min":-19,"x_max":700,"o":"m -19 869 l 94 869 l 94 972 l 275 972 l 275 869 l 488 869 l 488 758 l 275 758 l 275 399 l 317 418 l 475 694 l 674 694 l 507 431 l 436 378 l 513 324 l 700 0 l 493 0 l 324 288 l 275 288 l 275 0 l 94 0 l 94 758 l -19 758 l -19 869 z "},"Ҡ":{"ha":999,"x_min":0,"x_max":983,"o":"m 221 803 l 0 803 l 0 972 l 411 972 l 411 542 l 456 561 l 724 972 l 940 972 l 657 564 l 582 511 l 660 457 l 983 0 l 749 0 l 461 415 l 411 415 l 411 0 l 221 0 l 221 779 l 221 803 z "},"ҡ":{"ha":750,"x_min":-7,"x_max":751,"o":"m 326 399 l 371 418 l 532 694 l 726 694 l 558 431 l 486 378 l 565 324 l 751 0 l 544 0 l 376 288 l 326 288 l 326 0 l 146 0 l 146 535 l -7 535 l -7 694 l 326 694 l 326 399 z "},"Ң":{"ha":967,"x_min":83,"x_max":942,"o":"m 629 407 l 274 407 l 274 0 l 83 0 l 83 972 l 274 972 l 274 576 l 629 576 l 629 972 l 819 972 l 819 169 l 942 169 l 942 -174 l 808 -174 l 788 0 l 629 0 l 629 407 z "},"ң":{"ha":788,"x_min":79,"x_max":775,"o":"m 486 274 l 260 274 l 260 0 l 79 0 l 79 694 l 260 694 l 260 433 l 486 433 l 486 694 l 667 694 l 667 160 l 775 160 l 775 -158 l 643 -158 l 622 0 l 486 0 l 486 274 z "},"Ҥ":{"ha":1182,"x_min":83,"x_max":1194,"o":"m 1194 803 l 819 803 l 819 0 l 629 0 l 629 407 l 274 407 l 274 0 l 83 0 l 83 972 l 274 972 l 274 576 l 629 576 l 629 972 l 1194 972 l 1194 803 z "},"ҥ":{"ha":922,"x_min":79,"x_max":928,"o":"m 928 535 l 667 535 l 667 0 l 486 0 l 486 274 l 260 274 l 260 0 l 79 0 l 79 694 l 260 694 l 260 433 l 486 433 l 486 694 l 928 694 l 928 535 z "},"Ҧ":{"ha":1336,"x_min":83,"x_max":1289,"o":"m 804 317 l 804 0 l 614 0 l 614 803 l 274 803 l 274 0 l 83 0 l 83 972 l 804 972 l 804 521 q 873 540 826 529 q 986 551 919 551 q 1099 535 1044 551 q 1195 480 1153 519 q 1263 372 1238 440 q 1289 197 1289 303 q 1210 -79 1289 18 q 954 -176 1131 -176 q 898 -175 917 -176 q 868 -171 879 -174 l 868 -7 q 901 -10 878 -10 q 946 -11 924 -11 q 1053 38 1017 -11 q 1089 189 1089 86 q 1076 283 1089 246 q 1042 342 1064 321 q 989 373 1019 364 q 922 382 958 382 q 856 374 890 382 q 804 357 821 365 l 804 317 z "},"ҧ":{"ha":1142,"x_min":79,"x_max":1094,"o":"m 660 0 l 479 0 l 479 535 l 260 535 l 260 0 l 79 0 l 79 694 l 660 694 l 660 360 q 724 378 682 368 q 832 389 765 389 q 929 374 882 389 q 1013 321 976 358 q 1072 219 1050 283 q 1094 58 1094 156 q 1078 -96 1094 -29 q 1024 -207 1061 -162 q 927 -274 988 -251 q 779 -296 867 -296 q 722 -294 740 -296 q 692 -289 703 -292 l 692 -133 q 726 -135 703 -135 q 771 -136 749 -136 q 907 47 907 -136 q 870 188 907 146 q 771 229 833 229 q 707 221 739 229 q 658 204 675 213 l 660 0 z "},"Ҩ":{"ha":1217,"x_min":53,"x_max":1171,"o":"m 493 822 q 317 742 382 822 q 253 497 253 661 q 277 352 253 417 q 340 243 301 288 q 428 174 379 199 q 528 150 478 150 q 560 151 543 150 q 589 158 578 153 q 528 213 557 179 q 479 293 500 247 q 447 394 458 339 q 435 510 435 449 q 460 696 435 615 q 533 832 486 776 q 644 916 579 888 q 790 944 710 944 q 942 915 878 944 q 1049 832 1007 885 q 1110 708 1090 779 q 1131 553 1131 636 q 1113 409 1131 475 q 1066 292 1094 343 q 1003 205 1038 240 q 936 153 968 169 q 952 151 943 151 q 969 150 961 150 q 1049 162 1011 150 q 1113 192 1086 174 l 1171 43 q 1092 -3 1140 13 q 969 -19 1044 -19 q 913 -15 942 -19 q 855 -3 883 -11 q 802 18 826 6 q 760 47 778 31 q 658 -2 714 15 q 526 -19 601 -19 q 326 15 414 -19 q 178 115 239 50 q 85 274 117 181 q 53 486 53 368 q 165 860 53 729 q 493 992 276 992 l 493 822 m 635 515 q 644 430 635 474 q 672 346 653 386 q 717 272 690 306 q 779 213 743 238 q 839 269 811 235 q 887 345 867 303 q 919 438 907 388 q 931 544 931 489 q 924 634 931 592 q 900 708 917 676 q 856 757 883 739 q 789 775 829 775 q 676 711 718 775 q 635 515 635 647 z "},"ҩ":{"ha":985,"x_min":44,"x_max":961,"o":"m 378 561 q 265 506 300 556 q 231 353 231 457 q 244 263 231 303 q 282 193 258 222 q 339 149 306 164 q 411 133 372 133 q 439 136 422 133 q 465 146 456 139 q 400 233 428 174 q 372 372 372 293 q 386 483 372 426 q 433 587 400 540 q 519 664 465 633 q 653 694 574 694 q 781 671 729 694 q 865 608 833 647 q 910 516 896 568 q 924 406 924 464 q 911 315 924 358 q 879 236 899 272 q 835 173 860 200 q 785 131 810 146 q 854 126 815 118 q 919 158 893 133 l 961 35 q 894 -5 933 10 q 793 -19 854 -19 q 693 -3 736 -19 q 621 39 650 13 q 520 -6 576 7 q 403 -19 464 -19 q 250 7 317 -19 q 138 81 183 33 q 68 197 92 129 q 44 347 44 265 q 63 493 44 428 q 121 606 81 558 q 224 682 161 654 q 378 714 288 710 l 378 561 m 547 372 q 572 260 547 310 q 638 176 596 210 q 710 263 682 206 q 738 396 738 321 q 715 500 738 458 q 647 542 692 542 q 597 528 617 542 q 567 491 578 514 q 551 438 556 468 q 547 372 547 407 z "},"Ҫ":{"ha":776,"x_min":53,"x_max":742,"o":"m 742 40 q 660 3 708 17 q 560 -15 613 -10 l 540 -243 l 418 -243 l 392 -10 q 259 38 321 3 q 151 133 197 72 q 79 281 106 193 q 53 486 53 368 q 92 726 53 629 q 195 881 132 822 q 336 966 258 940 q 492 992 414 992 q 633 981 575 992 q 728 954 690 969 l 690 793 q 615 815 658 808 q 508 822 571 822 q 323 740 393 822 q 253 486 253 658 q 269 349 253 411 q 320 244 286 288 q 405 176 354 200 q 522 151 456 151 q 628 164 585 151 q 703 196 671 176 l 742 40 z "},"ҫ":{"ha":601,"x_min":46,"x_max":571,"o":"m 571 43 q 440 -10 518 6 l 421 -243 l 299 -243 l 272 -12 q 167 29 210 -1 q 97 106 124 60 q 58 214 69 153 q 46 347 46 275 q 125 619 46 524 q 356 714 204 714 q 478 701 432 714 q 563 669 525 689 l 519 522 q 456 546 488 538 q 385 554 425 554 q 271 505 310 554 q 232 347 232 456 q 242 265 232 303 q 271 200 251 228 q 322 156 290 172 q 394 140 353 140 q 472 152 440 140 q 529 181 504 164 l 571 43 z "},"Ҭ":{"ha":789,"x_min":15,"x_max":774,"o":"m 300 803 l 15 803 l 15 972 l 774 972 l 774 803 l 490 803 l 490 169 l 611 169 l 611 -174 l 478 -174 l 457 0 l 300 0 l 300 803 z "},"ҭ":{"ha":581,"x_min":1,"x_max":579,"o":"m 197 535 l 1 535 l 1 694 l 579 694 l 579 535 l 383 535 l 383 160 l 500 160 l 500 -158 l 368 -158 l 347 0 l 197 0 l 197 535 z "},"Ү":{"ha":822,"x_min":-3,"x_max":825,"o":"m 317 361 l -3 972 l 224 972 l 401 607 l 421 504 l 428 504 l 449 610 l 621 972 l 825 972 l 507 363 l 507 0 l 317 0 l 317 361 z "},"ү":{"ha":682,"x_min":-10,"x_max":692,"o":"m -10 694 l 200 694 l 329 282 l 354 153 l 360 153 l 379 285 l 497 694 l 692 694 l 440 -1 l 440 -278 l 260 -278 l 260 -1 l -10 694 z "},"Ұ":{"ha":822,"x_min":-3,"x_max":825,"o":"m 101 408 l 292 408 l -3 972 l 224 972 l 401 607 l 421 504 l 428 504 l 449 610 l 621 972 l 825 972 l 531 408 l 722 408 l 722 282 l 507 282 l 507 0 l 317 0 l 317 282 l 101 282 l 101 408 z "},"ұ":{"ha":682,"x_min":-10,"x_max":692,"o":"m 93 0 l 258 0 l -10 694 l 200 694 l 329 282 l 354 153 l 360 153 l 379 285 l 497 694 l 692 694 l 440 0 l 607 0 l 607 -111 l 440 -111 l 440 -278 l 260 -278 l 260 -111 l 93 -111 l 93 0 z "},"Ҳ":{"ha":926,"x_min":14,"x_max":917,"o":"m 313 494 l 42 972 l 271 972 l 421 692 l 454 593 l 486 692 l 643 972 l 850 972 l 569 504 l 764 169 l 917 169 l 917 -174 l 783 -174 l 763 0 l 638 0 l 467 300 l 429 403 l 393 300 l 221 0 l 14 0 l 313 494 z "},"ҳ":{"ha":753,"x_min":11,"x_max":743,"o":"m 236 356 l 28 694 l 243 694 l 333 546 l 372 449 l 414 546 l 508 694 l 704 694 l 494 361 l 619 160 l 743 160 l 743 -158 l 611 -158 l 590 0 l 508 0 l 401 167 l 360 269 l 315 167 l 208 0 l 11 0 l 236 356 z "},"Ҵ":{"ha":1164,"x_min":15,"x_max":1139,"o":"m 1139 -174 l 1004 -174 l 983 0 l 299 0 l 299 803 l 15 803 l 15 972 l 686 972 l 686 803 l 489 803 l 489 169 l 824 169 l 824 972 l 1014 972 l 1014 169 l 1139 169 l 1139 -174 z "},"ҵ":{"ha":899,"x_min":1,"x_max":876,"o":"m 876 -158 l 744 -158 l 724 0 l 197 0 l 197 535 l 1 535 l 1 694 l 524 694 l 524 535 l 378 535 l 378 160 l 594 160 l 594 694 l 775 694 l 775 160 l 876 160 l 876 -158 z "},"Ҷ":{"ha":904,"x_min":64,"x_max":879,"o":"m 568 392 q 472 353 532 371 q 328 336 411 336 q 222 351 269 336 q 138 398 174 365 q 83 481 103 431 q 64 604 64 532 l 64 972 l 254 972 l 254 664 q 287 540 254 581 q 394 499 319 499 q 494 510 447 499 q 568 546 540 522 l 568 972 l 758 972 l 758 169 l 879 169 l 879 -174 l 746 -174 l 725 0 l 568 0 l 568 392 z "},"ҷ":{"ha":758,"x_min":46,"x_max":739,"o":"m 226 694 l 226 536 q 230 462 226 493 q 244 410 233 431 q 273 381 254 390 q 322 371 292 371 q 392 381 363 371 q 442 404 422 390 l 442 694 l 622 694 l 622 160 l 739 160 l 739 -158 l 607 -158 l 586 0 l 442 0 l 442 272 q 378 238 421 257 q 263 219 335 219 q 171 231 211 219 q 103 269 131 242 q 60 343 75 297 q 46 458 46 389 l 46 694 l 226 694 z "},"Ҹ":{"ha":896,"x_min":64,"x_max":811,"o":"m 378 338 q 357 336 367 336 q 336 336 347 336 q 225 351 275 336 q 139 398 175 365 q 83 481 103 431 q 64 604 64 532 l 64 972 l 254 972 l 254 664 q 283 544 254 585 q 378 499 311 504 l 378 663 l 507 663 l 507 507 q 572 523 542 514 q 621 546 601 532 l 621 972 l 811 972 l 811 0 l 621 0 l 621 392 q 507 353 583 369 l 507 169 l 378 169 l 378 338 z "},"ҹ":{"ha":744,"x_min":44,"x_max":667,"o":"m 310 221 q 285 219 297 219 q 261 219 274 219 q 169 231 210 219 q 101 269 129 242 q 59 343 74 297 q 44 458 44 389 l 44 694 l 225 694 l 225 536 q 242 419 225 458 q 310 372 258 379 l 310 536 l 415 536 l 415 379 q 486 404 463 388 l 486 694 l 667 694 l 667 0 l 486 0 l 486 272 q 415 242 465 257 l 415 82 l 310 82 l 310 221 z "},"Һ":{"ha":842,"x_min":83,"x_max":778,"o":"m 588 0 l 588 308 q 555 433 588 392 q 447 474 522 474 q 348 462 394 474 q 274 426 301 450 l 274 0 l 83 0 l 83 972 l 274 972 l 274 581 q 370 619 310 601 q 514 636 431 636 q 620 622 572 636 q 703 574 668 607 q 758 491 739 542 q 778 368 778 440 l 778 0 l 588 0 z "},"һ":{"ha":757,"x_min":79,"x_max":685,"o":"m 504 0 l 504 394 q 481 517 504 479 q 394 554 457 554 q 310 523 349 554 q 260 443 272 492 l 260 0 l 79 0 l 79 972 l 260 972 l 260 617 l 265 617 q 347 688 299 661 q 471 714 396 714 q 564 700 524 714 q 631 654 604 686 q 672 567 658 622 q 685 432 685 513 l 685 0 l 504 0 z "},"Ҽ":{"ha":1103,"x_min":0,"x_max":1050,"o":"m 476 407 q 498 304 481 351 q 547 222 515 257 q 627 169 579 188 q 740 150 675 150 q 855 169 803 150 q 953 218 907 188 l 1001 57 q 865 1 939 21 q 706 -19 792 -19 q 406 89 515 -19 q 286 407 297 197 l 242 407 q 126 426 172 408 q 52 472 81 443 q 12 540 24 501 q 0 618 0 578 q 33 724 3 686 l 193 724 q 170 681 176 704 q 165 638 164 657 q 169 613 165 626 q 186 588 174 599 q 222 569 199 576 q 286 567 246 563 q 320 741 292 663 q 397 875 349 819 q 517 961 446 931 q 679 992 588 992 q 958 885 865 992 q 1050 576 1050 779 q 1047 496 1050 538 q 1036 407 1043 454 l 476 407 m 864 567 q 868 621 868 593 q 858 702 868 664 q 824 769 847 740 q 767 816 801 799 q 685 833 732 833 q 532 765 583 833 q 476 567 481 696 l 864 567 z "},"ҽ":{"ha":899,"x_min":8,"x_max":850,"o":"m 828 60 q 715 3 786 26 q 563 -19 643 -19 q 331 63 410 -19 q 240 289 253 144 l 231 289 q 66 338 124 289 q 8 478 8 386 l 8 488 q 19 547 10 525 q 49 593 29 569 l 200 593 q 169 553 181 576 q 158 497 158 531 q 176 450 158 469 q 244 431 193 431 q 349 643 264 572 q 572 714 433 714 q 675 700 625 714 q 764 654 725 686 q 826 568 803 622 q 850 433 850 514 q 847 371 850 404 q 836 301 843 338 l 421 301 q 465 169 425 214 q 597 125 506 125 q 699 142 654 125 q 768 178 744 160 l 828 60 m 569 569 q 466 527 499 569 q 426 414 433 485 l 682 414 q 683 425 682 419 q 683 436 683 431 q 655 535 683 500 q 569 569 626 569 z "},"Ҿ":{"ha":1103,"x_min":0,"x_max":1050,"o":"m 476 407 q 498 304 481 351 q 547 222 515 257 q 627 169 579 188 q 740 150 675 150 q 855 169 803 150 q 953 218 907 188 l 1001 57 q 893 10 950 28 q 771 -15 836 -8 l 751 -243 l 629 -243 l 603 -10 q 376 122 458 17 q 286 407 294 226 l 242 407 q 126 426 172 408 q 52 472 81 443 q 12 540 24 501 q 0 618 0 578 q 33 724 3 686 l 193 724 q 170 681 176 704 q 165 638 164 657 q 169 613 165 626 q 186 588 174 599 q 222 569 199 576 q 286 567 246 563 q 320 741 292 663 q 397 875 349 819 q 517 961 446 931 q 679 992 588 992 q 958 885 865 992 q 1050 576 1050 779 q 1047 496 1050 538 q 1036 407 1043 454 l 476 407 m 864 567 q 868 621 868 593 q 858 702 868 664 q 824 769 847 740 q 767 816 801 799 q 685 833 732 833 q 532 765 583 833 q 476 567 481 696 l 864 567 z "},"ҿ":{"ha":899,"x_min":8,"x_max":850,"o":"m 828 60 q 749 16 796 35 q 646 -12 703 -3 l 626 -243 l 504 -243 l 478 -11 q 309 88 367 10 q 240 289 251 165 l 231 289 q 66 338 124 289 q 8 478 8 386 l 8 488 q 19 547 10 525 q 49 593 29 569 l 200 593 q 169 553 181 576 q 158 497 158 531 q 176 450 158 469 q 244 431 193 431 q 349 643 264 572 q 572 714 433 714 q 675 700 625 714 q 764 654 725 686 q 826 568 803 622 q 850 433 850 514 q 847 371 850 404 q 836 301 843 338 l 421 301 q 465 169 425 214 q 597 125 506 125 q 699 142 654 125 q 768 178 744 160 l 828 60 m 569 569 q 466 527 499 569 q 426 414 433 485 l 682 414 q 683 425 682 419 q 683 436 683 431 q 655 535 683 500 q 569 569 626 569 z "},"Ӏ":{"ha":396,"x_min":103,"x_max":293,"o":"m 103 972 l 293 972 l 293 0 l 103 0 l 103 972 z "},"Ӄ":{"ha":849,"x_min":83,"x_max":803,"o":"m 589 106 q 575 231 589 174 q 529 329 561 289 q 447 392 497 369 q 324 415 396 415 l 274 415 l 274 0 l 83 0 l 83 972 l 274 972 l 274 542 l 318 561 l 586 972 l 803 972 l 529 583 l 444 528 l 517 528 q 631 481 583 511 q 710 403 679 450 q 755 288 740 356 q 769 131 769 221 l 769 93 q 691 -194 769 -101 q 479 -287 613 -287 q 396 -279 439 -287 l 396 -125 l 417 -125 q 547 -71 504 -125 q 589 106 589 -17 z "},"ӄ":{"ha":696,"x_min":79,"x_max":658,"o":"m 469 38 q 431 216 469 158 q 308 281 392 274 l 260 281 l 260 0 l 79 0 l 79 694 l 260 694 l 260 393 l 303 413 l 465 694 l 658 694 l 489 421 l 425 376 l 482 374 q 569 326 536 358 q 619 252 601 294 q 644 160 638 210 q 650 63 650 111 l 650 39 q 585 -211 650 -132 q 403 -290 521 -290 q 359 -288 382 -290 q 313 -281 336 -286 l 313 -128 q 329 -130 321 -129 q 344 -131 338 -131 q 469 38 469 -131 z "},"Ӆ":{"ha":904,"x_min":-18,"x_max":918,"o":"m 592 803 l 385 803 q 372 563 379 671 q 353 367 365 454 q 322 214 342 281 q 272 99 303 147 q 228 46 253 67 q 178 13 204 25 q 126 -5 151 0 q 78 -10 100 -10 q 24 -5 46 -10 q -18 10 3 0 l 3 174 q 19 169 11 171 q 36 168 28 168 q 80 179 58 168 q 117 217 101 190 q 153 306 138 247 q 180 457 168 365 q 199 676 192 549 q 208 972 206 803 l 782 972 l 782 160 l 918 160 l 918 117 l 785 -181 l 654 -181 l 717 0 l 592 0 l 592 803 z "},"ӆ":{"ha":764,"x_min":-24,"x_max":769,"o":"m 457 535 l 319 535 q 300 339 311 436 q 265 165 289 242 q 199 40 240 88 q 90 -8 157 -8 q -24 13 10 -8 l -1 163 q 40 154 21 154 q 89 178 68 154 q 124 263 110 201 q 148 428 139 324 q 161 694 157 533 l 638 694 l 638 160 l 769 160 l 769 117 l 636 -158 l 506 -158 l 568 0 l 457 0 l 457 535 z "},"Ӈ":{"ha":904,"x_min":83,"x_max":819,"o":"m 819 -29 q 769 -222 819 -156 q 611 -289 719 -289 q 569 -287 592 -289 q 522 -279 546 -285 l 522 -128 q 533 -128 528 -128 q 543 -129 538 -129 q 590 -121 572 -129 q 616 -96 607 -112 q 627 -55 625 -79 q 629 0 629 -31 l 629 407 l 274 407 l 274 0 l 83 0 l 83 972 l 274 972 l 274 576 l 629 576 l 629 972 l 819 972 l 819 -29 z "},"ӈ":{"ha":746,"x_min":79,"x_max":667,"o":"m 486 274 l 260 274 l 260 0 l 79 0 l 79 694 l 260 694 l 260 433 l 486 433 l 486 694 l 667 694 l 667 -29 q 617 -222 667 -156 q 457 -289 567 -289 q 368 -279 415 -289 l 368 -128 q 378 -128 374 -128 q 389 -129 383 -129 q 467 -95 449 -129 q 486 0 486 -61 l 486 274 z "},"Ӊ":{"ha":949,"x_min":83,"x_max":963,"o":"m 629 407 l 274 407 l 274 0 l 83 0 l 83 972 l 274 972 l 274 576 l 629 576 l 629 972 l 819 972 l 819 160 l 963 160 l 963 117 l 829 -181 l 699 -181 l 761 0 l 629 0 l 629 407 z "},"ӊ":{"ha":800,"x_min":79,"x_max":807,"o":"m 486 274 l 260 274 l 260 0 l 79 0 l 79 694 l 260 694 l 260 433 l 486 433 l 486 694 l 667 694 l 667 160 l 807 160 l 807 117 l 674 -158 l 543 -158 l 606 0 l 486 0 l 486 274 z "},"Ӌ":{"ha":842,"x_min":64,"x_max":758,"o":"m 254 972 l 254 664 q 287 540 254 581 q 394 499 319 499 q 494 510 447 499 q 568 546 540 522 l 568 972 l 758 972 l 758 0 l 603 0 l 582 -174 l 449 -174 l 449 169 l 568 169 l 568 392 q 472 353 532 371 q 328 336 411 336 q 222 351 269 336 q 138 398 174 365 q 83 481 103 431 q 64 604 64 532 l 64 972 l 254 972 z "},"ӌ":{"ha":701,"x_min":46,"x_max":622,"o":"m 442 288 q 378 257 421 272 q 263 242 335 242 q 103 295 160 242 q 46 474 46 349 l 46 694 l 226 694 l 226 551 q 230 483 226 513 q 244 434 233 454 q 273 404 254 414 q 322 394 292 394 q 392 404 363 394 q 442 428 422 414 l 442 694 l 622 694 l 622 0 l 456 0 l 435 -158 l 303 -158 l 303 136 l 442 136 l 442 288 z "}}}
